DancingScript-Regular.ufo
<glyph name="exclam" format="2">
  <advance width="260"/>
  <unicode hex="0021"/>
  <outline>
    <contour>
      <point x="40" y="103" type="curve"/>
      <point x="114" y="211"/>
      <point x="334" y="641"/>
      <point x="334" y="697" type="curve" smooth="yes"/>
      <point x="334" y="710"/>
      <point x="325" y="720"/>
      <point x="314" y="720" type="curve" smooth="yes"/>
      <point x="259" y="720"/>
      <point x="169" y="486"/>
      <point x="95" y="293" type="curve" smooth="yes"/>
      <point x="73" y="236"/>
      <point x="40" y="151"/>
    </contour>
    <contour>
      <point x="11" y="-10" type="curve" smooth="yes"/>
      <point x="37" y="-10"/>
      <point x="63" y="14"/>
      <point x="63" y="34" type="curve" smooth="yes"/>
      <point x="63" y="52"/>
      <point x="53" y="58"/>
      <point x="37" y="58" type="curve" smooth="yes"/>
      <point x="11" y="58"/>
      <point x="-21" y="39"/>
      <point x="-21" y="17" type="curve" smooth="yes"/>
      <point x="-21" y="-2"/>
      <point x="-6" y="-10"/>
    </contour>
  </outline>
</glyph>
<glyph name="dollar" format="2">
  <advance width="531"/>
  <unicode hex="0024"/>
  <outline>
    <contour>
      <point x="135" y="-162" type="curve"/>
      <point x="178" y="-162"/>
      <point x="209" y="-125"/>
      <point x="235" y="-56" type="curve"/>
      <point x="352" y="-46"/>
      <point x="461" y="23"/>
      <point x="461" y="143" type="curve" smooth="yes"/>
      <point x="461" y="241"/>
      <point x="389" y="282"/>
      <point x="320" y="319" type="curve"/>
      <point x="340" y="423"/>
      <point x="359" y="527"/>
      <point x="379" y="631" type="curve"/>
      <point x="432" y="631"/>
      <point x="451" y="613"/>
      <point x="451" y="582" type="curve" smooth="yes"/>
      <point x="451" y="539"/>
      <point x="414" y="465"/>
      <point x="414" y="432" type="curve" smooth="yes"/>
      <point x="414" y="414"/>
      <point x="425" y="395"/>
      <point x="449" y="390" type="curve"/>
      <point x="479" y="441"/>
      <point x="497" y="499"/>
      <point x="497" y="551" type="curve" smooth="yes"/>
      <point x="497" y="612"/>
      <point x="473" y="655"/>
      <point x="384" y="655" type="curve"/>
      <point x="389" y="685"/>
      <point x="394" y="710"/>
      <point x="396" y="720" type="curve"/>
      <point x="352" y="708"/>
      <point x="352" y="675"/>
      <point x="346" y="652" type="curve"/>
      <point x="230" y="634"/>
      <point x="129" y="543"/>
      <point x="129" y="433" type="curve" smooth="yes"/>
      <point x="129" y="342"/>
      <point x="199" y="302"/>
      <point x="266" y="263" type="curve"/>
      <point x="243" y="159"/>
      <point x="218" y="56"/>
      <point x="194" y="-24" type="curve"/>
      <point x="117" y="-16"/>
      <point x="74" y="25"/>
      <point x="74" y="93" type="curve" smooth="yes"/>
      <point x="74" y="138"/>
      <point x="93" y="187"/>
      <point x="129" y="226" type="curve"/>
      <point x="74" y="226"/>
      <point x="1" y="184"/>
      <point x="1" y="95" type="curve" smooth="yes"/>
      <point x="1" y="-2"/>
      <point x="86" y="-50"/>
      <point x="184" y="-56" type="curve"/>
      <point x="167" y="-105"/>
      <point x="150" y="-143"/>
    </contour>
    <contour>
      <point x="245" y="-24" type="curve"/>
      <point x="258" y="14"/>
      <point x="277" y="105"/>
      <point x="304" y="241" type="curve"/>
      <point x="353" y="211"/>
      <point x="392" y="175"/>
      <point x="392" y="113" type="curve" smooth="yes"/>
      <point x="392" y="39"/>
      <point x="336" y="-15"/>
    </contour>
    <contour>
      <point x="283" y="339" type="curve"/>
      <point x="233" y="367"/>
      <point x="192" y="399"/>
      <point x="192" y="458" type="curve" smooth="yes"/>
      <point x="192" y="528"/>
      <point x="251" y="608"/>
      <point x="341" y="627" type="curve"/>
      <point x="326" y="553"/>
      <point x="306" y="448"/>
    </contour>
  </outline>
</glyph>
<glyph name="percent" format="2">
  <advance width="698"/>
  <unicode hex="0025"/>
  <outline>
    <contour>
      <point x="78" y="-87" type="curve"/>
      <point x="135" y="-87"/>
      <point x="194" y="-13"/>
      <point x="263" y="97" type="curve" smooth="yes"/>
      <point x="349" y="235"/>
      <point x="570" y="663"/>
      <point x="592" y="720" type="curve"/>
      <point x="560" y="720"/>
      <point x="515" y="694"/>
      <point x="508" y="675" type="curve" smooth="yes"/>
      <point x="437" y="491"/>
      <point x="171" y="6"/>
    </contour>
    <contour>
      <point x="180" y="347" type="curve" smooth="yes"/>
      <point x="266" y="347"/>
      <point x="327" y="480"/>
      <point x="327" y="565" type="curve" smooth="yes"/>
      <point x="327" y="628"/>
      <point x="294" y="669"/>
      <point x="243" y="669" type="curve" smooth="yes"/>
      <point x="157" y="669"/>
      <point x="98" y="544"/>
      <point x="98" y="455" type="curve" smooth="yes"/>
      <point x="98" y="398"/>
      <point x="123" y="347"/>
    </contour>
    <contour>
      <point x="186" y="385" type="curve" smooth="yes"/>
      <point x="165" y="385"/>
      <point x="153" y="410"/>
      <point x="153" y="447" type="curve" smooth="yes"/>
      <point x="153" y="510"/>
      <point x="184" y="633"/>
      <point x="243" y="633" type="curve" smooth="yes"/>
      <point x="266" y="633"/>
      <point x="275" y="608"/>
      <point x="275" y="573" type="curve" smooth="yes"/>
      <point x="275" y="497"/>
      <point x="234" y="385"/>
    </contour>
    <contour>
      <point x="503" y="0" type="curve" smooth="yes"/>
      <point x="589" y="0"/>
      <point x="650" y="134"/>
      <point x="650" y="218" type="curve" smooth="yes"/>
      <point x="650" y="281"/>
      <point x="617" y="322"/>
      <point x="566" y="322" type="curve" smooth="yes"/>
      <point x="480" y="322"/>
      <point x="421" y="197"/>
      <point x="421" y="108" type="curve" smooth="yes"/>
      <point x="421" y="51"/>
      <point x="446" y="0"/>
    </contour>
    <contour>
      <point x="509" y="38" type="curve" smooth="yes"/>
      <point x="488" y="38"/>
      <point x="476" y="63"/>
      <point x="476" y="101" type="curve" smooth="yes"/>
      <point x="476" y="163"/>
      <point x="507" y="286"/>
      <point x="566" y="286" type="curve" smooth="yes"/>
      <point x="589" y="286"/>
      <point x="598" y="261"/>
      <point x="598" y="226" type="curve" smooth="yes"/>
      <point x="598" y="150"/>
      <point x="557" y="38"/>
    </contour>
  </outline>
</glyph>
<glyph name="parenright" format="2">
  <advance width="268"/>
  <unicode hex="0029"/>
  <outline>
    <contour>
      <point x="-39" y="-87" type="curve"/>
      <point x="31" y="-87"/>
      <point x="247" y="134"/>
      <point x="247" y="435" type="curve" smooth="yes"/>
      <point x="247" y="604"/>
      <point x="179" y="706"/>
      <point x="125" y="720" type="curve"/>
      <point x="183" y="640"/>
      <point x="196" y="558"/>
      <point x="196" y="475" type="curve" smooth="yes"/>
      <point x="196" y="223"/>
      <point x="78" y="35"/>
      <point x="-61" y="-63" type="curve"/>
      <point x="-56" y="-74"/>
      <point x="-48" y="-85"/>
    </contour>
  </outline>
</glyph>
<glyph name="asterisk" format="2">
  <advance width="391"/>
  <unicode hex="002A"/>
  <outline>
    <contour>
      <point x="355" y="404" type="curve"/>
      <point x="355" y="474"/>
      <point x="326" y="503"/>
      <point x="303" y="539" type="curve"/>
      <point x="433" y="551" type="line"/>
      <point x="399.53125" y="587.65625"/>
      <point x="335.2631578947368" y="579.6842105263158"/>
      <point x="295" y="577" type="curve"/>
      <point x="320" y="631"/>
      <point x="350" y="685"/>
      <point x="362" y="718" type="curve"/>
      <point x="317" y="707"/>
      <point x="297" y="653"/>
      <point x="267" y="588" type="curve"/>
      <point x="239" y="631"/>
      <point x="223" y="667"/>
      <point x="199" y="718" type="curve"/>
      <point x="193" y="711"/>
      <point x="185" y="704"/>
      <point x="185" y="692" type="curve" smooth="yes"/>
      <point x="185" y="666"/>
      <point x="205" y="623"/>
      <point x="233" y="577" type="curve"/>
      <point x="182" y="575"/>
      <point x="149" y="574"/>
      <point x="116" y="572" type="curve"/>
      <point x="123" y="542"/>
      <point x="171.0" y="539.0"/>
      <point x="231" y="539" type="curve"/>
      <point x="206" y="487"/>
      <point x="197" y="457"/>
      <point x="163" y="408" type="curve"/>
      <point x="198" y="408"/>
      <point x="232" y="466"/>
      <point x="266" y="532" type="curve"/>
      <point x="300" y="481"/>
      <point x="338" y="424"/>
    </contour>
  </outline>
</glyph>
<glyph name="hyphen" format="2">
  <advance width="484"/>
  <unicode hex="002D"/>
  <outline>
    <contour>
      <point x="36" y="144" type="curve"/>
      <point x="99" y="154"/>
      <point x="130" y="155"/>
      <point x="195" y="155" type="curve" smooth="yes"/>
      <point x="290" y="155" type="line" smooth="yes"/>
      <point x="318" y="155"/>
      <point x="360" y="160"/>
      <point x="393" y="184" type="curve"/>
      <point x="364" y="187"/>
      <point x="296" y="193"/>
      <point x="225" y="193" type="curve" smooth="yes"/>
      <point x="129" y="193"/>
      <point x="51" y="184"/>
    </contour>
  </outline>
</glyph>
<glyph name="slash" format="2">
  <advance width="330"/>
  <unicode hex="002F"/>
  <outline>
    <contour>
      <point x="-68" y="-162" type="curve"/>
      <point x="-11" y="-162"/>
      <point x="57" y="-97"/>
      <point x="107" y="22" type="curve" smooth="yes"/>
      <point x="165" y="160"/>
      <point x="374" y="663"/>
      <point x="396" y="720" type="curve"/>
      <point x="364" y="720"/>
      <point x="319" y="694"/>
      <point x="312" y="675" type="curve" smooth="yes"/>
      <point x="241" y="491"/>
      <point x="25" y="-69"/>
    </contour>
  </outline>
</glyph>
<glyph name="zero" format="2">
  <advance width="630"/>
  <unicode hex="0030"/>
  <outline>
    <contour>
      <point x="244" y="-87" type="curve" smooth="yes"/>
      <point x="454" y="-87"/>
      <point x="613" y="203"/>
      <point x="613" y="474" type="curve" smooth="yes"/>
      <point x="613" y="623"/>
      <point x="536" y="720"/>
      <point x="415" y="720" type="curve" smooth="yes"/>
      <point x="201" y="720"/>
      <point x="53" y="402"/>
      <point x="53" y="174" type="curve" smooth="yes"/>
      <point x="53" y="36"/>
      <point x="112" y="-87"/>
    </contour>
    <contour>
      <point x="258" y="-53" type="curve" smooth="yes"/>
      <point x="183" y="-53"/>
      <point x="137" y="29"/>
      <point x="137" y="153" type="curve" smooth="yes"/>
      <point x="137" y="336"/>
      <point x="235" y="693"/>
      <point x="416" y="693" type="curve" smooth="yes"/>
      <point x="504" y="693"/>
      <point x="537" y="608"/>
      <point x="537" y="495" type="curve" smooth="yes"/>
      <point x="537" y="275"/>
      <point x="409" y="-53"/>
    </contour>
  </outline>
</glyph>
<glyph name="one" format="2">
  <advance width="365"/>
  <unicode hex="0031"/>
  <outline>
    <contour>
      <point x="30" y="-87" type="curve" smooth="yes"/>
      <point x="84" y="-87"/>
      <point x="137" y="-78"/>
      <point x="200" y="-78" type="curve" smooth="yes"/>
      <point x="226" y="-78"/>
      <point x="252" y="-80"/>
      <point x="279" y="-83" type="curve"/>
      <point x="270" y="-37"/>
      <point x="233" y="-27"/>
      <point x="182" y="-27" type="curve" smooth="yes"/>
      <point x="170" y="-27"/>
      <point x="156" y="-28"/>
      <point x="142" y="-30" type="curve"/>
      <point x="213" y="120"/>
      <point x="267" y="393"/>
      <point x="294" y="577" type="curve" smooth="yes"/>
      <point x="300" y="617"/>
      <point x="317" y="656"/>
      <point x="317" y="689" type="curve" smooth="yes"/>
      <point x="317" y="700"/>
      <point x="315" y="714"/>
      <point x="308" y="720" type="curve"/>
      <point x="236" y="641"/>
      <point x="135" y="566"/>
      <point x="98" y="547" type="curve"/>
      <point x="98" y="523"/>
      <point x="107" y="518"/>
      <point x="123" y="518" type="curve" smooth="yes"/>
      <point x="135" y="518"/>
      <point x="162" y="530"/>
      <point x="238" y="584" type="curve"/>
      <point x="201" y="434"/>
      <point x="155" y="104"/>
      <point x="94" y="-37" type="curve"/>
      <point x="59" y="-43"/>
      <point x="21" y="-48"/>
      <point x="-14" y="-48" type="curve" smooth="yes"/>
      <point x="-25" y="-48"/>
      <point x="-36" y="-47"/>
      <point x="-46" y="-46" type="curve"/>
      <point x="-28" y="-73"/>
      <point x="6" y="-87"/>
    </contour>
  </outline>
</glyph>
<glyph name="five" format="2">
  <advance width="483"/>
  <unicode hex="0035"/>
  <outline>
    <contour>
      <point x="166" y="-87" type="curve" smooth="yes"/>
      <point x="320" y="-87"/>
      <point x="431" y="25"/>
      <point x="431" y="169" type="curve" smooth="yes"/>
      <point x="431" y="277"/>
      <point x="368" y="358"/>
      <point x="233" y="358" type="curve" smooth="yes"/>
      <point x="203" y="358"/>
      <point x="174" y="354"/>
      <point x="146" y="348" type="curve"/>
      <point x="150" y="360"/>
      <point x="194" y="548"/>
      <point x="222" y="611" type="curve" smooth="yes"/>
      <point x="230" y="628"/>
      <point x="233" y="631"/>
      <point x="245" y="631" type="curve" smooth="yes"/>
      <point x="270" y="631"/>
      <point x="304" y="618"/>
      <point x="354" y="618" type="curve" smooth="yes"/>
      <point x="411" y="618"/>
      <point x="477" y="635"/>
      <point x="477" y="693" type="curve" smooth="yes"/>
      <point x="477" y="700"/>
      <point x="476" y="709"/>
      <point x="473" y="720" type="curve"/>
      <point x="420" y="709"/>
      <point x="373" y="700"/>
      <point x="318" y="700" type="curve" smooth="yes"/>
      <point x="287" y="700"/>
      <point x="252" y="703"/>
      <point x="212" y="713" type="curve"/>
      <point x="194" y="644"/>
      <point x="122" y="412"/>
      <point x="108" y="319" type="curve"/>
      <point x="143" y="326"/>
      <point x="177" y="330"/>
      <point x="200" y="330" type="curve" smooth="yes"/>
      <point x="297" y="330"/>
      <point x="334" y="256"/>
      <point x="334" y="174" type="curve" smooth="yes"/>
      <point x="334" y="67"/>
      <point x="272" y="-55"/>
      <point x="166" y="-55" type="curve" smooth="yes"/>
      <point x="91" y="-55"/>
      <point x="64" y="5"/>
      <point x="64" y="65" type="curve" smooth="yes"/>
      <point x="64" y="106"/>
      <point x="77" y="146"/>
      <point x="96" y="162" type="curve"/>
      <point x="91" y="163"/>
      <point x="84" y="163"/>
      <point x="78" y="163" type="curve" smooth="yes"/>
      <point x="25" y="163"/>
      <point x="-3" y="106"/>
      <point x="-3" y="54" type="curve" smooth="yes"/>
      <point x="-3" y="-7"/>
      <point x="36" y="-87"/>
    </contour>
  </outline>
</glyph>
<glyph name="nine" format="2">
  <advance width="566"/>
  <unicode hex="0039"/>
  <outline>
    <contour>
      <point x="183" y="-87" type="curve" smooth="yes"/>
      <point x="409" y="-87"/>
      <point x="549" y="232"/>
      <point x="549" y="458" type="curve" smooth="yes"/>
      <point x="549" y="602"/>
      <point x="492" y="720"/>
      <point x="336" y="720" type="curve" smooth="yes"/>
      <point x="188" y="720"/>
      <point x="86" y="608"/>
      <point x="86" y="462" type="curve" smooth="yes"/>
      <point x="86" y="321"/>
      <point x="174" y="259"/>
      <point x="276" y="259" type="curve" smooth="yes"/>
      <point x="337" y="259"/>
      <point x="400" y="282"/>
      <point x="442" y="324" type="curve"/>
      <point x="406" y="143"/>
      <point x="315" y="-64"/>
      <point x="187" y="-64" type="curve" smooth="yes"/>
      <point x="140" y="-64"/>
      <point x="130" y="-36"/>
      <point x="130" y="-6" type="curve" smooth="yes"/>
      <point x="130" y="5"/>
      <point x="131" y="9"/>
      <point x="131" y="19" type="curve"/>
      <point x="96" y="8"/>
      <point x="87" y="-9"/>
      <point x="87" y="-27" type="curve" smooth="yes"/>
      <point x="87" y="-69"/>
      <point x="128" y="-87"/>
    </contour>
    <contour>
      <point x="304" y="293" type="curve" smooth="yes"/>
      <point x="236" y="293"/>
      <point x="173" y="341"/>
      <point x="173" y="456" type="curve" smooth="yes"/>
      <point x="173" y="567"/>
      <point x="233" y="688"/>
      <point x="332" y="688" type="curve" smooth="yes"/>
      <point x="434" y="688"/>
      <point x="457" y="568"/>
      <point x="457" y="469" type="curve" smooth="yes"/>
      <point x="457" y="365"/>
      <point x="411" y="293"/>
    </contour>
  </outline>
</glyph>
<glyph name="colon" format="2">
  <advance width="216"/>
  <unicode hex="003A"/>
  <outline>
    <contour>
      <point x="102" y="240" type="curve" smooth="yes"/>
      <point x="128" y="240"/>
      <point x="154" y="264"/>
      <point x="154" y="284" type="curve" smooth="yes"/>
      <point x="154" y="302"/>
      <point x="144" y="308"/>
      <point x="128" y="308" type="curve" smooth="yes"/>
      <point x="102" y="308"/>
      <point x="70" y="289"/>
      <point x="70" y="267" type="curve" smooth="yes"/>
      <point x="70" y="248"/>
      <point x="85" y="240"/>
    </contour>
    <contour>
      <point x="42" y="-10" type="curve" smooth="yes"/>
      <point x="68" y="-10"/>
      <point x="94" y="14"/>
      <point x="94" y="34" type="curve" smooth="yes"/>
      <point x="94" y="52"/>
      <point x="84" y="58"/>
      <point x="68" y="58" type="curve" smooth="yes"/>
      <point x="42" y="58"/>
      <point x="10" y="39"/>
      <point x="10" y="17" type="curve" smooth="yes"/>
      <point x="10" y="-2"/>
      <point x="25" y="-10"/>
    </contour>
  </outline>
</glyph>
<glyph name="A" format="2">
  <advance width="592"/>
  <unicode hex="0041"/>
  <anchor x="460" y="-10" name="ogonek"/>
  <outline>
    <contour>
      <point x="17" y="-87" type="curve"/>
      <point x="67" y="31"/>
      <point x="128" y="157"/>
      <point x="191" y="273" type="curve"/>
      <point x="232" y="268"/>
      <point x="280" y="262"/>
      <point x="339" y="253" type="curve"/>
      <point x="328" y="198"/>
      <point x="322" y="147"/>
      <point x="322" y="104" type="curve" smooth="yes"/>
      <point x="322" y="23"/>
      <point x="345" y="-30"/>
      <point x="400" y="-30" type="curve" smooth="yes"/>
      <point x="466" y="-30"/>
      <point x="533" y="45"/>
      <point x="573" y="152" type="curve"/>
      <point x="563" y="162" type="line"/>
      <point x="511" y="61"/>
      <point x="467" y="14"/>
      <point x="432" y="14" type="curve" smooth="yes"/>
      <point x="405" y="14"/>
      <point x="395" y="43"/>
      <point x="395" y="94" type="curve" smooth="yes"/>
      <point x="395" y="269"/>
      <point x="511" y="656"/>
      <point x="551" y="688" type="curve"/>
      <point x="531" y="708"/>
      <point x="512" y="720"/>
      <point x="498" y="720" type="curve" smooth="yes"/>
      <point x="485" y="720"/>
      <point x="470" y="711"/>
      <point x="450" y="692" type="curve" smooth="yes"/>
      <point x="388" y="634"/>
      <point x="270" y="481"/>
      <point x="168" y="328" type="curve"/>
      <point x="142" y="332"/>
      <point x="118" y="335"/>
      <point x="96" y="335" type="curve" smooth="yes"/>
      <point x="45" y="335"/>
      <point x="6" y="321"/>
      <point x="-8" y="283" type="curve"/>
      <point x="27" y="283" type="line" smooth="yes"/>
      <point x="52" y="283"/>
      <point x="86" y="282"/>
      <point x="135" y="278" type="curve"/>
      <point x="50" y="145"/>
      <point x="-17" y="20"/>
      <point x="-17" y="-35" type="curve" smooth="yes"/>
      <point x="-17" y="-48"/>
      <point x="-13" y="-70"/>
    </contour>
    <contour>
      <point x="346" y="288" type="curve"/>
      <point x="308" y="297"/>
      <point x="262" y="309"/>
      <point x="217" y="319" type="curve"/>
      <point x="310" y="485"/>
      <point x="404" y="619"/>
      <point x="466" y="657" type="curve"/>
      <point x="425" y="565"/>
      <point x="375" y="420"/>
    </contour>
  </outline>
</glyph>
<glyph name="B" format="2">
  <advance width="608"/>
  <unicode hex="0042"/>
  <outline>
    <contour>
      <point x="130" y="-87" type="curve" smooth="yes"/>
      <point x="279" y="-87"/>
      <point x="563" y="10"/>
      <point x="563" y="205" type="curve" smooth="yes"/>
      <point x="563" y="268"/>
      <point x="533" y="354"/>
      <point x="335" y="366" type="curve"/>
      <point x="438" y="383"/>
      <point x="564" y="430"/>
      <point x="564" y="561" type="curve" smooth="yes"/>
      <point x="564" y="700"/>
      <point x="422" y="720"/>
      <point x="333" y="720" type="curve" smooth="yes"/>
      <point x="229" y="720"/>
      <point x="163" y="693"/>
      <point x="96" y="665" type="curve"/>
      <point x="96" y="655"/>
      <point x="118" y="638"/>
      <point x="128" y="638" type="curve" smooth="yes"/>
      <point x="141" y="638"/>
      <point x="182" y="677"/>
      <point x="266" y="692" type="curve"/>
      <point x="178" y="521"/>
      <point x="74" y="197"/>
      <point x="54" y="131" type="curve" smooth="yes"/>
      <point x="49" y="114"/>
      <point x="40" y="90"/>
      <point x="40" y="74" type="curve" smooth="yes"/>
      <point x="40" y="47"/>
      <point x="66" y="26"/>
      <point x="99" y="26" type="curve"/>
      <point x="129" y="129"/>
      <point x="158" y="240"/>
      <point x="189" y="348" type="curve"/>
      <point x="211" y="348"/>
      <point x="238" y="349"/>
      <point x="264" y="349" type="curve" smooth="yes"/>
      <point x="378" y="349"/>
      <point x="516" y="332"/>
      <point x="516" y="223" type="curve" smooth="yes"/>
      <point x="516" y="102"/>
      <point x="348" y="-14"/>
      <point x="118" y="-14" type="curve" smooth="yes"/>
      <point x="50" y="-14"/>
      <point x="33" y="-4"/>
      <point x="24" y="-4" type="curve" smooth="yes"/>
      <point x="21" y="-4"/>
      <point x="19" y="-5"/>
      <point x="19" y="-7" type="curve" smooth="yes"/>
      <point x="19" y="-64"/>
      <point x="57" y="-87"/>
    </contour>
    <contour>
      <point x="195" y="371" type="curve"/>
      <point x="230" y="490"/>
      <point x="268" y="604"/>
      <point x="316" y="698" type="curve"/>
      <point x="322" y="699"/>
      <point x="328" y="699"/>
      <point x="335" y="699" type="curve" smooth="yes"/>
      <point x="421" y="699"/>
      <point x="504" y="673"/>
      <point x="504" y="569" type="curve" smooth="yes"/>
      <point x="504" y="423"/>
      <point x="341" y="376"/>
    </contour>
  </outline>
</glyph>
<glyph name="D" format="2">
  <advance width="653"/>
  <unicode hex="0044"/>
  <outline>
    <contour>
      <point x="163" y="-87" type="curve" smooth="yes"/>
      <point x="397" y="-87"/>
      <point x="643" y="157"/>
      <point x="643" y="446" type="curve" smooth="yes"/>
      <point x="643" y="600"/>
      <point x="573" y="720"/>
      <point x="394" y="720" type="curve" smooth="yes"/>
      <point x="222" y="720"/>
      <point x="80" y="610"/>
      <point x="80" y="517" type="curve" smooth="yes"/>
      <point x="80" y="486"/>
      <point x="96" y="461"/>
      <point x="140" y="461" type="curve"/>
      <point x="137" y="470"/>
      <point x="135" y="482"/>
      <point x="135" y="498" type="curve" smooth="yes"/>
      <point x="135" y="608"/>
      <point x="233" y="693"/>
      <point x="364" y="693" type="curve" smooth="yes"/>
      <point x="485" y="693"/>
      <point x="569" y="619"/>
      <point x="569" y="457" type="curve" smooth="yes"/>
      <point x="569" y="209"/>
      <point x="374" y="-61"/>
      <point x="162" y="-61" type="curve" smooth="yes"/>
      <point x="149" y="-61"/>
      <point x="137" y="-60"/>
      <point x="119" y="-57" type="curve"/>
      <point x="161" y="136"/>
      <point x="252" y="431"/>
      <point x="335" y="622" type="curve"/>
      <point x="325" y="629"/>
      <point x="316" y="632"/>
      <point x="307" y="632" type="curve" smooth="yes"/>
      <point x="267" y="632"/>
      <point x="237" y="559"/>
      <point x="229" y="538" type="curve" smooth="yes"/>
      <point x="200" y="461"/>
      <point x="96" y="148"/>
      <point x="56" y="-42" type="curve"/>
      <point x="82" y="-79"/>
      <point x="121" y="-87"/>
    </contour>
  </outline>
</glyph>
<glyph name="G" format="2">
  <advance width="554"/>
  <unicode hex="0047"/>
  <outline>
    <contour>
      <point x="209" y="-87" type="curve" smooth="yes"/>
      <point x="288" y="-87"/>
      <point x="350" y="-36"/>
      <point x="398" y="31" type="curve"/>
      <point x="393" y="14"/>
      <point x="391" y="-1"/>
      <point x="391" y="-15" type="curve" smooth="yes"/>
      <point x="391" y="-51"/>
      <point x="412" y="-74"/>
      <point x="445" y="-87" type="curve"/>
      <point x="444" y="-60"/>
      <point x="441" y="-36"/>
      <point x="441" y="-9" type="curve" smooth="yes"/>
      <point x="441" y="39"/>
      <point x="451" y="102"/>
      <point x="502" y="235" type="curve"/>
      <point x="509" y="267" type="line"/>
      <point x="464" y="278"/>
      <point x="396" y="314"/>
      <point x="340" y="314" type="curve" smooth="yes"/>
      <point x="305" y="314"/>
      <point x="281" y="300"/>
      <point x="272" y="262" type="curve"/>
      <point x="297" y="262"/>
      <point x="315" y="263"/>
      <point x="333" y="263" type="curve" smooth="yes"/>
      <point x="359" y="263"/>
      <point x="387" y="261"/>
      <point x="436" y="250" type="curve"/>
      <point x="426" y="119"/>
      <point x="341" y="-53"/>
      <point x="236" y="-53" type="curve" smooth="yes"/>
      <point x="159" y="-53"/>
      <point x="102" y="20"/>
      <point x="102" y="141" type="curve" smooth="yes"/>
      <point x="102" y="363"/>
      <point x="292" y="689"/>
      <point x="436" y="689" type="curve" smooth="yes"/>
      <point x="480" y="689"/>
      <point x="496" y="666"/>
      <point x="496" y="636" type="curve" smooth="yes"/>
      <point x="496" y="582"/>
      <point x="446" y="503"/>
      <point x="418" y="483" type="curve"/>
      <point x="426" y="466"/>
      <point x="438" y="460"/>
      <point x="449" y="460" type="curve" smooth="yes"/>
      <point x="497" y="460"/>
      <point x="537" y="536"/>
      <point x="537" y="606" type="curve" smooth="yes"/>
      <point x="537" y="665"/>
      <point x="509" y="719"/>
      <point x="433" y="719" type="curve" smooth="yes"/>
      <point x="243" y="719"/>
      <point x="22" y="418"/>
      <point x="22" y="161" type="curve" smooth="yes"/>
      <point x="22" y="4"/>
      <point x="104" y="-87"/>
    </contour>
  </outline>
</glyph>
<glyph name="I" format="2">
  <advance width="459"/>
  <unicode hex="0049"/>
  <anchor x="159" y="-56" name="ogonek"/>
  <anchor x="20" y="720" name="topleft"/>
  <outline>
    <contour>
      <point x="-38" y="-88" type="curve"/>
      <point x="59" y="-69"/>
      <point x="155" y="-72"/>
      <point x="263" y="-71" type="curve" smooth="yes"/>
      <point x="291" y="-71"/>
      <point x="337" y="-67"/>
      <point x="376" y="-28" type="curve"/>
      <point x="313" y="-27"/>
      <point x="228" y="-13"/>
      <point x="159" y="-9" type="curve"/>
      <point x="196" y="16"/>
      <point x="221" y="76"/>
      <point x="243" y="162" type="curve" smooth="yes"/>
      <point x="276" y="295"/>
      <point x="329" y="591"/>
      <point x="342" y="661" type="curve"/>
      <point x="373" y="662"/>
      <point x="409" y="662"/>
      <point x="451" y="662" type="curve" smooth="yes"/>
      <point x="478" y="662"/>
      <point x="516" y="665"/>
      <point x="548" y="697" type="curve"/>
      <point x="501" y="704"/>
      <point x="385" y="718"/>
      <point x="286" y="718" type="curve" smooth="yes"/>
      <point x="151" y="718"/>
      <point x="91" y="692"/>
      <point x="82" y="641" type="curve"/>
      <point x="156" y="655"/>
      <point x="203" y="659"/>
      <point x="307" y="661" type="curve"/>
      <point x="266" y="544"/>
      <point x="198" y="149"/>
      <point x="125" y="-8" type="curve"/>
      <point x="41" y="-8"/>
      <point x="-31" y="-15"/>
    </contour>
  </outline>
</glyph>
<glyph name="J" format="2">
  <advance width="411"/>
  <unicode hex="004A"/>
  <outline>
    <contour>
      <point x="77" y="-86" type="curve" smooth="yes"/>
      <point x="136" y="-86"/>
      <point x="188" y="-58"/>
      <point x="241" y="61" type="curve" smooth="yes"/>
      <point x="320" y="237"/>
      <point x="383" y="576"/>
      <point x="383" y="620" type="curve" smooth="yes"/>
      <point x="383" y="635"/>
      <point x="376" y="656"/>
      <point x="362" y="667" type="curve"/>
      <point x="383" y="667"/>
      <point x="406" y="668"/>
      <point x="433" y="668" type="curve" smooth="yes"/>
      <point x="454" y="668"/>
      <point x="495" y="672"/>
      <point x="510" y="697" type="curve"/>
      <point x="473" y="704"/>
      <point x="380" y="718"/>
      <point x="301" y="718" type="curve" smooth="yes"/>
      <point x="193" y="718"/>
      <point x="145" y="692"/>
      <point x="138" y="647" type="curve"/>
      <point x="201" y="662"/>
      <point x="241" y="666"/>
      <point x="340" y="667" type="curve"/>
      <point x="315" y="535"/>
      <point x="242" y="200"/>
      <point x="189" y="54" type="curve" smooth="yes"/>
      <point x="159" y="-28"/>
      <point x="134" y="-51"/>
      <point x="100" y="-51" type="curve" smooth="yes"/>
      <point x="59" y="-51"/>
      <point x="37" y="-16"/>
      <point x="37" y="44" type="curve" smooth="yes"/>
      <point x="37" y="89"/>
      <point x="49" y="143"/>
      <point x="73" y="204" type="curve"/>
      <point x="63" y="209"/>
      <point x="54" y="212"/>
      <point x="45" y="212" type="curve" smooth="yes"/>
      <point x="-2" y="212"/>
      <point x="-31" y="122"/>
      <point x="-31" y="44" type="curve" smooth="yes"/>
      <point x="-31" y="-68"/>
      <point x="30" y="-86"/>
    </contour>
  </outline>
</glyph>
<glyph name="K" format="2">
  <advance width="590"/>
  <unicode hex="004B"/>
  <outline>
    <contour>
      <point x="495" y="-87" type="curve" smooth="yes"/>
      <point x="518" y="-87"/>
      <point x="540" y="-72"/>
      <point x="549" y="-54" type="curve"/>
      <point x="378" y="86"/>
      <point x="322" y="185"/>
      <point x="241" y="322" type="curve"/>
      <point x="366" y="406"/>
      <point x="605" y="574"/>
      <point x="605" y="676" type="curve" smooth="yes"/>
      <point x="605" y="687"/>
      <point x="602" y="712"/>
      <point x="596" y="720" type="curve"/>
      <point x="534" y="621"/>
      <point x="412" y="504"/>
      <point x="323" y="433" type="curve" smooth="yes"/>
      <point x="287" y="404"/>
      <point x="256" y="383"/>
      <point x="237" y="357" type="curve"/>
      <point x="321" y="629" type="line" smooth="yes"/>
      <point x="325" y="642"/>
      <point x="329" y="657"/>
      <point x="329" y="672" type="curve" smooth="yes"/>
      <point x="329" y="696"/>
      <point x="319" y="720"/>
      <point x="283" y="720" type="curve" smooth="yes"/>
      <point x="208" y="720"/>
      <point x="83" y="618"/>
      <point x="83" y="527" type="curve" smooth="yes"/>
      <point x="83" y="495"/>
      <point x="99" y="470"/>
      <point x="143" y="470" type="curve"/>
      <point x="140" y="479"/>
      <point x="138" y="492"/>
      <point x="138" y="504" type="curve" smooth="yes"/>
      <point x="138" y="570"/>
      <point x="197" y="692"/>
      <point x="262" y="692" type="curve" smooth="yes"/>
      <point x="280" y="692"/>
      <point x="286" y="682"/>
      <point x="286" y="668" type="curve" smooth="yes"/>
      <point x="286" y="652"/>
      <point x="277" y="630"/>
      <point x="273" y="619" type="curve" smooth="yes"/>
      <point x="116" y="161"/>
      <point x="72" y="24"/>
      <point x="30" y="-69" type="curve"/>
      <point x="63" y="-69"/>
      <point x="105" y="-69"/>
      <point x="119" y="-23" type="curve" smooth="yes"/>
      <point x="216" y="291" type="line"/>
      <point x="275" y="160"/>
      <point x="422" y="-87"/>
    </contour>
  </outline>
</glyph>
<glyph name="M" format="2">
  <advance width="763"/>
  <unicode hex="004D"/>
  <outline>
    <contour>
      <point x="-17" y="-87" type="curve"/>
      <point x="56" y="-87"/>
      <point x="114" y="105"/>
      <point x="327" y="602" type="curve"/>
      <point x="328" y="588"/>
      <point x="329" y="572"/>
      <point x="329" y="546" type="curve" smooth="yes"/>
      <point x="329" y="440"/>
      <point x="313" y="231"/>
      <point x="313" y="121" type="curve" smooth="yes"/>
      <point x="313" y="44"/>
      <point x="321" y="-1"/>
      <point x="357" y="-1" type="curve" smooth="yes"/>
      <point x="363" y="-1"/>
      <point x="364" y="0"/>
      <point x="372" y="3" type="curve"/>
      <point x="413" y="125"/>
      <point x="544" y="441"/>
      <point x="640" y="564" type="curve"/>
      <point x="588" y="368"/>
      <point x="540" y="184"/>
      <point x="540" y="25" type="curve" smooth="yes"/>
      <point x="540" y="-57"/>
      <point x="553" y="-87"/>
      <point x="622" y="-87" type="curve"/>
      <point x="613" y="-54"/>
      <point x="607" y="-50"/>
      <point x="607" y="-5" type="curve" smooth="yes"/>
      <point x="607" y="122"/>
      <point x="656" y="396"/>
      <point x="698" y="560" type="curve" smooth="yes"/>
      <point x="715" y="628"/>
      <point x="733" y="676"/>
      <point x="743" y="700" type="curve"/>
      <point x="730" y="705"/>
      <point x="719" y="707"/>
      <point x="711" y="707" type="curve" smooth="yes"/>
      <point x="689" y="707"/>
      <point x="679" y="692"/>
      <point x="661" y="666" type="curve" smooth="yes"/>
      <point x="616" y="600"/>
      <point x="429" y="306"/>
      <point x="376" y="102" type="curve"/>
      <point x="380" y="214"/>
      <point x="397" y="371"/>
      <point x="397" y="496" type="curve" smooth="yes"/>
      <point x="397" y="677"/>
      <point x="361" y="720"/>
      <point x="296" y="720" type="curve" smooth="yes"/>
      <point x="208" y="720"/>
      <point x="101" y="640"/>
      <point x="101" y="552" type="curve" smooth="yes"/>
      <point x="101" y="519"/>
      <point x="116" y="470"/>
      <point x="154" y="470" type="curve"/>
      <point x="153" y="479"/>
      <point x="152" y="488"/>
      <point x="152" y="501" type="curve" smooth="yes"/>
      <point x="152" y="582"/>
      <point x="191" y="683"/>
      <point x="276" y="683" type="curve" smooth="yes"/>
      <point x="304" y="683"/>
      <point x="310" y="672"/>
      <point x="310" y="657" type="curve" smooth="yes"/>
      <point x="310" y="642"/>
      <point x="304" y="625"/>
      <point x="300" y="616" type="curve" smooth="yes"/>
      <point x="138" y="252"/>
      <point x="-1" y="-51"/>
    </contour>
  </outline>
</glyph>
<glyph name="N" format="2">
  <advance width="640"/>
  <unicode hex="004E"/>
  <outline>
    <contour>
      <point x="46" y="-87" type="curve"/>
      <point x="107" y="-87"/>
      <point x="134" y="12"/>
      <point x="295" y="589" type="curve"/>
      <point x="313" y="462"/>
      <point x="366" y="100"/>
      <point x="386" y="-6" type="curve" smooth="yes"/>
      <point x="397" y="-66"/>
      <point x="422" y="-87"/>
      <point x="464" y="-87" type="curve"/>
      <point x="466" y="69"/>
      <point x="593" y="535"/>
      <point x="663" y="720" type="curve"/>
      <point x="633" y="720"/>
      <point x="607" y="688"/>
      <point x="600" y="671" type="curve" smooth="yes"/>
      <point x="584" y="634"/>
      <point x="467" y="260"/>
      <point x="439" y="72" type="curve"/>
      <point x="429" y="137"/>
      <point x="410" y="275"/>
      <point x="395" y="408" type="curve" smooth="yes"/>
      <point x="377" y="569"/>
      <point x="359" y="720"/>
      <point x="279" y="720" type="curve" smooth="yes"/>
      <point x="202" y="720"/>
      <point x="79" y="618"/>
      <point x="79" y="527" type="curve" smooth="yes"/>
      <point x="79" y="495"/>
      <point x="95" y="470"/>
      <point x="139" y="470" type="curve"/>
      <point x="136" y="479"/>
      <point x="134" y="492"/>
      <point x="134" y="505" type="curve" smooth="yes"/>
      <point x="134" y="570"/>
      <point x="185" y="683"/>
      <point x="250" y="683" type="curve" smooth="yes"/>
      <point x="261" y="683"/>
      <point x="265" y="673"/>
      <point x="265" y="660" type="curve" smooth="yes"/>
      <point x="265" y="645"/>
      <point x="260" y="626"/>
      <point x="258" y="619" type="curve" smooth="yes"/>
      <point x="138" y="211"/>
      <point x="79" y="40"/>
    </contour>
  </outline>
</glyph>
<glyph name="O" format="2">
  <advance width="623"/>
  <unicode hex="004F"/>
  <anchor x="301" y="-69" name="ogonek"/>
  <anchor x="517" y="670" name="topright"/>
  <outline>
    <contour>
      <point x="213" y="-87" type="curve" smooth="yes"/>
      <point x="374" y="-87"/>
      <point x="602" y="113"/>
      <point x="602" y="477" type="curve" smooth="yes"/>
      <point x="602" y="555"/>
      <point x="586" y="670"/>
      <point x="517" y="670" type="curve" smooth="yes"/>
      <point x="451" y="670"/>
      <point x="336" y="549"/>
      <point x="336" y="478" type="curve" smooth="yes"/>
      <point x="336" y="456"/>
      <point x="350" y="437"/>
      <point x="384" y="429" type="curve"/>
      <point x="400" y="504"/>
      <point x="470" y="643"/>
      <point x="519" y="643" type="curve" smooth="yes"/>
      <point x="553" y="643"/>
      <point x="564" y="560"/>
      <point x="564" y="505" type="curve" smooth="yes"/>
      <point x="564" y="268"/>
      <point x="430" y="-53"/>
      <point x="243" y="-53" type="curve" smooth="yes"/>
      <point x="148" y="-53"/>
      <point x="109" y="40"/>
      <point x="109" y="147" type="curve" smooth="yes"/>
      <point x="109" y="390"/>
      <point x="311" y="706"/>
      <point x="483" y="707" type="curve" smooth="yes"/>
      <point x="484" y="707"/>
      <point x="484.0" y="707.0"/>
      <point x="495" y="707" type="curve"/>
      <point x="480" y="715"/>
      <point x="460" y="719"/>
      <point x="435" y="719" type="curve" smooth="yes"/>
      <point x="244" y="719"/>
      <point x="21" y="418"/>
      <point x="21" y="161" type="curve" smooth="yes"/>
      <point x="21" y="11"/>
      <point x="99" y="-87"/>
    </contour>
  </outline>
</glyph>
<glyph name="P" format="2">
  <advance width="527"/>
  <unicode hex="0050"/>
  <outline>
    <contour>
      <point x="87" y="-87" type="curve"/>
      <point x="118" y="19"/>
      <point x="155" y="159"/>
      <point x="195" y="296" type="curve"/>
      <point x="205" y="296" type="line" smooth="yes"/>
      <point x="270" y="296"/>
      <point x="586" y="318"/>
      <point x="586" y="527" type="curve" smooth="yes"/>
      <point x="586" y="655"/>
      <point x="447" y="720"/>
      <point x="329" y="720" type="curve" smooth="yes"/>
      <point x="245" y="720"/>
      <point x="159" y="687"/>
      <point x="108" y="665" type="curve"/>
      <point x="108" y="655"/>
      <point x="131" y="638"/>
      <point x="139" y="638" type="curve" smooth="yes"/>
      <point x="150" y="638"/>
      <point x="201" y="678"/>
      <point x="278" y="693" type="curve"/>
      <point x="175" y="460"/>
      <point x="116" y="279"/>
      <point x="32" y="18" type="curve" smooth="yes"/>
      <point x="26" y="1"/>
      <point x="18" y="-22"/>
      <point x="18" y="-37" type="curve" smooth="yes"/>
      <point x="18" y="-66"/>
      <point x="53" y="-87"/>
    </contour>
    <contour>
      <point x="199" y="312" type="curve"/>
      <point x="242" y="459"/>
      <point x="289" y="602"/>
      <point x="338" y="699" type="curve"/>
      <point x="432" y="698"/>
      <point x="519" y="652"/>
      <point x="519" y="544" type="curve" smooth="yes"/>
      <point x="519" y="391"/>
      <point x="346" y="320"/>
    </contour>
  </outline>
</glyph>
<glyph name="Q" format="2">
  <advance width="693"/>
  <unicode hex="0051"/>
  <outline>
    <contour>
      <point x="516" y="-119" type="curve" smooth="yes"/>
      <point x="547" y="-119"/>
      <point x="593" y="-109"/>
      <point x="614" y="-38" type="curve"/>
      <point x="594" y="-44"/>
      <point x="585" y="-50"/>
      <point x="556" y="-50" type="curve" smooth="yes"/>
      <point x="501" y="-50"/>
      <point x="453" y="-29"/>
      <point x="408" y="-4" type="curve"/>
      <point x="538" y="97"/>
      <point x="634" y="309"/>
      <point x="634" y="477" type="curve" smooth="yes"/>
      <point x="634" y="626"/>
      <point x="559" y="720"/>
      <point x="431" y="720" type="curve" smooth="yes"/>
      <point x="214" y="720"/>
      <point x="35" y="448"/>
      <point x="35" y="199" type="curve" smooth="yes"/>
      <point x="35" y="127"/>
      <point x="50" y="60"/>
      <point x="112" y="60" type="curve"/>
      <point x="106" y="88"/>
      <point x="104" y="116"/>
      <point x="104" y="144" type="curve" smooth="yes"/>
      <point x="104" y="374"/>
      <point x="239" y="693"/>
      <point x="432" y="693" type="curve" smooth="yes"/>
      <point x="525" y="693"/>
      <point x="564" y="618"/>
      <point x="564" y="509" type="curve" smooth="yes"/>
      <point x="564" y="367"/>
      <point x="497" y="120"/>
      <point x="378" y="13" type="curve"/>
      <point x="324" y="46"/>
      <point x="274" y="77"/>
      <point x="219" y="77" type="curve" smooth="yes"/>
      <point x="166" y="77"/>
      <point x="146" y="48"/>
      <point x="146" y="25" type="curve" smooth="yes"/>
      <point x="146" y="3"/>
      <point x="164" y="-63"/>
      <point x="256" y="-63" type="curve" smooth="yes"/>
      <point x="290" y="-63"/>
      <point x="324" y="-53"/>
      <point x="356" y="-37" type="curve"/>
      <point x="404" y="-78"/>
      <point x="454" y="-119"/>
    </contour>
    <contour>
      <point x="256" y="-38" type="curve" smooth="yes"/>
      <point x="188" y="-38"/>
      <point x="172" y="6"/>
      <point x="172" y="24" type="curve" smooth="yes"/>
      <point x="172" y="35"/>
      <point x="178" y="51"/>
      <point x="209" y="51" type="curve" smooth="yes"/>
      <point x="253" y="51"/>
      <point x="293" y="19"/>
      <point x="334" y="-17" type="curve"/>
      <point x="310" y="-30"/>
      <point x="284" y="-38"/>
    </contour>
  </outline>
</glyph>
<glyph name="R" format="2">
  <advance width="577"/>
  <unicode hex="0052"/>
  <outline>
    <contour>
      <point x="464" y="-121" type="curve" smooth="yes"/>
      <point x="483" y="-121"/>
      <point x="507" y="-105"/>
      <point x="515" y="-88" type="curve"/>
      <point x="344" y="51"/>
      <point x="290" y="175"/>
      <point x="208" y="316" type="curve"/>
      <point x="277" y="316"/>
      <point x="581" y="335"/>
      <point x="581" y="533" type="curve" smooth="yes"/>
      <point x="581" y="666"/>
      <point x="443" y="720"/>
      <point x="328" y="720" type="curve" smooth="yes"/>
      <point x="238" y="720"/>
      <point x="154" y="687"/>
      <point x="103" y="665" type="curve"/>
      <point x="103" y="655"/>
      <point x="126" y="638"/>
      <point x="134" y="638" type="curve" smooth="yes"/>
      <point x="147" y="638"/>
      <point x="198" y="681"/>
      <point x="283" y="695" type="curve"/>
      <point x="180" y="461"/>
      <point x="115" y="280"/>
      <point x="30" y="18" type="curve" smooth="yes"/>
      <point x="24" y="1"/>
      <point x="16" y="-22"/>
      <point x="16" y="-37" type="curve" smooth="yes"/>
      <point x="16" y="-66"/>
      <point x="48" y="-87"/>
      <point x="82" y="-87" type="curve"/>
      <point x="112" y="15"/>
      <point x="147" y="146"/>
      <point x="185" y="277" type="curve"/>
      <point x="245" y="136"/>
      <point x="389" y="-121"/>
    </contour>
    <contour>
      <point x="201" y="332" type="curve"/>
      <point x="243" y="472"/>
      <point x="289" y="607"/>
      <point x="335" y="699" type="curve"/>
      <point x="425" y="699"/>
      <point x="514" y="663"/>
      <point x="514" y="554" type="curve" smooth="yes"/>
      <point x="514" y="404"/>
      <point x="346" y="341"/>
    </contour>
  </outline>
</glyph>
<glyph name="S" format="2">
  <advance width="536"/>
  <unicode hex="0053"/>
  <outline>
    <contour>
      <point x="203" y="-87" type="curve" smooth="yes"/>
      <point x="326" y="-87"/>
      <point x="464" y="-12"/>
      <point x="464" y="126" type="curve" smooth="yes"/>
      <point x="464" y="330"/>
      <point x="165" y="327"/>
      <point x="165" y="476" type="curve" smooth="yes"/>
      <point x="165" y="559"/>
      <point x="259" y="696"/>
      <point x="385" y="696" type="curve" smooth="yes"/>
      <point x="428" y="696"/>
      <point x="441" y="680"/>
      <point x="441" y="653" type="curve" smooth="yes"/>
      <point x="441" y="595"/>
      <point x="382" y="499"/>
      <point x="382" y="443" type="curve" smooth="yes"/>
      <point x="382" y="421"/>
      <point x="391" y="405"/>
      <point x="415" y="400" type="curve"/>
      <point x="447" y="451"/>
      <point x="492" y="547"/>
      <point x="492" y="620" type="curve" smooth="yes"/>
      <point x="492" y="677"/>
      <point x="465" y="720"/>
      <point x="387" y="720" type="curve" smooth="yes"/>
      <point x="213" y="720"/>
      <point x="102" y="564"/>
      <point x="102" y="453" type="curve" smooth="yes"/>
      <point x="102" y="274"/>
      <point x="406" y="270"/>
      <point x="406" y="98" type="curve" smooth="yes"/>
      <point x="406" y="2"/>
      <point x="310" y="-48"/>
      <point x="220" y="-48" type="curve" smooth="yes"/>
      <point x="116" y="-48"/>
      <point x="67" y="18"/>
      <point x="67" y="92" type="curve" smooth="yes"/>
      <point x="67" y="138"/>
      <point x="86" y="187"/>
      <point x="122" y="226" type="curve"/>
      <point x="67" y="226"/>
      <point x="-6" y="196"/>
      <point x="-6" y="92" type="curve" smooth="yes"/>
      <point x="-6" y="-29"/>
      <point x="94" y="-87"/>
    </contour>
  </outline>
</glyph>
<glyph name="T" format="2">
  <advance width="490"/>
  <unicode hex="0054"/>
  <outline>
    <contour>
      <point x="187" y="-87" type="curve"/>
      <point x="186" y="-80"/>
      <point x="186" y="-72"/>
      <point x="186" y="-65" type="curve" smooth="yes"/>
      <point x="186" y="1"/>
      <point x="207" y="69"/>
      <point x="236" y="175" type="curve" smooth="yes"/>
      <point x="292" y="379"/>
      <point x="350" y="545"/>
      <point x="393" y="652" type="curve"/>
      <point x="417" y="652"/>
      <point x="441" y="651"/>
      <point x="464" y="651" type="curve" smooth="yes"/>
      <point x="529" y="651"/>
      <point x="589" y="657"/>
      <point x="635" y="698" type="curve"/>
      <point x="538" y="699"/>
      <point x="450" y="720"/>
      <point x="313" y="720" type="curve" smooth="yes"/>
      <point x="175" y="720"/>
      <point x="74" y="699"/>
      <point x="69" y="632" type="curve"/>
      <point x="156" y="647"/>
      <point x="210" y="650"/>
      <point x="349" y="652" type="curve"/>
      <point x="278" y="500"/>
      <point x="190" y="261"/>
      <point x="145" y="130" type="curve" smooth="yes"/>
      <point x="128" y="81"/>
      <point x="108" y="23"/>
      <point x="108" y="-16" type="curve" smooth="yes"/>
      <point x="108" y="-58"/>
      <point x="127" y="-87"/>
    </contour>
  </outline>
</glyph>
<glyph name="U" format="2">
  <advance width="706"/>
  <unicode hex="0055"/>
  <anchor x="352" y="-56" name="ogonek"/>
  <anchor x="652" y="714" name="topright"/>
  <outline>
    <contour>
      <point x="541" y="-99" type="curve" smooth="yes"/>
      <point x="560" y="-99"/>
      <point x="582" y="-92"/>
      <point x="607" y="-75" type="curve"/>
      <point x="550" y="-75"/>
      <point x="527" y="-50"/>
      <point x="527" y="42" type="curve" smooth="yes"/>
      <point x="527" y="230"/>
      <point x="677" y="665"/>
      <point x="711" y="688" type="curve"/>
      <point x="692" y="708"/>
      <point x="672" y="720"/>
      <point x="661" y="720" type="curve" smooth="yes"/>
      <point x="607" y="720"/>
      <point x="535" y="423"/>
      <point x="487" y="224" type="curve" smooth="yes"/>
      <point x="461" y="117"/>
      <point x="390" y="-47"/>
      <point x="280" y="-47" type="curve" smooth="yes"/>
      <point x="220" y="-47"/>
      <point x="196" y="3"/>
      <point x="196" y="65" type="curve" smooth="yes"/>
      <point x="196" y="134"/>
      <point x="226" y="230"/>
      <point x="257" y="327" type="curve" smooth="yes"/>
      <point x="288" y="425"/>
      <point x="319" y="525"/>
      <point x="319" y="599" type="curve" smooth="yes"/>
      <point x="319" y="672"/>
      <point x="289" y="720"/>
      <point x="216" y="720" type="curve" smooth="yes"/>
      <point x="112" y="720"/>
      <point x="25" y="622"/>
      <point x="25" y="539" type="curve" smooth="yes"/>
      <point x="25" y="501"/>
      <point x="43" y="470"/>
      <point x="94" y="470" type="curve"/>
      <point x="89" y="482"/>
      <point x="86" y="500"/>
      <point x="86" y="519" type="curve" smooth="yes"/>
      <point x="86" y="584"/>
      <point x="120" y="692"/>
      <point x="192" y="692" type="curve" smooth="yes"/>
      <point x="230" y="692"/>
      <point x="248" y="661"/>
      <point x="248" y="604" type="curve" smooth="yes"/>
      <point x="248" y="454"/>
      <point x="123" y="178"/>
      <point x="123" y="49" type="curve" smooth="yes"/>
      <point x="123" y="-28"/>
      <point x="167" y="-87"/>
      <point x="253" y="-87" type="curve" smooth="yes"/>
      <point x="350" y="-87"/>
      <point x="419" y="-11"/>
      <point x="469" y="98" type="curve"/>
      <point x="463" y="58"/>
      <point x="460" y="25"/>
      <point x="460" y="7" type="curve" smooth="yes"/>
      <point x="460" y="-50"/>
      <point x="491" y="-99"/>
    </contour>
  </outline>
</glyph>
<glyph name="W" format="2">
  <advance width="906"/>
  <unicode hex="0057"/>
  <outline>
    <contour>
      <point x="210" y="-87" type="curve" smooth="yes"/>
      <point x="275" y="-87"/>
      <point x="349" y="-18"/>
      <point x="417" y="78" type="curve"/>
      <point x="405" y="40"/>
      <point x="397" y="8"/>
      <point x="397" y="-12" type="curve" smooth="yes"/>
      <point x="397" y="-64"/>
      <point x="445" y="-87"/>
      <point x="483" y="-87" type="curve" smooth="yes"/>
      <point x="648" y="-87"/>
      <point x="919" y="364"/>
      <point x="919" y="583" type="curve" smooth="yes"/>
      <point x="919" y="659"/>
      <point x="886" y="694"/>
      <point x="858" y="694" type="curve" smooth="yes"/>
      <point x="841" y="694"/>
      <point x="819" y="680"/>
      <point x="800" y="648" type="curve"/>
      <point x="833" y="638"/>
      <point x="855" y="610"/>
      <point x="855" y="544" type="curve" smooth="yes"/>
      <point x="855" y="325"/>
      <point x="616" y="-56"/>
      <point x="503" y="-56" type="curve" smooth="yes"/>
      <point x="479" y="-56"/>
      <point x="475" y="-39"/>
      <point x="475" y="-14" type="curve" smooth="yes"/>
      <point x="475" y="60"/>
      <point x="511" y="150"/>
      <point x="542" y="223" type="curve" smooth="yes"/>
      <point x="566" y="278"/>
      <point x="586" y="324"/>
      <point x="586" y="346" type="curve" smooth="yes"/>
      <point x="586" y="366"/>
      <point x="570" y="395"/>
      <point x="526" y="395" type="curve"/>
      <point x="509" y="262"/>
      <point x="333" y="-56"/>
      <point x="232" y="-56" type="curve" smooth="yes"/>
      <point x="208" y="-56"/>
      <point x="202" y="-42"/>
      <point x="202" y="-17" type="curve" smooth="yes"/>
      <point x="202" y="40"/>
      <point x="233" y="129"/>
      <point x="265" y="229" type="curve" smooth="yes"/>
      <point x="298" y="331"/>
      <point x="331" y="444"/>
      <point x="331" y="542" type="curve" smooth="yes"/>
      <point x="331" y="650"/>
      <point x="291" y="720"/>
      <point x="208" y="720" type="curve" smooth="yes"/>
      <point x="110" y="720"/>
      <point x="25" y="624"/>
      <point x="25" y="542" type="curve" smooth="yes"/>
      <point x="25" y="503"/>
      <point x="44" y="470"/>
      <point x="96" y="470" type="curve"/>
      <point x="90" y="484"/>
      <point x="87" y="503"/>
      <point x="87" y="524" type="curve" smooth="yes"/>
      <point x="87" y="590"/>
      <point x="116" y="692"/>
      <point x="190" y="692" type="curve" smooth="yes"/>
      <point x="249" y="692"/>
      <point x="250" y="626"/>
      <point x="250" y="552" type="curve" smooth="yes"/>
      <point x="250" y="445"/>
      <point x="214" y="321"/>
      <point x="180" y="213" type="curve" smooth="yes"/>
      <point x="151" y="119"/>
      <point x="124" y="39"/>
      <point x="124" y="-7" type="curve" smooth="yes"/>
      <point x="124" y="-73"/>
      <point x="181" y="-87"/>
    </contour>
  </outline>
</glyph>
<glyph name="X" format="2">
  <advance width="662"/>
  <unicode hex="0058"/>
  <outline>
    <contour>
      <point x="25" y="-112" type="curve"/>
      <point x="69" y="-76"/>
      <point x="186" y="53"/>
      <point x="304" y="198" type="curve"/>
      <point x="312" y="77"/>
      <point x="332" y="-87"/>
      <point x="443" y="-87" type="curve" smooth="yes"/>
      <point x="522" y="-87"/>
      <point x="576" y="-3"/>
      <point x="652" y="152" type="curve"/>
      <point x="640" y="162" type="line"/>
      <point x="568" y="34"/>
      <point x="510" y="-50"/>
      <point x="470" y="-50" type="curve" smooth="yes"/>
      <point x="402" y="-50"/>
      <point x="381" y="119"/>
      <point x="376" y="289" type="curve"/>
      <point x="506" y="455"/>
      <point x="620" y="620"/>
      <point x="620" y="674" type="curve" smooth="yes"/>
      <point x="620" y="692"/>
      <point x="607" y="715"/>
      <point x="597" y="722" type="curve"/>
      <point x="557" y="622"/>
      <point x="482" y="492"/>
      <point x="375" y="344" type="curve"/>
      <point x="372" y="547"/>
      <point x="386" y="720"/>
      <point x="255" y="720" type="curve" smooth="yes"/>
      <point x="156" y="720"/>
      <point x="67" y="622"/>
      <point x="67" y="539" type="curve" smooth="yes"/>
      <point x="67" y="501"/>
      <point x="85" y="470"/>
      <point x="136" y="470" type="curve"/>
      <point x="131" y="482"/>
      <point x="128" y="500"/>
      <point x="128" y="519" type="curve" smooth="yes"/>
      <point x="128" y="589"/>
      <point x="165" y="692"/>
      <point x="232" y="692" type="curve" smooth="yes"/>
      <point x="288" y="692"/>
      <point x="288" y="622"/>
      <point x="291" y="468" type="curve" smooth="yes"/>
      <point x="293" y="356"/>
      <point x="295" y="334"/>
      <point x="301" y="246" type="curve"/>
      <point x="234" y="161"/>
      <point x="159" y="71"/>
      <point x="74" y="-21" type="curve" smooth="yes"/>
      <point x="44" y="-53"/>
      <point x="30" y="-69"/>
    </contour>
  </outline>
</glyph>
<glyph name="Y" format="2">
  <advance width="666"/>
  <unicode hex="0059"/>
  <outline>
    <contour>
      <point x="255" y="-187" type="curve" smooth="yes"/>
      <point x="448" y="-187"/>
      <point x="502" y="23"/>
      <point x="544" y="194" type="curve" smooth="yes"/>
      <point x="625" y="523"/>
      <point x="640" y="578"/>
      <point x="709" y="688" type="curve"/>
      <point x="690" y="708"/>
      <point x="666" y="720"/>
      <point x="653" y="720" type="curve" smooth="yes"/>
      <point x="610" y="720"/>
      <point x="568" y="585"/>
      <point x="533" y="440" type="curve"/>
      <point x="488" y="324"/>
      <point x="414" y="191"/>
      <point x="321" y="191" type="curve" smooth="yes"/>
      <point x="271" y="191"/>
      <point x="251" y="229"/>
      <point x="251" y="287" type="curve" smooth="yes"/>
      <point x="251" y="340"/>
      <point x="267" y="402"/>
      <point x="284" y="462" type="curve" smooth="yes"/>
      <point x="301" y="523"/>
      <point x="318" y="581"/>
      <point x="318" y="619" type="curve" smooth="yes"/>
      <point x="318" y="667"/>
      <point x="290" y="720"/>
      <point x="214" y="720" type="curve" smooth="yes"/>
      <point x="110" y="720"/>
      <point x="23" y="622"/>
      <point x="23" y="539" type="curve" smooth="yes"/>
      <point x="23" y="501"/>
      <point x="41" y="470"/>
      <point x="92" y="470" type="curve"/>
      <point x="87" y="482"/>
      <point x="84" y="500"/>
      <point x="84" y="519" type="curve" smooth="yes"/>
      <point x="84" y="585"/>
      <point x="118" y="692"/>
      <point x="192" y="692" type="curve" smooth="yes"/>
      <point x="235" y="692"/>
      <point x="249" y="656"/>
      <point x="249" y="614" type="curve" smooth="yes"/>
      <point x="249" y="523"/>
      <point x="181" y="375"/>
      <point x="181" y="270" type="curve" smooth="yes"/>
      <point x="181" y="200"/>
      <point x="211" y="151"/>
      <point x="290" y="151" type="curve" smooth="yes"/>
      <point x="386" y="151"/>
      <point x="454" y="224"/>
      <point x="507" y="326" type="curve"/>
      <point x="489" y="243"/>
      <point x="475" y="166"/>
      <point x="465" y="121" type="curve" smooth="yes"/>
      <point x="444" y="27"/>
      <point x="391" y="-162"/>
      <point x="256" y="-162" type="curve" smooth="yes"/>
      <point x="198" y="-162"/>
      <point x="169" y="-127"/>
      <point x="169" y="-72" type="curve" smooth="yes"/>
      <point x="169" y="-57"/>
      <point x="171" y="-38"/>
      <point x="177" y="-18" type="curve"/>
      <point x="136" y="-32"/>
      <point x="117" y="-59"/>
      <point x="117" y="-93" type="curve" smooth="yes"/>
      <point x="117" y="-154"/>
      <point x="179" y="-187"/>
    </contour>
  </outline>
</glyph>
<glyph name="bracketleft" format="2">
  <advance width="393"/>
  <unicode hex="005B"/>
  <outline>
    <contour>
      <point x="196" y="-87" type="curve" smooth="yes"/>
      <point x="282" y="-87"/>
      <point x="321" y="-62"/>
      <point x="326" y="-11" type="curve"/>
      <point x="262" y="-30"/>
      <point x="230" y="-31"/>
      <point x="86" y="-32" type="curve"/>
      <point x="118" y="82"/>
      <point x="173" y="489"/>
      <point x="231" y="657" type="curve"/>
      <point x="267" y="651"/>
      <point x="303" y="640"/>
      <point x="338" y="640" type="curve" smooth="yes"/>
      <point x="392" y="640"/>
      <point x="439" y="647"/>
      <point x="443" y="720" type="curve"/>
      <point x="415" y="704"/>
      <point x="378" y="700"/>
      <point x="343" y="700" type="curve" smooth="yes"/>
      <point x="315" y="700"/>
      <point x="288" y="703"/>
      <point x="271" y="703" type="curve" smooth="yes"/>
      <point x="230" y="703"/>
      <point x="172" y="667"/>
      <point x="141" y="498" type="curve" smooth="yes"/>
      <point x="42" y="-42"/>
      <point x="38" y="-52"/>
      <point x="29" y="-67" type="curve"/>
      <point x="58" y="-74"/>
      <point x="133" y="-87"/>
    </contour>
  </outline>
</glyph>
<glyph name="bracketright" format="2">
  <advance width="410"/>
  <unicode hex="005D"/>
  <outline>
    <contour>
      <point x="-14" y="-88" type="curve"/>
      <point x="35" y="-72"/>
      <point x="109" y="-71"/>
      <point x="178" y="-71" type="curve" smooth="yes"/>
      <point x="268" y="-71"/>
      <point x="294" y="71"/>
      <point x="306" y="132" type="curve" smooth="yes"/>
      <point x="334" y="270"/>
      <point x="391" y="642"/>
      <point x="401" y="699" type="curve"/>
      <point x="342" y="712"/>
      <point x="283" y="720"/>
      <point x="234" y="720" type="curve" smooth="yes"/>
      <point x="154" y="720"/>
      <point x="105" y="710"/>
      <point x="105" y="653" type="curve"/>
      <point x="172" y="672"/>
      <point x="238" y="674"/>
      <point x="304" y="674" type="curve" smooth="yes"/>
      <point x="367" y="674" type="line"/>
      <point x="333" y="535"/>
      <point x="271" y="135"/>
      <point x="215" y="-26" type="curve"/>
      <point x="173" y="-23"/>
      <point x="125" y="-18"/>
      <point x="91" y="-18" type="curve" smooth="yes"/>
      <point x="37" y="-18"/>
      <point x="-10" y="-35"/>
    </contour>
  </outline>
</glyph>
<glyph name="asciicircum" format="2">
  <advance width="203"/>
  <unicode hex="005E"/>
  <outline>
    <contour>
      <point x="187" y="406" type="curve"/>
      <point x="199" y="412"/>
      <point x="204" y="424"/>
      <point x="204" y="437" type="curve" smooth="yes"/>
      <point x="204" y="480"/>
      <point x="146" y="548"/>
      <point x="114" y="548" type="curve" smooth="yes"/>
      <point x="87" y="548"/>
      <point x="0" y="499"/>
      <point x="0" y="460" type="curve" smooth="yes"/>
      <point x="0" y="454"/>
      <point x="2" y="446"/>
      <point x="10" y="441" type="curve"/>
      <point x="40" y="468"/>
      <point x="72" y="483"/>
      <point x="113" y="498" type="curve"/>
      <point x="145" y="468"/>
      <point x="168" y="444"/>
    </contour>
  </outline>
</glyph>
<glyph name="underscore" format="2">
  <advance width="845"/>
  <unicode hex="005F"/>
  <outline>
    <contour>
      <point x="-20" y="-66" type="curve"/>
      <point x="66" y="-55"/>
      <point x="109" y="-51"/>
      <point x="184" y="-49" type="curve" smooth="yes"/>
      <point x="256" y="-48"/>
      <point x="357" y="-48"/>
      <point x="553" y="-47" type="curve" smooth="yes"/>
      <point x="596" y="-47"/>
      <point x="661" y="-40"/>
      <point x="716" y="-2" type="curve"/>
      <point x="576" y="-1"/>
      <point x="530" y="16"/>
      <point x="332" y="16" type="curve" smooth="yes"/>
      <point x="134" y="16"/>
      <point x="-13" y="1"/>
    </contour>
  </outline>
</glyph>
<glyph name="c" format="2">
  <advance width="323"/>
  <unicode hex="0063"/>
  <outline>
    <contour>
      <point x="107" y="-56" type="curve" smooth="yes"/>
      <point x="204" y="-56"/>
      <point x="309" y="32"/>
      <point x="355" y="153" type="curve"/>
      <point x="342" y="163" type="line"/>
      <point x="299" y="52"/>
      <point x="209" y="-18"/>
      <point x="130" y="-18" type="curve" smooth="yes"/>
      <point x="73" y="-18"/>
      <point x="57" y="24"/>
      <point x="57" y="65" type="curve" smooth="yes"/>
      <point x="57" y="163"/>
      <point x="150" y="310"/>
      <point x="221" y="310" type="curve" smooth="yes"/>
      <point x="238" y="310"/>
      <point x="243" y="301"/>
      <point x="243" y="285" type="curve" smooth="yes"/>
      <point x="243" y="255"/>
      <point x="226" y="216"/>
      <point x="206" y="206" type="curve"/>
      <point x="215" y="195"/>
      <point x="225" y="191"/>
      <point x="235" y="191" type="curve" smooth="yes"/>
      <point x="266" y="191"/>
      <point x="285" y="225"/>
      <point x="285" y="264" type="curve" smooth="yes"/>
      <point x="285" y="299"/>
      <point x="269" y="338"/>
      <point x="214" y="338" type="curve" smooth="yes"/>
      <point x="112" y="338"/>
      <point x="-5" y="206"/>
      <point x="-5" y="72" type="curve" smooth="yes"/>
      <point x="-5" y="-14"/>
      <point x="43" y="-56"/>
    </contour>
  </outline>
</glyph>
<glyph name="e" format="2">
  <advance width="333"/>
  <unicode hex="0065"/>
  <anchor x="240" y="0" name="ogonek"/>
  <outline>
    <contour>
      <point x="108" y="-44" type="curve" smooth="yes"/>
      <point x="207" y="-44"/>
      <point x="311" y="33"/>
      <point x="365" y="153" type="curve"/>
      <point x="353" y="162" type="line"/>
      <point x="303" y="66"/>
      <point x="214" y="-15"/>
      <point x="129" y="-15" type="curve" smooth="yes"/>
      <point x="67" y="-15"/>
      <point x="50" y="28"/>
      <point x="50" y="69" type="curve" smooth="yes"/>
      <point x="50" y="79"/>
      <point x="51" y="92"/>
      <point x="54" y="105" type="curve"/>
      <point x="168" y="116"/>
      <point x="302" y="197"/>
      <point x="302" y="299" type="curve" smooth="yes"/>
      <point x="302" y="348"/>
      <point x="271" y="360"/>
      <point x="240" y="360" type="curve" smooth="yes"/>
      <point x="122" y="360"/>
      <point x="-14" y="191"/>
      <point x="-14" y="72" type="curve" smooth="yes"/>
      <point x="-14" y="7"/>
      <point x="27" y="-44"/>
    </contour>
    <contour>
      <point x="59" y="124" type="curve"/>
      <point x="86" y="219"/>
      <point x="173" y="329"/>
      <point x="237" y="329" type="curve" smooth="yes"/>
      <point x="254" y="329"/>
      <point x="258" y="321"/>
      <point x="258" y="306" type="curve" smooth="yes"/>
      <point x="258" y="220"/>
      <point x="130" y="149"/>
    </contour>
  </outline>
</glyph>
<glyph name="h" format="2">
  <advance width="476"/>
  <unicode hex="0068"/>
  <outline>
    <contour>
      <point x="47" y="-38" type="curve" smooth="yes"/>
      <point x="104" y="-38"/>
      <point x="141" y="238"/>
      <point x="240" y="238" type="curve" smooth="yes"/>
      <point x="261" y="238"/>
      <point x="278" y="225"/>
      <point x="278" y="190" type="curve" smooth="yes"/>
      <point x="278" y="142"/>
      <point x="247" y="81"/>
      <point x="247" y="39" type="curve" smooth="yes"/>
      <point x="247" y="3"/>
      <point x="270" y="-24"/>
      <point x="316" y="-24" type="curve" smooth="yes"/>
      <point x="393" y="-24"/>
      <point x="466" y="52"/>
      <point x="508" y="150" type="curve"/>
      <point x="495" y="162" type="line"/>
      <point x="455" y="75"/>
      <point x="384" y="2"/>
      <point x="339" y="2" type="curve" smooth="yes"/>
      <point x="322" y="2"/>
      <point x="309" y="13"/>
      <point x="309" y="40" type="curve" smooth="yes"/>
      <point x="309" y="89"/>
      <point x="352" y="146"/>
      <point x="352" y="208" type="curve" smooth="yes"/>
      <point x="352" y="252"/>
      <point x="331" y="298"/>
      <point x="276" y="298" type="curve" smooth="yes"/>
      <point x="187" y="298"/>
      <point x="120" y="176"/>
      <point x="73" y="39" type="curve"/>
      <point x="72" y="48"/>
      <point x="71" y="58"/>
      <point x="71" y="73" type="curve" smooth="yes"/>
      <point x="71" y="127"/>
      <point x="83" y="211"/>
      <point x="108" y="270" type="curve"/>
      <point x="226" y="341"/>
      <point x="338" y="558"/>
      <point x="338" y="651" type="curve" smooth="yes"/>
      <point x="338" y="678"/>
      <point x="329" y="714"/>
      <point x="305" y="714" type="curve" smooth="yes"/>
      <point x="218" y="714"/>
      <point x="6" y="257"/>
      <point x="6" y="66" type="curve" smooth="yes"/>
      <point x="6" y="13"/>
      <point x="22" y="-38"/>
    </contour>
    <contour>
      <point x="121" y="309" type="curve"/>
      <point x="171" y="472"/>
      <point x="280" y="633"/>
      <point x="300" y="633" type="curve" smooth="yes"/>
      <point x="303" y="633"/>
      <point x="304" y="631"/>
      <point x="304" y="625" type="curve" smooth="yes"/>
      <point x="304" y="574"/>
      <point x="213" y="383"/>
    </contour>
  </outline>
</glyph>
<glyph name="i" format="2">
  <advance width="241"/>
  <unicode hex="0069"/>
  <anchor x="88" y="3" name="ogonek"/>
  <outline>
    <contour>
      <point x="72" y="-26" type="curve" smooth="yes"/>
      <point x="150" y="-26"/>
      <point x="230" y="37"/>
      <point x="269" y="152" type="curve"/>
      <point x="260" y="162" type="line"/>
      <point x="203" y="48"/>
      <point x="151" y="9"/>
      <point x="106" y="9" type="curve" smooth="yes"/>
      <point x="73" y="9"/>
      <point x="57" y="21"/>
      <point x="57" y="69" type="curve" smooth="yes"/>
      <point x="57" y="163"/>
      <point x="161" y="284"/>
      <point x="161" y="317" type="curve" smooth="yes"/>
      <point x="161" y="331"/>
      <point x="151" y="339"/>
      <point x="139" y="339" type="curve" smooth="yes"/>
      <point x="71" y="339"/>
      <point x="-5" y="134"/>
      <point x="-5" y="58" type="curve" smooth="yes"/>
      <point x="-5" y="11"/>
      <point x="20" y="-26"/>
    </contour>
    <contour>
      <point x="192" y="432" type="curve" smooth="yes"/>
      <point x="224" y="432"/>
      <point x="257" y="461"/>
      <point x="257" y="486" type="curve" smooth="yes"/>
      <point x="257" y="509"/>
      <point x="244" y="517"/>
      <point x="224" y="517" type="curve" smooth="yes"/>
      <point x="192" y="517"/>
      <point x="151" y="493"/>
      <point x="151" y="465" type="curve" smooth="yes"/>
      <point x="151" y="442"/>
      <point x="170" y="432"/>
    </contour>
  </outline>
</glyph>
<glyph name="k" format="2">
  <advance width="446"/>
  <unicode hex="006B"/>
  <outline>
    <contour>
      <point x="297" y="-38" type="curve" smooth="yes"/>
      <point x="367" y="-38"/>
      <point x="446" y="55"/>
      <point x="475" y="153" type="curve"/>
      <point x="465" y="163" type="line"/>
      <point x="424" y="72"/>
      <point x="374" y="0"/>
      <point x="317" y="0" type="curve" smooth="yes"/>
      <point x="264" y="0"/>
      <point x="242" y="107"/>
      <point x="239" y="129" type="curve"/>
      <point x="278" y="129"/>
      <point x="381" y="160"/>
      <point x="381" y="246" type="curve" smooth="yes"/>
      <point x="381" y="295"/>
      <point x="341" y="335"/>
      <point x="292" y="335" type="curve" smooth="yes"/>
      <point x="192" y="335"/>
      <point x="110" y="161"/>
      <point x="68" y="55" type="curve"/>
      <point x="68" y="124"/>
      <point x="90" y="233"/>
      <point x="134" y="341" type="curve"/>
      <point x="252" y="412"/>
      <point x="338" y="557"/>
      <point x="338" y="649" type="curve" smooth="yes"/>
      <point x="338" y="685"/>
      <point x="325" y="714"/>
      <point x="307" y="714" type="curve" smooth="yes"/>
      <point x="236" y="714"/>
      <point x="4" y="272"/>
      <point x="4" y="63" type="curve" smooth="yes"/>
      <point x="4" y="17"/>
      <point x="5" y="-31"/>
      <point x="39" y="-31" type="curve" smooth="yes"/>
      <point x="55" y="-31"/>
      <point x="71" y="-24"/>
      <point x="79" y="0" type="curve" smooth="yes"/>
      <point x="104" y="76"/>
      <point x="168" y="283"/>
      <point x="273" y="283" type="curve" smooth="yes"/>
      <point x="299" y="283"/>
      <point x="323" y="266"/>
      <point x="323" y="238" type="curve" smooth="yes"/>
      <point x="323" y="170"/>
      <point x="225" y="142"/>
      <point x="195" y="142" type="curve"/>
      <point x="195" y="81"/>
      <point x="221" y="-38"/>
    </contour>
    <contour>
      <point x="151" y="381" type="curve"/>
      <point x="209" y="515"/>
      <point x="281" y="633"/>
      <point x="301" y="633" type="curve" smooth="yes"/>
      <point x="303" y="633"/>
      <point x="304" y="631"/>
      <point x="304" y="624" type="curve" smooth="yes"/>
      <point x="304" y="573"/>
      <point x="243" y="455"/>
    </contour>
  </outline>
</glyph>
<glyph name="n" format="2">
  <advance width="466"/>
  <unicode hex="006E"/>
  <outline>
    <contour>
      <point x="323" y="-20" type="curve" smooth="yes"/>
      <point x="398" y="-20"/>
      <point x="454" y="51"/>
      <point x="496" y="149" type="curve"/>
      <point x="485" y="162" type="line"/>
      <point x="448" y="88"/>
      <point x="395" y="6"/>
      <point x="345" y="6" type="curve" smooth="yes"/>
      <point x="328" y="6"/>
      <point x="315" y="16"/>
      <point x="315" y="44" type="curve" smooth="yes"/>
      <point x="315" y="93"/>
      <point x="356" y="140"/>
      <point x="356" y="202" type="curve" smooth="yes"/>
      <point x="356" y="247"/>
      <point x="334" y="292"/>
      <point x="282" y="292" type="curve" smooth="yes"/>
      <point x="206" y="292"/>
      <point x="127" y="197"/>
      <point x="74" y="116" type="curve"/>
      <point x="92" y="171"/>
      <point x="106" y="227"/>
      <point x="106" y="248" type="curve" smooth="yes"/>
      <point x="106" y="264"/>
      <point x="97" y="274"/>
      <point x="79" y="274" type="curve" smooth="yes"/>
      <point x="60" y="274"/>
      <point x="41" y="262"/>
      <point x="33" y="253" type="curve"/>
      <point x="32" y="166"/>
      <point x="-38" y="19"/>
      <point x="-38" y="7" type="curve"/>
      <point x="-27" y="-8"/>
      <point x="-6" y="-15"/>
      <point x="15" y="-15" type="curve"/>
      <point x="67" y="73"/>
      <point x="159" y="232"/>
      <point x="242" y="232" type="curve" smooth="yes"/>
      <point x="265" y="232"/>
      <point x="282" y="220"/>
      <point x="282" y="183" type="curve" smooth="yes"/>
      <point x="282" y="136"/>
      <point x="253" y="85"/>
      <point x="253" y="44" type="curve" smooth="yes"/>
      <point x="253" y="7"/>
      <point x="276" y="-20"/>
    </contour>
  </outline>
</glyph>
<glyph name="p" format="2">
  <advance width="391"/>
  <unicode hex="0070"/>
  <outline>
    <contour>
      <point x="-63" y="-280" type="curve" smooth="yes"/>
      <point x="-59" y="-280"/>
      <point x="-54" y="-278"/>
      <point x="-51" y="-275" type="curve" smooth="yes"/>
      <point x="-28" y="-253"/>
      <point x="25" y="-68"/>
      <point x="72" y="132" type="curve"/>
      <point x="97" y="190"/>
      <point x="168" y="293"/>
      <point x="238" y="293" type="curve" smooth="yes"/>
      <point x="278" y="293"/>
      <point x="295" y="258"/>
      <point x="295" y="216" type="curve" smooth="yes"/>
      <point x="295" y="114"/>
      <point x="198" y="-3"/>
      <point x="91" y="-3" type="curve" smooth="yes"/>
      <point x="77" y="-3"/>
      <point x="66" y="-3"/>
      <point x="66" y="-8" type="curve" smooth="yes"/>
      <point x="66" y="-16"/>
      <point x="89" y="-26"/>
      <point x="124" y="-26" type="curve" smooth="yes"/>
      <point x="262" y="-26"/>
      <point x="360" y="121"/>
      <point x="360" y="225" type="curve" smooth="yes"/>
      <point x="360" y="293"/>
      <point x="318" y="339"/>
      <point x="259" y="339" type="curve" smooth="yes"/>
      <point x="181" y="339"/>
      <point x="120" y="258"/>
      <point x="86" y="192" type="curve"/>
      <point x="100" y="257"/>
      <point x="109" y="308"/>
      <point x="109" y="327" type="curve" smooth="yes"/>
      <point x="109" y="350"/>
      <point x="95" y="373"/>
      <point x="61" y="373" type="curve" smooth="yes"/>
      <point x="45" y="373"/>
      <point x="43" y="368"/>
      <point x="42" y="356" type="curve"/>
      <point x="-6" y="-45"/>
      <point x="-47" y="-77"/>
      <point x="-94" y="-242" type="curve" smooth="yes"/>
      <point x="-95" y="-246"/>
      <point x="-80" y="-280"/>
    </contour>
  </outline>
</glyph>
<glyph name="q" format="2">
  <advance width="401"/>
  <unicode hex="0071"/>
  <anchor x="301" y="333" name="center"/>
  <outline>
    <contour>
      <point x="194" y="-280" type="curve" smooth="yes"/>
      <point x="236" y="-280"/>
      <point x="268" y="-202"/>
      <point x="268" y="-108" type="curve" smooth="yes"/>
      <point x="268" y="-67"/>
      <point x="262" y="-30"/>
      <point x="251" y="5" type="curve"/>
      <point x="313" y="11"/>
      <point x="388" y="49"/>
      <point x="432" y="150" type="curve"/>
      <point x="420" y="161" type="line"/>
      <point x="369" y="64"/>
      <point x="310" y="34"/>
      <point x="253" y="29" type="curve"/>
      <point x="280" y="151"/>
      <point x="341" y="210"/>
      <point x="341" y="243" type="curve" smooth="yes"/>
      <point x="341" y="247"/>
      <point x="340" y="252"/>
      <point x="336" y="256" type="curve" smooth="yes"/>
      <point x="330.85714285714283" y="261.14285714285717"/>
      <point x="318.4" y="264.2"/>
      <point x="304" y="257" type="curve" smooth="yes"/>
      <point x="295" y="252"/>
      <point x="286" y="244"/>
      <point x="277" y="230" type="curve" smooth="yes"/>
      <point x="215" y="131"/>
      <point x="143" y="18"/>
      <point x="90" y="18" type="curve" smooth="yes"/>
      <point x="69" y="18"/>
      <point x="55" y="36"/>
      <point x="55" y="66" type="curve" smooth="yes"/>
      <point x="55" y="142"/>
      <point x="144" y="326"/>
      <point x="254" y="326" type="curve" smooth="yes"/>
      <point x="295" y="326"/>
      <point x="311" y="300"/>
      <point x="311" y="271" type="curve"/>
      <point x="317" y="271"/>
      <point x="322" y="272"/>
      <point x="326" y="275" type="curve" smooth="yes"/>
      <point x="338" y="281"/>
      <point x="344" y="296"/>
      <point x="344" y="308" type="curve" smooth="yes"/>
      <point x="344" y="336"/>
      <point x="310" y="357"/>
      <point x="265" y="357" type="curve" smooth="yes"/>
      <point x="131" y="357"/>
      <point x="-15" y="172"/>
      <point x="-15" y="56" type="curve" smooth="yes"/>
      <point x="-15" y="-6"/>
      <point x="26" y="-30"/>
      <point x="60" y="-30" type="curve" smooth="yes"/>
      <point x="109" y="-30"/>
      <point x="165" y="22"/>
      <point x="218" y="98" type="curve"/>
      <point x="182" y="-4"/>
      <point x="159" y="-138"/>
      <point x="159" y="-207" type="curve" smooth="yes"/>
      <point x="159" y="-264"/>
      <point x="175" y="-280"/>
    </contour>
    <contour>
      <point x="221" y="-225" type="curve" smooth="yes"/>
      <point x="215" y="-225"/>
      <point x="213" y="-214"/>
      <point x="213" y="-197" type="curve" smooth="yes"/>
      <point x="213" y="-161"/>
      <point x="222" y="-95"/>
      <point x="239" y="-24" type="curve"/>
      <point x="244" y="-48"/>
      <point x="246" y="-72"/>
      <point x="246" y="-99" type="curve" smooth="yes"/>
      <point x="246" y="-158"/>
      <point x="236" y="-225"/>
    </contour>
  </outline>
</glyph>
<glyph name="s" format="2">
  <advance width="345"/>
  <unicode hex="0073"/>
  <outline>
    <contour>
      <point x="105" y="-51" type="curve" smooth="yes"/>
      <point x="162" y="-51"/>
      <point x="212" y="-25"/>
      <point x="233" y="32" type="curve"/>
      <point x="293" y="41"/>
      <point x="348" y="78"/>
      <point x="373" y="151" type="curve"/>
      <point x="364" y="161" type="line"/>
      <point x="325" y="86"/>
      <point x="284" y="56"/>
      <point x="238" y="48" type="curve"/>
      <point x="242" y="63"/>
      <point x="244" y="79"/>
      <point x="244" y="97" type="curve" smooth="yes"/>
      <point x="244" y="189"/>
      <point x="192" y="272"/>
      <point x="192" y="338" type="curve" smooth="yes"/>
      <point x="192" y="361"/>
      <point x="198" y="375"/>
      <point x="198" y="382" type="curve" smooth="yes"/>
      <point x="198" y="389"/>
      <point x="193" y="395"/>
      <point x="182" y="395" type="curve" smooth="yes"/>
      <point x="163" y="395"/>
      <point x="143" y="376"/>
      <point x="143" y="327" type="curve" smooth="yes"/>
      <point x="143" y="315" type="line"/>
      <point x="118" y="262"/>
      <point x="84" y="214"/>
      <point x="44" y="170" type="curve" smooth="yes"/>
      <point x="33" y="158"/>
      <point x="-20" y="159"/>
      <point x="-20" y="80" type="curve" smooth="yes"/>
      <point x="-20" y="20"/>
      <point x="11" y="-51"/>
    </contour>
    <contour>
      <point x="107" y="-16" type="curve" smooth="yes"/>
      <point x="55" y="-16"/>
      <point x="25" y="33"/>
      <point x="25" y="81" type="curve" smooth="yes"/>
      <point x="25" y="102"/>
      <point x="31" y="115"/>
      <point x="47" y="116" type="curve"/>
      <point x="68" y="82"/>
      <point x="114" y="44"/>
      <point x="170" y="33" type="curve"/>
      <point x="155" y="-11"/>
      <point x="123" y="-16"/>
    </contour>
    <contour>
      <point x="175" y="49" type="curve"/>
      <point x="114" y="62"/>
      <point x="71" y="104"/>
      <point x="51" y="147" type="curve"/>
      <point x="81" y="177"/>
      <point x="117" y="226"/>
      <point x="148" y="277" type="curve"/>
      <point x="158" y="222"/>
      <point x="179" y="159"/>
      <point x="179" y="96" type="curve" smooth="yes"/>
      <point x="179" y="76"/>
      <point x="177" y="62"/>
    </contour>
  </outline>
</glyph>
<glyph name="w" format="2">
  <advance width="617"/>
  <unicode hex="0077"/>
  <outline>
    <contour>
      <point x="282" y="-39" type="curve" smooth="yes"/>
      <point x="343" y="-39"/>
      <point x="416" y="55"/>
      <point x="466" y="148" type="curve"/>
      <point x="479" y="92"/>
      <point x="509" y="64"/>
      <point x="550" y="64" type="curve" smooth="yes"/>
      <point x="582" y="64"/>
      <point x="620" y="81"/>
      <point x="649" y="148" type="curve"/>
      <point x="636" y="158" type="line"/>
      <point x="610" y="103"/>
      <point x="585" y="84"/>
      <point x="557" y="84" type="curve" smooth="yes"/>
      <point x="515" y="84"/>
      <point x="510" y="127"/>
      <point x="510" y="160" type="curve" smooth="yes"/>
      <point x="510" y="215"/>
      <point x="523" y="243"/>
      <point x="534" y="263" type="curve" smooth="yes"/>
      <point x="540" y="275"/>
      <point x="545" y="284"/>
      <point x="545" y="294" type="curve" smooth="yes"/>
      <point x="545" y="308"/>
      <point x="534" y="332"/>
      <point x="509" y="332" type="curve" smooth="yes"/>
      <point x="484" y="332"/>
      <point x="459" y="309"/>
      <point x="459" y="205" type="curve"/>
      <point x="415" y="111"/>
      <point x="345" y="0"/>
      <point x="304" y="0" type="curve" smooth="yes"/>
      <point x="288" y="0"/>
      <point x="282" y="18"/>
      <point x="282" y="49" type="curve" smooth="yes"/>
      <point x="282" y="117"/>
      <point x="295" y="209"/>
      <point x="310" y="258" type="curve"/>
      <point x="311" y="262"/>
      <point x="312" y="266"/>
      <point x="312" y="269" type="curve" smooth="yes"/>
      <point x="312" y="284"/>
      <point x="300" y="291"/>
      <point x="283" y="291" type="curve" smooth="yes"/>
      <point x="264" y="291"/>
      <point x="259" y="283"/>
      <point x="243" y="201" type="curve"/>
      <point x="197" y="110"/>
      <point x="139" y="10"/>
      <point x="93" y="10" type="curve" smooth="yes"/>
      <point x="61" y="10"/>
      <point x="58" y="60"/>
      <point x="58" y="77" type="curve" smooth="yes"/>
      <point x="58" y="143"/>
      <point x="103" y="244"/>
      <point x="125" y="278" type="curve"/>
      <point x="125" y="290"/>
      <point x="95" y="298"/>
      <point x="88" y="298" type="curve" smooth="yes"/>
      <point x="58" y="298"/>
      <point x="0" y="147"/>
      <point x="0" y="71" type="curve" smooth="yes"/>
      <point x="0" y="16"/>
      <point x="31" y="-30"/>
      <point x="75" y="-30" type="curve" smooth="yes"/>
      <point x="136" y="-30"/>
      <point x="191" y="60"/>
      <point x="235" y="148" type="curve"/>
      <point x="231" y="117"/>
      <point x="228" y="85"/>
      <point x="228" y="58" type="curve" smooth="yes"/>
      <point x="228" y="5"/>
      <point x="240" y="-39"/>
    </contour>
  </outline>
</glyph>
<glyph name="x" format="2">
  <advance width="418"/>
  <unicode hex="0078"/>
  <outline>
    <contour>
      <point x="44" y="-59" type="curve" smooth="yes"/>
      <point x="48" y="-59"/>
      <point x="52" y="-57"/>
      <point x="56" y="-52" type="curve" smooth="yes"/>
      <point x="80" y="-21"/>
      <point x="131" y="44"/>
      <point x="187" y="111" type="curve"/>
      <point x="196" y="40"/>
      <point x="213" y="-26"/>
      <point x="272" y="-26" type="curve" smooth="yes"/>
      <point x="342" y="-26"/>
      <point x="419" y="65"/>
      <point x="448" y="151" type="curve"/>
      <point x="438" y="161" type="line"/>
      <point x="411" y="102"/>
      <point x="346" y="10"/>
      <point x="297" y="10" type="curve" smooth="yes"/>
      <point x="248" y="10"/>
      <point x="251" y="96"/>
      <point x="243" y="177" type="curve"/>
      <point x="310" y="255"/>
      <point x="375" y="321"/>
      <point x="398" y="321" type="curve"/>
      <point x="398" y="328"/>
      <point x="379" y="332"/>
      <point x="373" y="332" type="curve" smooth="yes"/>
      <point x="355" y="332"/>
      <point x="299" y="281"/>
      <point x="237" y="216" type="curve"/>
      <point x="227" y="269"/>
      <point x="206" y="311"/>
      <point x="154" y="311" type="curve" smooth="yes"/>
      <point x="68" y="311"/>
      <point x="47" y="216"/>
      <point x="10" y="145" type="curve"/>
      <point x="19" y="129" type="line"/>
      <point x="61" y="203"/>
      <point x="89" y="272"/>
      <point x="138" y="272" type="curve" smooth="yes"/>
      <point x="169" y="272"/>
      <point x="175" y="218"/>
      <point x="182" y="156" type="curve"/>
      <point x="104" y="69"/>
      <point x="34" y="-21"/>
      <point x="34" y="-44" type="curve" smooth="yes"/>
      <point x="34" y="-54"/>
      <point x="38" y="-59"/>
    </contour>
  </outline>
</glyph>
<glyph name="z" format="2">
  <advance width="317"/>
  <unicode hex="007A"/>
  <outline>
    <contour>
      <point x="-5" y="-280" type="curve" smooth="yes"/>
      <point x="117" y="-280"/>
      <point x="234" y="-152"/>
      <point x="234" y="-31" type="curve" smooth="yes"/>
      <point x="234" y="-20"/>
      <point x="233" y="-8"/>
      <point x="230" y="2" type="curve"/>
      <point x="283" y="42"/>
      <point x="327" y="90"/>
      <point x="346" y="150" type="curve"/>
      <point x="335" y="162" type="line"/>
      <point x="316" y="105"/>
      <point x="274" y="59"/>
      <point x="224" y="21" type="curve"/>
      <point x="212" y="54"/>
      <point x="189" y="84"/>
      <point x="154" y="111" type="curve"/>
      <point x="214" y="141"/>
      <point x="272" y="198"/>
      <point x="272" y="271" type="curve" smooth="yes"/>
      <point x="272" y="321"/>
      <point x="234" y="353"/>
      <point x="189" y="353" type="curve" smooth="yes"/>
      <point x="98" y="353"/>
      <point x="55" y="263"/>
      <point x="11" y="144" type="curve"/>
      <point x="23" y="134" type="line"/>
      <point x="69" y="232"/>
      <point x="108" y="315"/>
      <point x="175" y="315" type="curve" smooth="yes"/>
      <point x="201" y="315"/>
      <point x="214" y="292"/>
      <point x="214" y="262" type="curve" smooth="yes"/>
      <point x="214" y="210"/>
      <point x="175" y="135"/>
      <point x="105" y="115" type="curve"/>
      <point x="157" y="74"/>
      <point x="174" y="36"/>
      <point x="174" y="-12" type="curve"/>
      <point x="58" y="-89"/>
      <point x="-71" y="-143"/>
      <point x="-71" y="-229" type="curve" smooth="yes"/>
      <point x="-71" y="-266"/>
      <point x="-46" y="-280"/>
    </contour>
    <contour>
      <point x="-12" y="-251" type="curve" smooth="yes"/>
      <point x="-30" y="-251"/>
      <point x="-43" y="-241"/>
      <point x="-43" y="-218" type="curve" smooth="yes"/>
      <point x="-43" y="-151"/>
      <point x="67" y="-103"/>
      <point x="173" y="-35" type="curve"/>
      <point x="160" y="-173"/>
      <point x="37" y="-251"/>
    </contour>
  </outline>
</glyph>
<glyph name="bar" format="2">
  <advance width="259"/>
  <unicode hex="007C"/>
  <outline>
    <contour>
      <point x="55" y="-132" type="curve"/>
      <point x="115" y="-132"/>
      <point x="142" y="-63"/>
      <point x="154" y="52" type="curve" smooth="yes"/>
      <point x="167" y="174"/>
      <point x="187" y="524"/>
      <point x="187" y="640" type="curve" smooth="yes"/>
      <point x="187" y="657"/>
      <point x="182" y="687"/>
      <point x="159" y="697" type="curve"/>
      <point x="131" y="599"/>
      <point x="112" y="21"/>
    </contour>
  </outline>
</glyph>
<glyph name="asciitilde" format="2">
  <advance width="435"/>
  <unicode hex="007E"/>
  <outline>
    <contour>
      <point x="269" y="129" type="curve" smooth="yes"/>
      <point x="297" y="129"/>
      <point x="323" y="138"/>
      <point x="347" y="165" type="curve"/>
      <point x="337" y="163"/>
      <point x="327" y="162"/>
      <point x="317" y="162" type="curve" smooth="yes"/>
      <point x="243" y="162"/>
      <point x="179" y="206"/>
      <point x="123" y="206" type="curve" smooth="yes"/>
      <point x="93" y="206"/>
      <point x="66" y="194"/>
      <point x="40" y="160" type="curve"/>
      <point x="55" y="166"/>
      <point x="70" y="168"/>
      <point x="86" y="168" type="curve" smooth="yes"/>
      <point x="149" y="168"/>
      <point x="212" y="129"/>
    </contour>
  </outline>
</glyph>
<glyph name="exclamdown" format="2">
  <advance width="264"/>
  <unicode hex="00A1"/>
  <outline>
    <contour>
      <point x="-59" y="-251.0" type="curve" smooth="yes"/>
      <point x="5" y="-251.0"/>
      <point x="107" y="38.0"/>
      <point x="162" y="178.0" type="curve" smooth="yes"/>
      <point x="173" y="206.0"/>
      <point x="199" y="274.0"/>
      <point x="218" y="364.0" type="curve"/>
      <point x="217" y="365.0"/>
      <point x="216" y="366.0"/>
      <point x="215" y="367.0" type="curve"/>
      <point x="112" y="203.0"/>
      <point x="-79" y="-172.0"/>
      <point x="-79" y="-228.0" type="curve" smooth="yes"/>
      <point x="-79" y="-241.0"/>
      <point x="-70" y="-251.0"/>
    </contour>
    <contour>
      <point x="218" y="412.0" type="curve"/>
      <point x="244" y="412.0"/>
      <point x="276" y="430.0"/>
      <point x="276" y="452.0" type="curve" smooth="yes"/>
      <point x="276" y="471.0"/>
      <point x="261" y="479.0"/>
      <point x="244" y="479.0" type="curve" smooth="yes"/>
      <point x="218" y="479.0"/>
      <point x="192" y="455.0"/>
      <point x="192" y="435.0" type="curve" smooth="yes"/>
      <point x="192" y="417.0"/>
      <point x="202" y="412.0"/>
    </contour>
  </outline>
</glyph>
<glyph name="sterling" format="2">
  <advance width="650"/>
  <unicode hex="00A3"/>
  <outline>
    <contour>
      <point x="450" y="-87" type="curve" smooth="yes"/>
      <point x="498" y="-87"/>
      <point x="533" y="-64"/>
      <point x="555" y="-2" type="curve"/>
      <point x="534" y="-13"/>
      <point x="512" y="-18"/>
      <point x="484" y="-18" type="curve" smooth="yes"/>
      <point x="410" y="-18"/>
      <point x="311" y="16"/>
      <point x="219" y="44" type="curve"/>
      <point x="275" y="128"/>
      <point x="314" y="245"/>
      <point x="363" y="388" type="curve"/>
      <point x="548.0" y="384.0"/>
      <point x="619" y="526"/>
      <point x="619" y="618" type="curve" smooth="yes"/>
      <point x="619" y="698"/>
      <point x="562" y="720"/>
      <point x="522" y="720" type="curve" smooth="yes"/>
      <point x="421" y="720"/>
      <point x="359" y="580"/>
      <point x="307" y="421" type="curve"/>
      <point x="274" y="439"/>
      <point x="250" y="473"/>
      <point x="250" y="524" type="curve" smooth="yes"/>
      <point x="250" y="542"/>
      <point x="253" y="572"/>
      <point x="263" y="586" type="curve"/>
      <point x="225" y="586"/>
      <point x="201" y="542"/>
      <point x="201" y="507" type="curve" smooth="yes"/>
      <point x="201" y="462"/>
      <point x="238" y="420"/>
      <point x="300" y="400" type="curve"/>
      <point x="247" y="229"/>
      <point x="212" y="119"/>
      <point x="175" y="57" type="curve"/>
      <point x="130" y="69"/>
      <point x="87" y="78"/>
      <point x="52" y="78" type="curve" smooth="yes"/>
      <point x="-2" y="78"/>
      <point x="-21" y="58"/>
      <point x="-21" y="34" type="curve" smooth="yes"/>
      <point x="-21" y="1"/>
      <point x="14" y="-53"/>
      <point x="79" y="-53" type="curve" smooth="yes"/>
      <point x="121" y="-53"/>
      <point x="157" y="-31"/>
      <point x="190" y="6" type="curve"/>
      <point x="280" y="-34"/>
      <point x="377" y="-87"/>
    </contour>
    <contour>
      <point x="75" y="-24" type="curve" smooth="yes"/>
      <point x="34" y="-24"/>
      <point x="5" y="10"/>
      <point x="5" y="33" type="curve" smooth="yes"/>
      <point x="5" y="45"/>
      <point x="13" y="52"/>
      <point x="38" y="52" type="curve" smooth="yes"/>
      <point x="70" y="52"/>
      <point x="110" y="39"/>
      <point x="152" y="22" type="curve"/>
      <point x="130" y="-7"/>
      <point x="104" y="-24"/>
    </contour>
    <contour>
      <point x="124" y="221" type="curve"/>
      <point x="170" y="229"/>
      <point x="226" y="234"/>
      <point x="277" y="234" type="curve" smooth="yes"/>
      <point x="426" y="234"/>
      <point x="467" y="234"/>
      <point x="491" y="268" type="curve"/>
      <point x="444" y="271"/>
      <point x="374" y="285"/>
      <point x="300" y="285" type="curve" smooth="yes"/>
      <point x="212" y="285"/>
      <point x="135" y="267"/>
    </contour>
    <contour>
      <point x="369" y="407" type="curve"/>
      <point x="420" y="561"/>
      <point x="467" y="695"/>
      <point x="529" y="695" type="curve" smooth="yes"/>
      <point x="548" y="695"/>
      <point x="565" y="683"/>
      <point x="565" y="645" type="curve" smooth="yes"/>
      <point x="565" y="566"/>
      <point x="490" y="408"/>
    </contour>
  </outline>
</glyph>
<glyph name="yen" format="2">
  <advance width="810"/>
  <unicode hex="00A5"/>
  <outline>
    <contour>
      <point x="342" y="-187" type="curve" smooth="yes"/>
      <point x="454" y="-187"/>
      <point x="519" y="-116"/>
      <point x="562" y="-23" type="curve"/>
      <point x="609" y="-23" type="line" smooth="yes"/>
      <point x="637" y="-23"/>
      <point x="679" y="-18"/>
      <point x="712" y="6" type="curve"/>
      <point x="688" y="8"/>
      <point x="636" y="13"/>
      <point x="578" y="14" type="curve"/>
      <point x="586" y="35"/>
      <point x="593" y="55"/>
      <point x="600" y="77" type="curve"/>
      <point x="637.0" y="77.0"/>
      <point x="679" y="82"/>
      <point x="712" y="106" type="curve"/>
      <point x="692" y="108"/>
      <point x="655" y="111"/>
      <point x="610" y="113" type="curve"/>
      <point x="618" y="140"/>
      <point x="624" y="167"/>
      <point x="631" y="194" type="curve" smooth="yes"/>
      <point x="712" y="523"/>
      <point x="727" y="578"/>
      <point x="796" y="688" type="curve"/>
      <point x="777" y="708"/>
      <point x="753" y="720"/>
      <point x="740" y="720" type="curve" smooth="yes"/>
      <point x="697" y="720"/>
      <point x="655" y="585"/>
      <point x="620" y="440" type="curve"/>
      <point x="575" y="324"/>
      <point x="501" y="191"/>
      <point x="408" y="191" type="curve" smooth="yes"/>
      <point x="358" y="191"/>
      <point x="338" y="229"/>
      <point x="338" y="287" type="curve" smooth="yes"/>
      <point x="338" y="394"/>
      <point x="405" y="544"/>
      <point x="405" y="619" type="curve" smooth="yes"/>
      <point x="405" y="667"/>
      <point x="377" y="720"/>
      <point x="301" y="720" type="curve" smooth="yes"/>
      <point x="197" y="720"/>
      <point x="110" y="622"/>
      <point x="110" y="539" type="curve" smooth="yes"/>
      <point x="110" y="501"/>
      <point x="128" y="470"/>
      <point x="179" y="470" type="curve"/>
      <point x="174" y="482"/>
      <point x="171" y="500"/>
      <point x="171" y="519" type="curve" smooth="yes"/>
      <point x="171" y="585"/>
      <point x="205" y="692"/>
      <point x="279" y="692" type="curve" smooth="yes"/>
      <point x="322" y="692"/>
      <point x="336" y="656"/>
      <point x="336" y="614" type="curve" smooth="yes"/>
      <point x="336" y="523"/>
      <point x="268" y="375"/>
      <point x="268" y="270" type="curve" smooth="yes"/>
      <point x="268" y="200"/>
      <point x="298" y="151"/>
      <point x="377" y="151" type="curve" smooth="yes"/>
      <point x="473" y="151"/>
      <point x="541" y="224"/>
      <point x="594" y="326" type="curve"/>
      <point x="576" y="243"/>
      <point x="566.5773797371132" y="164.73213921133976"/>
      <point x="550" y="115" type="curve"/>
      <point x="448.0" y="115.0"/>
      <point x="370" y="106"/>
      <point x="355" y="66" type="curve"/>
      <point x="420" y="76"/>
      <point x="478" y="76"/>
      <point x="541" y="77" type="curve"/>
      <point x="535" y="57"/>
      <point x="529" y="36"/>
      <point x="521" y="15" type="curve"/>
      <point x="436" y="13"/>
      <point x="369" y="3"/>
      <point x="355" y="-34" type="curve"/>
      <point x="409" y="-25"/>
      <point x="458" y="-23"/>
      <point x="506" y="-23" type="curve"/>
      <point x="473" y="-96"/>
      <point x="422" y="-162"/>
      <point x="343" y="-162" type="curve" smooth="yes"/>
      <point x="285" y="-162"/>
      <point x="256" y="-127"/>
      <point x="256" y="-72" type="curve" smooth="yes"/>
      <point x="256" y="-57"/>
      <point x="258" y="-38"/>
      <point x="264" y="-18" type="curve"/>
      <point x="223" y="-32"/>
      <point x="204" y="-59"/>
      <point x="204" y="-93" type="curve" smooth="yes"/>
      <point x="204" y="-154"/>
      <point x="266" y="-187"/>
    </contour>
  </outline>
</glyph>
<glyph name="section" format="2">
  <advance width="416"/>
  <unicode hex="00A7"/>
  <outline>
    <contour>
      <point x="140" y="-87" type="curve" smooth="yes"/>
      <point x="219" y="-87"/>
      <point x="314" y="-35"/>
      <point x="314" y="50" type="curve" smooth="yes"/>
      <point x="314" y="147"/>
      <point x="209" y="179"/>
      <point x="188" y="198" type="curve"/>
      <point x="201" y="194"/>
      <point x="213" y="191"/>
      <point x="234" y="191" type="curve" smooth="yes"/>
      <point x="303" y="191"/>
      <point x="371" y="233"/>
      <point x="371" y="320" type="curve" smooth="yes"/>
      <point x="371" y="478"/>
      <point x="192" y="466"/>
      <point x="192" y="562" type="curve" smooth="yes"/>
      <point x="192" y="617"/>
      <point x="252" y="704"/>
      <point x="333" y="704" type="curve" smooth="yes"/>
      <point x="360" y="704"/>
      <point x="368" y="694"/>
      <point x="368" y="677" type="curve" smooth="yes"/>
      <point x="368" y="639"/>
      <point x="331" y="579"/>
      <point x="331" y="542" type="curve" smooth="yes"/>
      <point x="331" y="530"/>
      <point x="335" y="518"/>
      <point x="352" y="515" type="curve"/>
      <point x="372" y="547"/>
      <point x="401" y="608"/>
      <point x="401" y="656" type="curve" smooth="yes"/>
      <point x="401" y="693"/>
      <point x="384" y="719"/>
      <point x="330" y="719" type="curve" smooth="yes"/>
      <point x="225" y="719"/>
      <point x="152" y="619"/>
      <point x="152" y="549" type="curve" smooth="yes"/>
      <point x="152" y="488"/>
      <point x="205" y="458"/>
      <point x="256" y="429" type="curve"/>
      <point x="142.0" y="443.25"/>
      <point x="72" y="380"/>
      <point x="72" y="290" type="curve" smooth="yes"/>
      <point x="72" y="155"/>
      <point x="270" y="140"/>
      <point x="270" y="31" type="curve" smooth="yes"/>
      <point x="270" y="-30"/>
      <point x="209" y="-62"/>
      <point x="151" y="-62" type="curve" smooth="yes"/>
      <point x="84" y="-62"/>
      <point x="53" y="-19"/>
      <point x="53" y="28" type="curve" smooth="yes"/>
      <point x="53" y="57"/>
      <point x="65" y="89"/>
      <point x="88" y="113" type="curve"/>
      <point x="53" y="113"/>
      <point x="7" y="94"/>
      <point x="7" y="28" type="curve" smooth="yes"/>
      <point x="7" y="-50"/>
      <point x="71" y="-87"/>
    </contour>
    <contour>
      <point x="219" y="231" type="curve" smooth="yes"/>
      <point x="135" y="231"/>
      <point x="128" y="285"/>
      <point x="128" y="310" type="curve" smooth="yes"/>
      <point x="128" y="376"/>
      <point x="176" y="401"/>
      <point x="227" y="401" type="curve" smooth="yes"/>
      <point x="287" y="401"/>
      <point x="314" y="366"/>
      <point x="314" y="316" type="curve" smooth="yes"/>
      <point x="314" y="261"/>
      <point x="281" y="231"/>
    </contour>
  </outline>
</glyph>
<glyph name="softhyphen" format="2">
  <advance width="485"/>
  <unicode hex="00AD"/>
  <outline>
    <contour>
      <point x="35" y="144" type="curve"/>
      <point x="96" y="154"/>
      <point x="127" y="155"/>
      <point x="188" y="155" type="curve" smooth="yes"/>
      <point x="325" y="155"/>
      <point x="362" y="163"/>
      <point x="392" y="184" type="curve"/>
      <point x="363" y="187"/>
      <point x="295" y="193"/>
      <point x="224" y="193" type="curve" smooth="yes"/>
      <point x="128" y="193"/>
      <point x="50" y="184"/>
    </contour>
  </outline>
</glyph>
<glyph name="twosuperior" format="2">
  <advance width="355"/>
  <unicode hex="00B2"/>
  <outline>
    <contour>
      <point x="282" y="304" type="curve" smooth="yes"/>
      <point x="312" y="304"/>
      <point x="329" y="322"/>
      <point x="339" y="362" type="curve"/>
      <point x="317" y="348"/>
      <point x="306" y="344"/>
      <point x="295" y="344" type="curve" smooth="yes"/>
      <point x="272" y="344"/>
      <point x="237.88562075744883" y="351.5285948106378"/>
      <point x="196" y="362" type="curve"/>
      <point x="268" y="421"/>
      <point x="337" y="528"/>
      <point x="337" y="616" type="curve" smooth="yes"/>
      <point x="337" y="667"/>
      <point x="304" y="708"/>
      <point x="253" y="708" type="curve" smooth="yes"/>
      <point x="188" y="708"/>
      <point x="142" y="657"/>
      <point x="142" y="603" type="curve" smooth="yes"/>
      <point x="142" y="575"/>
      <point x="155" y="564"/>
      <point x="180" y="557" type="curve"/>
      <point x="188" y="557" type="line"/>
      <point x="183" y="571"/>
      <point x="181" y="580"/>
      <point x="181" y="593" type="curve" smooth="yes"/>
      <point x="181" y="648"/>
      <point x="205" y="691"/>
      <point x="245" y="691" type="curve" smooth="yes"/>
      <point x="273" y="691"/>
      <point x="294" y="671"/>
      <point x="294" y="623" type="curve" smooth="yes"/>
      <point x="294" y="535"/>
      <point x="224" y="421"/>
      <point x="164" y="368" type="curve"/>
      <point x="144" y="372"/>
      <point x="128" y="375"/>
      <point x="113" y="375" type="curve" smooth="yes"/>
      <point x="84" y="375"/>
      <point x="72" y="365"/>
      <point x="72" y="349" type="curve" smooth="yes"/>
      <point x="72" y="332"/>
      <point x="88" y="320"/>
      <point x="110" y="320" type="curve" smooth="yes"/>
      <point x="127" y="320"/>
      <point x="145" y="327"/>
      <point x="166" y="341" type="curve"/>
      <point x="218.03776804881133" y="319.0893608215531"/>
      <point x="255" y="304"/>
    </contour>
    <contour>
      <point x="109" y="338" type="curve" smooth="yes"/>
      <point x="102" y="338"/>
      <point x="95" y="342"/>
      <point x="95" y="348" type="curve" smooth="yes"/>
      <point x="95" y="352"/>
      <point x="98" y="358"/>
      <point x="109" y="358" type="curve" smooth="yes"/>
      <point x="116" y="358"/>
      <point x="127" y="356"/>
      <point x="140" y="351" type="curve"/>
      <point x="127" y="343"/>
      <point x="118" y="338"/>
    </contour>
  </outline>
</glyph>
<glyph name="ordmasculine" format="2">
  <advance width="279"/>
  <unicode hex="00BA"/>
  <outline>
    <contour>
      <point x="163" y="452" type="curve" smooth="yes"/>
      <point x="212" y="452"/>
      <point x="258" y="502"/>
      <point x="288" y="571" type="curve"/>
      <point x="293" y="562"/>
      <point x="303" y="558"/>
      <point x="314" y="558" type="curve" smooth="yes"/>
      <point x="331" y="558"/>
      <point x="349" y="567"/>
      <point x="355" y="578" type="curve"/>
      <point x="347" y="577"/>
      <point x="337" y="575"/>
      <point x="328" y="575" type="curve" smooth="yes"/>
      <point x="317" y="575"/>
      <point x="308" y="578"/>
      <point x="308" y="591" type="curve" smooth="yes"/>
      <point x="308" y="628"/>
      <point x="336" y="662"/>
      <point x="336" y="679" type="curve" smooth="yes"/>
      <point x="336" y="690"/>
      <point x="328" y="706"/>
      <point x="307" y="706" type="curve"/>
      <point x="303" y="714"/>
      <point x="294" y="720"/>
      <point x="277" y="720" type="curve" smooth="yes"/>
      <point x="193" y="720"/>
      <point x="107" y="587"/>
      <point x="107" y="512" type="curve" smooth="yes"/>
      <point x="107" y="477"/>
      <point x="128" y="452"/>
    </contour>
    <contour>
      <point x="179" y="482" type="curve" smooth="yes"/>
      <point x="162" y="482"/>
      <point x="152" y="496"/>
      <point x="152" y="517" type="curve" smooth="yes"/>
      <point x="152" y="571"/>
      <point x="209" y="693"/>
      <point x="288" y="693" type="curve"/>
      <point x="280" y="681"/>
      <point x="275" y="661"/>
      <point x="275" y="629" type="curve" smooth="yes"/>
      <point x="275" y="613"/>
      <point x="276" y="601"/>
      <point x="279" y="589" type="curve"/>
      <point x="254" y="529"/>
      <point x="210" y="482"/>
    </contour>
  </outline>
</glyph>
<glyph name="onequarter" format="2">
  <advance width="642"/>
  <unicode hex="00BC"/>
  <outline>
    <contour>
      <point x="45" y="-87" type="curve"/>
      <point x="102" y="-87"/>
      <point x="161" y="-13"/>
      <point x="230" y="97" type="curve" smooth="yes"/>
      <point x="316" y="235"/>
      <point x="537" y="663"/>
      <point x="559" y="720" type="curve"/>
      <point x="527" y="720"/>
      <point x="482" y="694"/>
      <point x="475" y="675" type="curve" smooth="yes"/>
      <point x="404" y="491"/>
      <point x="138" y="6"/>
    </contour>
    <contour>
      <point x="510" y="-26" type="curve"/>
      <point x="510" y="15"/>
      <point x="527" y="114"/>
      <point x="531" y="134" type="curve"/>
      <point x="556.0" y="133.0"/>
      <point x="574" y="148"/>
      <point x="589" y="169" type="curve"/>
      <point x="574" y="166"/>
      <point x="564" y="164"/>
      <point x="553" y="164" type="curve" smooth="yes"/>
      <point x="536" y="164" type="line"/>
      <point x="563" y="303"/>
      <point x="582" y="354"/>
      <point x="582" y="363" type="curve" smooth="yes"/>
      <point x="582" y="372"/>
      <point x="577" y="376"/>
      <point x="569" y="377" type="curve"/>
      <point x="525" y="297"/>
      <point x="421" y="205"/>
      <point x="360" y="151" type="curve"/>
      <point x="355" y="146"/>
      <point x="350" y="138"/>
      <point x="350" y="126" type="curve"/>
      <point x="377" y="132"/>
      <point x="408" y="135"/>
      <point x="451" y="135" type="curve" smooth="yes"/>
      <point x="474.0" y="135.0"/>
      <point x="480" y="134"/>
      <point x="487" y="134" type="curve"/>
      <point x="465" y="33"/>
      <point x="462" y="4"/>
      <point x="462" y="0" type="curve" smooth="yes"/>
      <point x="462" y="-16"/>
      <point x="481" y="-24"/>
    </contour>
    <contour>
      <point x="405" y="165" type="curve"/>
      <point x="427" y="189"/>
      <point x="455" y="214"/>
      <point x="478" y="236" type="curve" smooth="yes"/>
      <point x="522" y="279" type="line"/>
      <point x="513" y="251"/>
      <point x="507" y="223"/>
      <point x="495" y="166" type="curve"/>
      <point x="457" y="166"/>
      <point x="424" y="167"/>
    </contour>
    <contour>
      <point x="109" y="314" type="curve" smooth="yes"/>
      <point x="137" y="314"/>
      <point x="159" y="318"/>
      <point x="193" y="318" type="curve" smooth="yes"/>
      <point x="206" y="318"/>
      <point x="223" y="317"/>
      <point x="236" y="316" type="curve"/>
      <point x="230" y="347"/>
      <point x="203.0" y="348"/>
      <point x="171" y="347" type="curve"/>
      <point x="184" y="363"/>
      <point x="191" y="389"/>
      <point x="199" y="426" type="curve" smooth="yes"/>
      <point x="226" y="553"/>
      <point x="241" y="637"/>
      <point x="249" y="668" type="curve" smooth="yes"/>
      <point x="252" y="679"/>
      <point x="255" y="690"/>
      <point x="255" y="701" type="curve" smooth="yes"/>
      <point x="255" y="706"/>
      <point x="254" y="713"/>
      <point x="250" y="717" type="curve"/>
      <point x="244" y="717" type="line"/>
      <point x="208" y="679"/>
      <point x="156" y="640"/>
      <point x="139" y="632" type="curve"/>
      <point x="139" y="618"/>
      <point x="144" y="614"/>
      <point x="154" y="614" type="curve" smooth="yes"/>
      <point x="160" y="614"/>
      <point x="173" y="619"/>
      <point x="205" y="640" type="curve"/>
      <point x="187" y="577"/>
      <point x="168" y="412"/>
      <point x="137" y="342" type="curve"/>
      <point x="117" y="338"/>
      <point x="96.0" y="338.0"/>
      <point x="66" y="338" type="curve"/>
      <point x="77" y="322"/>
      <point x="96" y="314"/>
    </contour>
  </outline>
</glyph>
<glyph name="threequarters" format="2">
  <advance width="685"/>
  <unicode hex="00BE"/>
  <outline>
    <contour>
      <point x="88" y="-87" type="curve"/>
      <point x="145" y="-87"/>
      <point x="204" y="-13"/>
      <point x="273" y="97" type="curve" smooth="yes"/>
      <point x="359" y="235"/>
      <point x="580" y="663"/>
      <point x="602" y="720" type="curve"/>
      <point x="570" y="720"/>
      <point x="525" y="694"/>
      <point x="518" y="675" type="curve" smooth="yes"/>
      <point x="447" y="491"/>
      <point x="181" y="6"/>
    </contour>
    <contour>
      <point x="168" y="314" type="curve" smooth="yes"/>
      <point x="248" y="314"/>
      <point x="308" y="379"/>
      <point x="308" y="442" type="curve" smooth="yes"/>
      <point x="308" y="475"/>
      <point x="290" y="520"/>
      <point x="238" y="538" type="curve"/>
      <point x="286" y="554"/>
      <point x="320" y="610"/>
      <point x="320" y="652" type="curve" smooth="yes"/>
      <point x="320" y="696"/>
      <point x="281" y="718"/>
      <point x="240" y="718" type="curve" smooth="yes"/>
      <point x="193" y="718"/>
      <point x="144" y="690"/>
      <point x="144" y="641" type="curve" smooth="yes"/>
      <point x="144" y="624"/>
      <point x="151" y="600"/>
      <point x="165" y="600" type="curve" smooth="yes"/>
      <point x="173" y="600"/>
      <point x="185" y="608"/>
      <point x="189" y="616" type="curve"/>
      <point x="184" y="628"/>
      <point x="181" y="639"/>
      <point x="181" y="649" type="curve" smooth="yes"/>
      <point x="181" y="682"/>
      <point x="208" y="701"/>
      <point x="234" y="701" type="curve" smooth="yes"/>
      <point x="255" y="701"/>
      <point x="275" y="689"/>
      <point x="275" y="654" type="curve" smooth="yes"/>
      <point x="275" y="614"/>
      <point x="242" y="556"/>
      <point x="191" y="533" type="curve"/>
      <point x="235" y="522"/>
      <point x="250" y="481"/>
      <point x="250" y="442" type="curve" smooth="yes"/>
      <point x="250" y="378"/>
      <point x="210" y="334"/>
      <point x="173" y="334" type="curve" smooth="yes"/>
      <point x="143" y="334"/>
      <point x="125" y="363"/>
      <point x="125" y="393" type="curve" smooth="yes"/>
      <point x="125" y="410"/>
      <point x="131" y="431"/>
      <point x="142" y="440" type="curve"/>
      <point x="136" y="442"/>
      <point x="132" y="442"/>
      <point x="128" y="442" type="curve" smooth="yes"/>
      <point x="98" y="442"/>
      <point x="83" y="412"/>
      <point x="83" y="387" type="curve" smooth="yes"/>
      <point x="83" y="355"/>
      <point x="105" y="314"/>
    </contour>
    <contour>
      <point x="553" y="-26" type="curve"/>
      <point x="553" y="15"/>
      <point x="570" y="114"/>
      <point x="574" y="134" type="curve"/>
      <point x="599.0" y="133.0"/>
      <point x="617" y="148"/>
      <point x="632" y="169" type="curve"/>
      <point x="617" y="166"/>
      <point x="607" y="164"/>
      <point x="596" y="164" type="curve" smooth="yes"/>
      <point x="579" y="164" type="line"/>
      <point x="606" y="303"/>
      <point x="625" y="354"/>
      <point x="625" y="363" type="curve" smooth="yes"/>
      <point x="625" y="372"/>
      <point x="620" y="376"/>
      <point x="612" y="377" type="curve"/>
      <point x="568" y="297"/>
      <point x="464" y="205"/>
      <point x="403" y="151" type="curve"/>
      <point x="398" y="146"/>
      <point x="393" y="138"/>
      <point x="393" y="126" type="curve"/>
      <point x="420" y="132"/>
      <point x="451" y="135"/>
      <point x="494" y="135" type="curve" smooth="yes"/>
      <point x="517.0" y="135.0"/>
      <point x="523" y="134"/>
      <point x="530" y="134" type="curve"/>
      <point x="508" y="33"/>
      <point x="505" y="4"/>
      <point x="505" y="0" type="curve" smooth="yes"/>
      <point x="505" y="-16"/>
      <point x="524" y="-24"/>
    </contour>
    <contour>
      <point x="448" y="165" type="curve"/>
      <point x="470" y="189"/>
      <point x="498" y="214"/>
      <point x="521" y="236" type="curve" smooth="yes"/>
      <point x="565" y="279" type="line"/>
      <point x="556" y="251"/>
      <point x="550" y="223"/>
      <point x="538" y="166" type="curve"/>
      <point x="500" y="166"/>
      <point x="467" y="167"/>
    </contour>
  </outline>
</glyph>
<glyph name="AE" format="2">
  <advance width="747"/>
  <unicode hex="00C6"/>
  <outline>
    <contour>
      <point x="17" y="-87" type="curve"/>
      <point x="67" y="31"/>
      <point x="128" y="157"/>
      <point x="191" y="273" type="curve"/>
      <point x="232" y="268"/>
      <point x="280" y="262"/>
      <point x="339" y="253" type="curve"/>
      <point x="328" y="198"/>
      <point x="322" y="147"/>
      <point x="322" y="104" type="curve" smooth="yes"/>
      <point x="322" y="54"/>
      <point x="331" y="11"/>
      <point x="351" y="-9" type="curve"/>
      <point x="389" y="-13"/>
      <point x="445" y="-13"/>
      <point x="500" y="-13" type="curve" smooth="yes"/>
      <point x="581" y="-13"/>
      <point x="659" y="-7"/>
      <point x="670" y="23" type="curve"/>
      <point x="625" y="34"/>
      <point x="482" y="40"/>
      <point x="398" y="53" type="curve"/>
      <point x="396" y="64"/>
      <point x="395" y="78"/>
      <point x="395" y="94" type="curve" smooth="yes"/>
      <point x="395" y="161"/>
      <point x="412" y="259"/>
      <point x="435" y="357" type="curve"/>
      <point x="449" y="356"/>
      <point x="465" y="356"/>
      <point x="488" y="356" type="curve" smooth="yes"/>
      <point x="569" y="356"/>
      <point x="647" y="362"/>
      <point x="658" y="392" type="curve"/>
      <point x="613" y="398"/>
      <point x="542" y="413"/>
      <point x="450" y="415" type="curve"/>
      <point x="478" y="521"/>
      <point x="511" y="618"/>
      <point x="534" y="663" type="curve"/>
      <point x="565" y="662"/>
      <point x="601" y="661"/>
      <point x="637" y="661" type="curve" smooth="yes"/>
      <point x="718" y="661"/>
      <point x="796" y="667"/>
      <point x="807" y="697" type="curve"/>
      <point x="751" y="705"/>
      <point x="605" y="720"/>
      <point x="498" y="720" type="curve" smooth="yes"/>
      <point x="454" y="720"/>
      <point x="305" y="534"/>
      <point x="168" y="328" type="curve"/>
      <point x="142" y="332"/>
      <point x="118" y="335"/>
      <point x="96" y="335" type="curve" smooth="yes"/>
      <point x="45" y="335"/>
      <point x="6" y="321"/>
      <point x="-8" y="283" type="curve"/>
      <point x="27" y="283" type="line" smooth="yes"/>
      <point x="52" y="283"/>
      <point x="86" y="282"/>
      <point x="135" y="278" type="curve"/>
      <point x="50" y="145"/>
      <point x="-17" y="20"/>
      <point x="-17" y="-35" type="curve" smooth="yes"/>
      <point x="-17" y="-48"/>
      <point x="-13" y="-70"/>
    </contour>
    <contour>
      <point x="346" y="288" type="curve"/>
      <point x="308" y="297"/>
      <point x="262" y="309"/>
      <point x="217" y="319" type="curve"/>
      <point x="310" y="485"/>
      <point x="404" y="619"/>
      <point x="466" y="657" type="curve"/>
      <point x="425" y="565"/>
      <point x="375" y="420"/>
    </contour>
  </outline>
</glyph>
<glyph name="Eth" format="2">
  <advance width="654"/>
  <unicode hex="00D0"/>
  <outline>
    <contour>
      <point x="164" y="-87" type="curve" smooth="yes"/>
      <point x="398" y="-87"/>
      <point x="644" y="157"/>
      <point x="644" y="446" type="curve" smooth="yes"/>
      <point x="644" y="600"/>
      <point x="574" y="720"/>
      <point x="395" y="720" type="curve" smooth="yes"/>
      <point x="223" y="720"/>
      <point x="81" y="610"/>
      <point x="81" y="517" type="curve" smooth="yes"/>
      <point x="81" y="486"/>
      <point x="97" y="461"/>
      <point x="141" y="461" type="curve"/>
      <point x="138" y="470"/>
      <point x="136" y="482"/>
      <point x="136" y="498" type="curve" smooth="yes"/>
      <point x="136" y="608"/>
      <point x="234" y="693"/>
      <point x="365" y="693" type="curve" smooth="yes"/>
      <point x="486" y="693"/>
      <point x="570" y="619"/>
      <point x="570" y="457" type="curve" smooth="yes"/>
      <point x="570" y="209"/>
      <point x="375" y="-61"/>
      <point x="163" y="-61" type="curve" smooth="yes"/>
      <point x="150" y="-61"/>
      <point x="138" y="-60"/>
      <point x="120" y="-57" type="curve"/>
      <point x="141" y="40"/>
      <point x="174" y="162"/>
      <point x="213" y="285" type="curve"/>
      <point x="286" y="285" type="line" smooth="yes"/>
      <point x="314" y="285"/>
      <point x="356" y="290"/>
      <point x="389" y="314" type="curve"/>
      <point x="360" y="317"/>
      <point x="294" y="323"/>
      <point x="225" y="323" type="curve"/>
      <point x="260" y="431"/>
      <point x="299" y="537"/>
      <point x="336" y="622" type="curve"/>
      <point x="326" y="629"/>
      <point x="317" y="632"/>
      <point x="308" y="632" type="curve" smooth="yes"/>
      <point x="268" y="632"/>
      <point x="238" y="559"/>
      <point x="230" y="538" type="curve" smooth="yes"/>
      <point x="217" y="503"/>
      <point x="188" y="420"/>
      <point x="157" y="321" type="curve"/>
      <point x="92" y="317"/>
      <point x="43" y="304"/>
      <point x="32" y="274" type="curve"/>
      <point x="78" y="281"/>
      <point x="107" y="284"/>
      <point x="145" y="284" type="curve"/>
      <point x="111" y="174"/>
      <point x="76" y="51"/>
      <point x="57" y="-42" type="curve"/>
      <point x="83" y="-79"/>
      <point x="122" y="-87"/>
    </contour>
  </outline>
</glyph>
<glyph name="Oslash" format="2">
  <advance width="623"/>
  <unicode hex="00D8"/>
  <anchor x="301" y="-69" name="ogonek"/>
  <anchor x="517" y="670" name="topright"/>
  <outline>
    <contour>
      <point x="46" y="-101" type="curve" smooth="yes"/>
      <point x="71" y="-101"/>
      <point x="101" y="-90"/>
      <point x="132" y="-68" type="curve"/>
      <point x="156" y="-80"/>
      <point x="183" y="-87"/>
      <point x="213" y="-87" type="curve" smooth="yes"/>
      <point x="374" y="-87"/>
      <point x="602" y="113"/>
      <point x="602" y="477" type="curve" smooth="yes"/>
      <point x="602" y="504"/>
      <point x="600" y="536"/>
      <point x="594" y="566" type="curve"/>
      <point x="630" y="618"/>
      <point x="655" y="657"/>
      <point x="664" y="670" type="curve"/>
      <point x="659" y="671"/>
      <point x="654" y="671"/>
      <point x="648" y="671" type="curve" smooth="yes"/>
      <point x="618" y="671"/>
      <point x="583.3969976904687" y="655.9962471130858"/>
      <point x="569" y="638" type="curve"/>
      <point x="557" y="657"/>
      <point x="540" y="670"/>
      <point x="517" y="670" type="curve" smooth="yes"/>
      <point x="451" y="670"/>
      <point x="336" y="549"/>
      <point x="336" y="478" type="curve" smooth="yes"/>
      <point x="336" y="456"/>
      <point x="350" y="437"/>
      <point x="384" y="429" type="curve"/>
      <point x="400" y="504"/>
      <point x="470" y="643"/>
      <point x="519" y="643" type="curve" smooth="yes"/>
      <point x="533" y="643"/>
      <point x="543" y="628"/>
      <point x="550" y="608" type="curve"/>
      <point x="457" y="465"/>
      <point x="269" y="176"/>
      <point x="137" y="12" type="curve"/>
      <point x="117" y="48"/>
      <point x="109" y="96"/>
      <point x="109" y="147" type="curve" smooth="yes"/>
      <point x="109" y="390"/>
      <point x="312" y="707"/>
      <point x="484" y="707" type="curve" smooth="yes"/>
      <point x="495" y="707" type="line"/>
      <point x="480" y="715"/>
      <point x="460" y="719"/>
      <point x="435" y="719" type="curve" smooth="yes"/>
      <point x="244" y="719"/>
      <point x="21" y="418"/>
      <point x="21" y="161" type="curve" smooth="yes"/>
      <point x="21" y="73"/>
      <point x="47" y="3"/>
      <point x="92" y="-39" type="curve"/>
      <point x="67" y="-67"/>
      <point x="46" y="-88"/>
      <point x="30" y="-99" type="curve"/>
      <point x="35" y="-100"/>
      <point x="40" y="-101"/>
    </contour>
    <contour>
      <point x="243" y="-53" type="curve" smooth="yes"/>
      <point x="215" y="-53"/>
      <point x="193" y="-45"/>
      <point x="174" y="-32" type="curve"/>
      <point x="196" y="-11"/>
      <point x="217" y="15"/>
      <point x="239" y="46" type="curve" smooth="yes"/>
      <point x="297" y="129"/>
      <point x="457" y="363"/>
      <point x="564" y="521" type="curve"/>
      <point x="564.0" y="268.0"/>
      <point x="430" y="-53"/>
    </contour>
  </outline>
</glyph>
<glyph name="Thorn" format="2">
  <advance width="508"/>
  <unicode hex="00DE"/>
  <outline>
    <contour>
      <point x="100" y="-87" type="curve"/>
      <point x="121" y="-17"/>
      <point x="143" y="68"/>
      <point x="168" y="156" type="curve"/>
      <point x="261" y="160"/>
      <point x="529" y="194"/>
      <point x="529" y="387" type="curve" smooth="yes"/>
      <point x="529" y="505"/>
      <point x="411" y="569"/>
      <point x="300" y="579" type="curve"/>
      <point x="318" y="627"/>
      <point x="337" y="671"/>
      <point x="356" y="708" type="curve"/>
      <point x="346" y="714"/>
      <point x="338" y="716"/>
      <point x="330" y="716" type="curve" smooth="yes"/>
      <point x="285" y="716"/>
      <point x="261" y="625"/>
      <point x="241" y="578" type="curve"/>
      <point x="167" y="572"/>
      <point x="96" y="544"/>
      <point x="51" y="525" type="curve"/>
      <point x="51" y="515"/>
      <point x="74" y="498"/>
      <point x="82" y="498" type="curve" smooth="yes"/>
      <point x="94" y="498"/>
      <point x="149" y="542"/>
      <point x="232" y="555" type="curve"/>
      <point x="160" y="376"/>
      <point x="102" y="197"/>
      <point x="45" y="18" type="curve" smooth="yes"/>
      <point x="39" y="0"/>
      <point x="31" y="-22"/>
      <point x="31" y="-37" type="curve" smooth="yes"/>
      <point x="31" y="-66"/>
      <point x="66" y="-87"/>
    </contour>
    <contour>
      <point x="173" y="175" type="curve"/>
      <point x="210" y="306"/>
      <point x="250" y="443"/>
      <point x="292" y="558" type="curve"/>
      <point x="382" y="554"/>
      <point x="462" y="508"/>
      <point x="462" y="404" type="curve" smooth="yes"/>
      <point x="462" y="262"/>
      <point x="312" y="191"/>
    </contour>
  </outline>
</glyph>
<glyph name="germandbls" format="2">
  <advance width="427"/>
  <unicode hex="00DF"/>
  <outline>
    <contour>
      <point x="-43" y="-115" type="curve"/>
      <point x="106" y="-68"/>
      <point x="73" y="693"/>
      <point x="272" y="693" type="curve" smooth="yes"/>
      <point x="319" y="693"/>
      <point x="331" y="651"/>
      <point x="331" y="611" type="curve" smooth="yes"/>
      <point x="331" y="519"/>
      <point x="271" y="458"/>
      <point x="216" y="406" type="curve"/>
      <point x="201" y="393"/>
      <point x="192" y="382"/>
      <point x="192" y="372" type="curve" smooth="yes"/>
      <point x="192" y="363"/>
      <point x="200" y="355"/>
      <point x="212" y="346" type="curve" smooth="yes"/>
      <point x="259" y="310"/>
      <point x="290" y="234"/>
      <point x="290" y="161" type="curve" smooth="yes"/>
      <point x="290" y="55"/>
      <point x="226" y="-67"/>
      <point x="174" y="-67" type="curve" smooth="yes"/>
      <point x="153" y="-67"/>
      <point x="144" y="-28"/>
      <point x="144" y="19" type="curve" smooth="yes"/>
      <point x="144" y="79"/>
      <point x="159" y="151"/>
      <point x="180" y="162" type="curve"/>
      <point x="175" y="163"/>
      <point x="169" y="163"/>
      <point x="164" y="163" type="curve" smooth="yes"/>
      <point x="124" y="163"/>
      <point x="103" y="104"/>
      <point x="103" y="44" type="curve" smooth="yes"/>
      <point x="103" y="-21"/>
      <point x="126" y="-87"/>
      <point x="173" y="-87" type="curve" smooth="yes"/>
      <point x="265" y="-87"/>
      <point x="361" y="41"/>
      <point x="361" y="147" type="curve" smooth="yes"/>
      <point x="361.0" y="227.80182486974127"/>
      <point x="299.0" y="337"/>
      <point x="214" y="371" type="curve"/>
      <point x="288.0" y="426"/>
      <point x="385.0" y="498.3522220270424"/>
      <point x="385" y="610" type="curve" smooth="yes"/>
      <point x="385" y="679"/>
      <point x="340" y="720"/>
      <point x="280" y="720" type="curve" smooth="yes"/>
      <point x="20" y="720"/>
      <point x="14" y="-39"/>
    </contour>
  </outline>
</glyph>
<glyph name="divide" format="2">
  <advance width="460"/>
  <unicode hex="00F7"/>
  <outline>
    <contour>
      <point x="25" y="124" type="curve"/>
      <point x="90" y="134"/>
      <point x="149" y="135"/>
      <point x="206" y="135" type="curve" smooth="yes"/>
      <point x="315" y="135"/>
      <point x="352" y="143"/>
      <point x="382" y="164" type="curve"/>
      <point x="353" y="167"/>
      <point x="285" y="173"/>
      <point x="214" y="173" type="curve" smooth="yes"/>
      <point x="118" y="173"/>
      <point x="40" y="164"/>
    </contour>
    <contour>
      <point x="171" y="-10" type="curve" smooth="yes"/>
      <point x="197" y="-10"/>
      <point x="223" y="14"/>
      <point x="223" y="34" type="curve" smooth="yes"/>
      <point x="223" y="52"/>
      <point x="213" y="58"/>
      <point x="197" y="58" type="curve" smooth="yes"/>
      <point x="171" y="58"/>
      <point x="139" y="39"/>
      <point x="139" y="17" type="curve" smooth="yes"/>
      <point x="139" y="-2"/>
      <point x="154" y="-10"/>
    </contour>
    <contour>
      <point x="231" y="240" type="curve" smooth="yes"/>
      <point x="257" y="240"/>
      <point x="283" y="264"/>
      <point x="283" y="284" type="curve" smooth="yes"/>
      <point x="283" y="302"/>
      <point x="273" y="308"/>
      <point x="257" y="308" type="curve" smooth="yes"/>
      <point x="231" y="308"/>
      <point x="199" y="289"/>
      <point x="199" y="267" type="curve" smooth="yes"/>
      <point x="199" y="248"/>
      <point x="214" y="240"/>
    </contour>
  </outline>
</glyph>
<glyph name="oslash" format="2">
  <advance width="363"/>
  <unicode hex="00F8"/>
  <anchor x="147" y="-2" name="ogonek"/>
  <anchor x="225" y="337" name="top"/>
  <anchor x="237" y="352" name="topright"/>
  <outline>
    <contour>
      <point x="-52" y="-64" type="curve" smooth="yes"/>
      <point x="18" y="-64"/>
      <point x="112" y="52"/>
      <point x="177" y="144" type="curve" smooth="yes"/>
      <point x="193" y="167"/>
      <point x="334" y="386"/>
      <point x="334" y="386" type="curve"/>
      <point x="330" y="386"/>
      <point x="325" y="387"/>
      <point x="321" y="387" type="curve" smooth="yes"/>
      <point x="303" y="387"/>
      <point x="281" y="380"/>
      <point x="276" y="372" type="curve" smooth="yes"/>
      <point x="222" y="285"/>
      <point x="185" y="229"/>
      <point x="141" y="167" type="curve" smooth="yes"/>
      <point x="90" y="94"/>
      <point x="-11" y="-35"/>
      <point x="-65" y="-63" type="curve"/>
      <point x="-61" y="-64"/>
      <point x="-56" y="-64"/>
    </contour>
    <component base="o"/>
  </outline>
</glyph>
<glyph name="thorn" format="2">
  <advance width="391"/>
  <unicode hex="00FE"/>
  <outline>
    <contour>
      <point x="-63" y="-280" type="curve" smooth="yes"/>
      <point x="-59" y="-280"/>
      <point x="-54" y="-278"/>
      <point x="-51" y="-275" type="curve" smooth="yes"/>
      <point x="-28" y="-253"/>
      <point x="25" y="-68"/>
      <point x="72" y="132" type="curve"/>
      <point x="97" y="190"/>
      <point x="168" y="293"/>
      <point x="238" y="293" type="curve" smooth="yes"/>
      <point x="278" y="293"/>
      <point x="295" y="258"/>
      <point x="295" y="216" type="curve" smooth="yes"/>
      <point x="295" y="114"/>
      <point x="198" y="-3"/>
      <point x="91" y="-3" type="curve" smooth="yes"/>
      <point x="77" y="-3"/>
      <point x="66" y="-3"/>
      <point x="66" y="-8" type="curve" smooth="yes"/>
      <point x="66" y="-16"/>
      <point x="89" y="-26"/>
      <point x="124" y="-26" type="curve" smooth="yes"/>
      <point x="262" y="-26"/>
      <point x="360" y="121"/>
      <point x="360" y="225" type="curve" smooth="yes"/>
      <point x="360" y="293"/>
      <point x="318" y="339"/>
      <point x="259" y="339" type="curve" smooth="yes"/>
      <point x="181" y="339"/>
      <point x="120" y="258"/>
      <point x="86" y="192" type="curve"/>
      <point x="100" y="257"/>
      <point x="131" y="458"/>
      <point x="131" y="477" type="curve" smooth="yes"/>
      <point x="131" y="500"/>
      <point x="117" y="523"/>
      <point x="83" y="523" type="curve" smooth="yes"/>
      <point x="67" y="523"/>
      <point x="65" y="518"/>
      <point x="64" y="506" type="curve" smooth="yes"/>
      <point x="16" y="105"/>
      <point x="-47" y="-77"/>
      <point x="-94" y="-242" type="curve" smooth="yes"/>
      <point x="-95" y="-246"/>
      <point x="-80" y="-280"/>
    </contour>
  </outline>
</glyph>
<glyph name="dcroat" format="2">
  <advance width="474"/>
  <unicode hex="0111"/>
  <outline>
    <contour>
      <point x="274" y="524" type="curve"/>
      <point x="351" y="536"/>
      <point x="400" y="535"/>
      <point x="528" y="535" type="curve" smooth="yes"/>
      <point x="556" y="535"/>
      <point x="598" y="540"/>
      <point x="631" y="564" type="curve"/>
      <point x="598" y="569"/>
      <point x="523" y="574"/>
      <point x="447" y="573" type="curve" smooth="yes"/>
      <point x="341" y="572"/>
      <point x="286" y="558"/>
    </contour>
    <component base="d"/>
  </outline>
</glyph>
<glyph name="Hbar" format="2">
  <advance width="618"/>
  <unicode hex="0126"/>
  <outline>
    <contour>
      <point x="171" y="334" type="curve"/>
      <point x="235" y="334" type="line"/>
      <point x="326" y="629" type="line" smooth="yes"/>
      <point x="330" y="642"/>
      <point x="334" y="657"/>
      <point x="334" y="672" type="curve" smooth="yes"/>
      <point x="334" y="696"/>
      <point x="322" y="720"/>
      <point x="277" y="720" type="curve" smooth="yes"/>
      <point x="206" y="720"/>
      <point x="114" y="658"/>
      <point x="114" y="575" type="curve" smooth="yes"/>
      <point x="114" y="550"/>
      <point x="129" y="530"/>
      <point x="172" y="530" type="curve"/>
      <point x="170" y="538"/>
      <point x="169" y="551"/>
      <point x="169" y="562" type="curve" smooth="yes"/>
      <point x="169" y="622"/>
      <point x="220" y="692"/>
      <point x="267" y="692" type="curve" smooth="yes"/>
      <point x="277" y="692"/>
      <point x="281" y="687"/>
      <point x="281" y="678" type="curve" smooth="yes"/>
      <point x="281" y="658"/>
      <point x="272" y="634"/>
      <point x="267" y="619" type="curve" smooth="yes"/>
      <point x="228" y="507"/>
      <point x="197" y="413"/>
    </contour>
    <contour>
      <point x="55" y="-87" type="curve"/>
      <point x="76" y="-87"/>
      <point x="110" y="-69"/>
      <point x="124" y="-23" type="curve" smooth="yes"/>
      <point x="132" y="4"/>
      <point x="183" y="168"/>
      <point x="231" y="320" type="curve"/>
      <point x="167" y="320" type="line"/>
      <point x="93" y="94"/>
      <point x="71" y="4"/>
    </contour>
    <contour>
      <point x="456" y="-87" type="curve"/>
      <point x="455" y="-78"/>
      <point x="454" y="-67"/>
      <point x="454" y="-51" type="curve" smooth="yes"/>
      <point x="454" y="-2"/>
      <point x="463" y="77"/>
      <point x="487" y="191" type="curve" smooth="yes"/>
      <point x="495" y="231"/>
      <point x="505" y="276"/>
      <point x="517" y="324" type="curve"/>
      <point x="463" y="324" type="line"/>
      <point x="440" y="250"/>
      <point x="421" y="181"/>
      <point x="411" y="142" type="curve" smooth="yes"/>
      <point x="395" y="80"/>
      <point x="387" y="26"/>
      <point x="387" y="-9" type="curve" smooth="yes"/>
      <point x="387" y="-60"/>
      <point x="404" y="-82"/>
    </contour>
    <contour>
      <point x="95" y="287" type="curve"/>
      <point x="177" y="296" type="line"/>
      <point x="215" y="299" type="line"/>
      <point x="283" y="305"/>
      <point x="336" y="306"/>
      <point x="482" y="307" type="curve"/>
      <point x="503" y="308" type="line"/>
      <point x="532" y="308"/>
      <point x="564" y="304"/>
      <point x="598" y="340" type="curve"/>
      <point x="570" y="340"/>
      <point x="540" y="344"/>
      <point x="510" y="344" type="curve"/>
      <point x="483" y="347" type="line"/>
      <point x="429" y="352"/>
      <point x="370" y="357"/>
      <point x="302" y="357" type="curve" smooth="yes"/>
      <point x="276" y="357"/>
      <point x="251" y="355"/>
      <point x="230" y="354" type="curve"/>
      <point x="200" y="352" type="line"/>
      <point x="139" y="343"/>
      <point x="96" y="325"/>
    </contour>
    <contour>
      <point x="116" y="412" type="curve"/>
      <point x="167" y="426"/>
      <point x="229" y="431"/>
      <point x="343" y="431" type="curve" smooth="yes"/>
      <point x="548" y="431"/>
      <point x="633" y="434"/>
      <point x="643" y="472" type="curve"/>
      <point x="571" y="480"/>
      <point x="495" y="483"/>
      <point x="406" y="483" type="curve" smooth="yes"/>
      <point x="241" y="483"/>
      <point x="120" y="463"/>
    </contour>
    <contour>
      <point x="519" y="333" type="line"/>
      <point x="556" y="479"/>
      <point x="602" y="640"/>
      <point x="632" y="720" type="curve"/>
      <point x="603" y="720"/>
      <point x="584" y="683"/>
      <point x="577" y="668" type="curve" smooth="yes"/>
      <point x="557" y="627"/>
      <point x="509" y="477"/>
      <point x="467" y="338" type="curve"/>
    </contour>
  </outline>
</glyph>
<glyph name="hbar" format="2">
  <advance width="477"/>
  <unicode hex="0127"/>
  <outline>
    <contour>
      <point x="47" y="-38" type="curve" smooth="yes"/>
      <point x="104" y="-38"/>
      <point x="141" y="238"/>
      <point x="240" y="238" type="curve" smooth="yes"/>
      <point x="261" y="238"/>
      <point x="278" y="225"/>
      <point x="278" y="190" type="curve" smooth="yes"/>
      <point x="278" y="142"/>
      <point x="247" y="81"/>
      <point x="247" y="39" type="curve" smooth="yes"/>
      <point x="247" y="3"/>
      <point x="270" y="-24"/>
      <point x="316" y="-24" type="curve" smooth="yes"/>
      <point x="393" y="-24"/>
      <point x="466" y="52"/>
      <point x="508" y="150" type="curve"/>
      <point x="495" y="162" type="line"/>
      <point x="455" y="75"/>
      <point x="384" y="2"/>
      <point x="339" y="2" type="curve" smooth="yes"/>
      <point x="322" y="2"/>
      <point x="309" y="13"/>
      <point x="309" y="40" type="curve" smooth="yes"/>
      <point x="309" y="89"/>
      <point x="352" y="146"/>
      <point x="352" y="208" type="curve" smooth="yes"/>
      <point x="352" y="252"/>
      <point x="331" y="298"/>
      <point x="276" y="298" type="curve" smooth="yes"/>
      <point x="187" y="298"/>
      <point x="120" y="176"/>
      <point x="73" y="39" type="curve"/>
      <point x="72" y="48"/>
      <point x="71" y="58"/>
      <point x="71" y="73" type="curve" smooth="yes"/>
      <point x="71" y="273"/>
      <point x="217" y="558"/>
      <point x="337" y="714" type="curve"/>
      <point x="286" y="714"/>
      <point x="239" y="673"/>
      <point x="185" y="582" type="curve" smooth="yes"/>
      <point x="95" y="432"/>
      <point x="6" y="191"/>
      <point x="6" y="66" type="curve" smooth="yes"/>
      <point x="6" y="13"/>
      <point x="22" y="-38"/>
    </contour>
    <contour>
      <point x="54" y="524" type="curve"/>
      <point x="131" y="536"/>
      <point x="180" y="535"/>
      <point x="308" y="535" type="curve" smooth="yes"/>
      <point x="336" y="535"/>
      <point x="378" y="540"/>
      <point x="411" y="564" type="curve"/>
      <point x="378" y="569"/>
      <point x="303" y="574"/>
      <point x="227" y="573" type="curve" smooth="yes"/>
      <point x="121" y="572"/>
      <point x="66" y="558"/>
    </contour>
  </outline>
</glyph>
<glyph name="kgreenlandic" format="2">
  <advance width="396"/>
  <unicode hex="0138"/>
  <outline>
    <contour>
      <point x="247" y="-38" type="curve" smooth="yes"/>
      <point x="326" y="-38"/>
      <point x="395" y="59"/>
      <point x="425" y="153" type="curve"/>
      <point x="415" y="163" type="line"/>
      <point x="373" y="72"/>
      <point x="327" y="0"/>
      <point x="267" y="0" type="curve" smooth="yes"/>
      <point x="194" y="0"/>
      <point x="173" y="67"/>
      <point x="173" y="124" type="curve" smooth="yes"/>
      <point x="173" y="181"/>
      <point x="198" y="232"/>
      <point x="242" y="232" type="curve" smooth="yes"/>
      <point x="265" y="232"/>
      <point x="282" y="220"/>
      <point x="282" y="183" type="curve"/>
      <point x="318" y="185"/>
      <point x="347" y="199"/>
      <point x="347" y="239" type="curve" smooth="yes"/>
      <point x="347" y="266"/>
      <point x="328" y="292"/>
      <point x="282" y="292" type="curve" smooth="yes"/>
      <point x="206" y="292"/>
      <point x="127" y="197"/>
      <point x="74" y="116" type="curve"/>
      <point x="92" y="171"/>
      <point x="106" y="227"/>
      <point x="106" y="248" type="curve" smooth="yes"/>
      <point x="106" y="264"/>
      <point x="97" y="274"/>
      <point x="79" y="274" type="curve" smooth="yes"/>
      <point x="60" y="274"/>
      <point x="41" y="262"/>
      <point x="33" y="253" type="curve"/>
      <point x="32" y="166"/>
      <point x="-38" y="19"/>
      <point x="-38" y="7" type="curve"/>
      <point x="-27" y="-8"/>
      <point x="-6" y="-15"/>
      <point x="15" y="-15" type="curve"/>
      <point x="48" y="41"/>
      <point x="98" y="127"/>
      <point x="151" y="181" type="curve"/>
      <point x="124" y="175" type="line"/>
      <point x="116" y="152"/>
      <point x="113" y="132"/>
      <point x="113" y="107" type="curve" smooth="yes"/>
      <point x="113" y="30"/>
      <point x="157" y="-38"/>
    </contour>
  </outline>
</glyph>
<glyph name="ldot" format="2">
  <advance width="297"/>
  <unicode hex="0140"/>
  <outline>
    <contour>
      <point x="101" y="-30" type="curve" smooth="yes"/>
      <point x="197" y="-30"/>
      <point x="290" y="49"/>
      <point x="364" y="179" type="curve"/>
      <point x="349" y="187" type="line"/>
      <point x="296" y="97"/>
      <point x="211" y="2"/>
      <point x="130" y="2" type="curve" smooth="yes"/>
      <point x="89" y="2"/>
      <point x="68" y="27"/>
      <point x="68" y="79" type="curve" smooth="yes"/>
      <point x="68" y="109"/>
      <point x="73" y="144"/>
      <point x="81" y="180" type="curve"/>
      <point x="227" y="301"/>
      <point x="347" y="557"/>
      <point x="347" y="646" type="curve" smooth="yes"/>
      <point x="347" y="674"/>
      <point x="335" y="720"/>
      <point x="314" y="720" type="curve" smooth="yes"/>
      <point x="246" y="720"/>
      <point x="3" y="265"/>
      <point x="3" y="73" type="curve" smooth="yes"/>
      <point x="3" y="14"/>
      <point x="31" y="-30"/>
    </contour>
    <contour>
      <point x="90" y="214" type="curve"/>
      <point x="145" y="407"/>
      <point x="282" y="639"/>
      <point x="309" y="639" type="curve" smooth="yes"/>
      <point x="312" y="639"/>
      <point x="316" y="636"/>
      <point x="316" y="623" type="curve" smooth="yes"/>
      <point x="316" y="556"/>
      <point x="206" y="331"/>
    </contour>
    <contour>
      <point x="273" y="279" type="curve" smooth="yes"/>
      <point x="299" y="279"/>
      <point x="325" y="303"/>
      <point x="325" y="323" type="curve" smooth="yes"/>
      <point x="325" y="341"/>
      <point x="315" y="347"/>
      <point x="299" y="347" type="curve" smooth="yes"/>
      <point x="273" y="347"/>
      <point x="241" y="328"/>
      <point x="241" y="306" type="curve" smooth="yes"/>
      <point x="241" y="287"/>
      <point x="256" y="279"/>
    </contour>
  </outline>
</glyph>
<glyph name="Lslash" format="2">
  <advance width="571"/>
  <unicode hex="0141"/>
  <outline>
    <contour>
      <point x="397" y="-87" type="curve" smooth="yes"/>
      <point x="445" y="-87"/>
      <point x="480" y="-64"/>
      <point x="502" y="-2" type="curve"/>
      <point x="481" y="-13"/>
      <point x="459" y="-18"/>
      <point x="431" y="-18" type="curve" smooth="yes"/>
      <point x="357" y="-18"/>
      <point x="258" y="16"/>
      <point x="166" y="44" type="curve"/>
      <point x="211" y="112"/>
      <point x="244" y="191"/>
      <point x="314" y="400" type="curve" smooth="yes"/>
      <point x="366" y="557"/>
      <point x="428" y="668"/>
      <point x="469" y="720" type="curve"/>
      <point x="367" y="720"/>
      <point x="299" y="562"/>
      <point x="244" y="395" type="curve" smooth="yes"/>
      <point x="200" y="264"/>
      <point x="163" y="128"/>
      <point x="122" y="57" type="curve"/>
      <point x="77" y="69"/>
      <point x="34" y="78"/>
      <point x="-1" y="78" type="curve" smooth="yes"/>
      <point x="-55" y="78"/>
      <point x="-74" y="58"/>
      <point x="-74" y="34" type="curve" smooth="yes"/>
      <point x="-74" y="1"/>
      <point x="-39" y="-53"/>
      <point x="26" y="-53" type="curve" smooth="yes"/>
      <point x="68" y="-53"/>
      <point x="104" y="-31"/>
      <point x="137" y="6" type="curve"/>
      <point x="227" y="-34"/>
      <point x="324" y="-87"/>
    </contour>
    <contour>
      <point x="22" y="-24" type="curve" smooth="yes"/>
      <point x="-19" y="-24"/>
      <point x="-48" y="10"/>
      <point x="-48" y="33" type="curve" smooth="yes"/>
      <point x="-48" y="45"/>
      <point x="-40" y="52"/>
      <point x="-15" y="52" type="curve" smooth="yes"/>
      <point x="17" y="52"/>
      <point x="57" y="39"/>
      <point x="99" y="22" type="curve"/>
      <point x="77" y="-7"/>
      <point x="51" y="-24"/>
    </contour>
    <contour>
      <point x="112" y="337" type="curve"/>
      <point x="204" y="356"/>
      <point x="245" y="360"/>
      <point x="347" y="369" type="curve" smooth="yes"/>
      <point x="468" y="380"/>
      <point x="499" y="379"/>
      <point x="499" y="415" type="curve"/>
      <point x="484" y="417"/>
      <point x="450" y="419"/>
      <point x="423" y="419" type="curve" smooth="yes"/>
      <point x="249" y="419"/>
      <point x="125" y="397"/>
    </contour>
  </outline>
</glyph>
<glyph name="eng" format="2">
  <advance width="456"/>
  <unicode hex="014B"/>
  <outline>
    <contour>
      <point x="36" y="-207" type="curve" smooth="yes"/>
      <point x="224" y="-207"/>
      <point x="356" y="6"/>
      <point x="356" y="192" type="curve" smooth="yes"/>
      <point x="356" y="243"/>
      <point x="334" y="292"/>
      <point x="282" y="292" type="curve" smooth="yes"/>
      <point x="206" y="292"/>
      <point x="127" y="197"/>
      <point x="74" y="116" type="curve"/>
      <point x="92" y="171"/>
      <point x="106" y="227"/>
      <point x="106" y="248" type="curve" smooth="yes"/>
      <point x="106" y="264"/>
      <point x="97" y="274"/>
      <point x="79" y="274" type="curve" smooth="yes"/>
      <point x="60" y="274"/>
      <point x="41" y="262"/>
      <point x="33" y="253" type="curve"/>
      <point x="32" y="166"/>
      <point x="-38" y="19"/>
      <point x="-38" y="7" type="curve"/>
      <point x="-27" y="-8"/>
      <point x="-6" y="-15"/>
      <point x="15" y="-15" type="curve"/>
      <point x="67" y="73"/>
      <point x="159" y="232"/>
      <point x="242" y="232" type="curve" smooth="yes"/>
      <point x="265" y="232"/>
      <point x="282" y="217"/>
      <point x="282" y="172" type="curve" smooth="yes"/>
      <point x="282" y="-6"/>
      <point x="166" y="-185"/>
      <point x="12" y="-185" type="curve" smooth="yes"/>
      <point x="-3" y="-185"/>
      <point x="-10" y="-186"/>
      <point x="-10" y="-192" type="curve" smooth="yes"/>
      <point x="-10" y="-200"/>
      <point x="11" y="-207"/>
    </contour>
  </outline>
</glyph>
<glyph name="Tbar" format="2">
  <advance width="491"/>
  <unicode hex="0166"/>
  <outline>
    <contour>
      <point x="59" y="362" type="curve"/>
      <point x="101" y="375"/>
      <point x="152" y="381"/>
      <point x="246" y="381" type="curve" smooth="yes"/>
      <point x="424" y="381"/>
      <point x="496" y="384"/>
      <point x="506" y="422" type="curve"/>
      <point x="446" y="430"/>
      <point x="383" y="433"/>
      <point x="309" y="433" type="curve" smooth="yes"/>
      <point x="167" y="433"/>
      <point x="63" y="413"/>
    </contour>
    <component base="T"/>
  </outline>
</glyph>
<glyph name="florin" format="2">
  <advance width="393"/>
  <unicode hex="0192"/>
  <outline>
    <contour>
      <point x="-114" y="-225" type="curve" smooth="yes"/>
      <point x="13" y="-225"/>
      <point x="52" y="-102"/>
      <point x="142" y="280" type="curve"/>
      <point x="215.0" y="280.0"/>
      <point x="246" y="279"/>
      <point x="270" y="279" type="curve" smooth="yes"/>
      <point x="298" y="279"/>
      <point x="320" y="295"/>
      <point x="340" y="324" type="curve"/>
      <point x="333" y="322"/>
      <point x="328" y="321"/>
      <point x="312" y="321" type="curve" smooth="yes"/>
      <point x="272" y="321"/>
      <point x="239" y="327"/>
      <point x="183" y="329" type="curve"/>
      <point x="296" y="420"/>
      <point x="394" y="572"/>
      <point x="394" y="675" type="curve" smooth="yes"/>
      <point x="394" y="714"/>
      <point x="379" y="720"/>
      <point x="356" y="720" type="curve" smooth="yes"/>
      <point x="225" y="720"/>
      <point x="158" y="532"/>
      <point x="106" y="326" type="curve"/>
      <point x="67" y="322"/>
      <point x="33" y="308"/>
      <point x="32" y="270" type="curve"/>
      <point x="47" y="273"/>
      <point x="70" y="275"/>
      <point x="94" y="277" type="curve"/>
      <point x="36" y="42"/>
      <point x="-8" y="-197"/>
      <point x="-115" y="-197" type="curve" smooth="yes"/>
      <point x="-149" y="-197"/>
      <point x="-187" y="-159"/>
      <point x="-187" y="-103" type="curve" smooth="yes"/>
      <point x="-187" y="-89"/>
      <point x="-185" y="-70"/>
      <point x="-179" y="-50" type="curve"/>
      <point x="-220" y="-64"/>
      <point x="-239" y="-91"/>
      <point x="-239" y="-126" type="curve" smooth="yes"/>
      <point x="-239" y="-186"/>
      <point x="-185" y="-225"/>
    </contour>
    <contour>
      <point x="163" y="347" type="curve"/>
      <point x="213" y="535"/>
      <point x="275" y="653"/>
      <point x="327" y="653" type="curve" smooth="yes"/>
      <point x="342" y="653"/>
      <point x="348" y="643"/>
      <point x="348" y="627" type="curve" smooth="yes"/>
      <point x="348" y="570"/>
      <point x="263" y="431"/>
    </contour>
  </outline>
</glyph>
<glyph name="jdotless" format="2">
  <advance width="219"/>
  <unicode hex="0237"/>
  <outline>
    <contour>
      <point x="-140" y="-280" type="curve" smooth="yes"/>
      <point x="-59" y="-280"/>
      <point x="8" y="-160"/>
      <point x="53" y="-36" type="curve"/>
      <point x="114" y="0"/>
      <point x="200" y="31"/>
      <point x="250" y="150" type="curve"/>
      <point x="237" y="157" type="line"/>
      <point x="180" y="52"/>
      <point x="120" y="26"/>
      <point x="63" y="-8" type="curve"/>
      <point x="112" y="136"/>
      <point x="143" y="287"/>
      <point x="143" y="317" type="curve" smooth="yes"/>
      <point x="143" y="334"/>
      <point x="134" y="347"/>
      <point x="119" y="347" type="curve" smooth="yes"/>
      <point x="78" y="347"/>
      <point x="54" y="223"/>
      <point x="9" y="141" type="curve"/>
      <point x="18" y="126" type="line"/>
      <point x="27" y="142"/>
      <point x="45" y="169"/>
      <point x="65" y="205" type="curve"/>
      <point x="48" y="105"/>
      <point x="24" y="23"/>
      <point x="-2" y="-41" type="curve"/>
      <point x="-28" y="-54"/>
      <point x="-47" y="-62"/>
      <point x="-66" y="-73" type="curve" smooth="yes"/>
      <point x="-140" y="-114"/>
      <point x="-192" y="-180"/>
      <point x="-192" y="-229" type="curve" smooth="yes"/>
      <point x="-192" y="-258"/>
      <point x="-174" y="-280"/>
    </contour>
    <contour>
      <point x="-149" y="-246" type="curve" smooth="yes"/>
      <point x="-158" y="-246"/>
      <point x="-166" y="-240"/>
      <point x="-166" y="-222" type="curve" smooth="yes"/>
      <point x="-166" y="-180"/>
      <point x="-116" y="-123"/>
      <point x="-15" y="-73" type="curve"/>
      <point x="-67" y="-188"/>
      <point x="-123" y="-246"/>
    </contour>
  </outline>
</glyph>
<glyph name="commaturnedabovecomb" format="2">
  <unicode hex="0312"/>
  <outline>
    <contour>
      <point x="25" y="386" type="curve" smooth="yes"/>
      <point x="32" y="386"/>
      <point x="37" y="388"/>
      <point x="41" y="391" type="curve"/>
      <point x="54" y="429"/>
      <point x="77" y="476"/>
      <point x="103" y="511" type="curve"/>
      <point x="99" y="514"/>
      <point x="95" y="515"/>
      <point x="89" y="515" type="curve" smooth="yes"/>
      <point x="52" y="515"/>
      <point x="0" y="449"/>
      <point x="0" y="412" type="curve" smooth="yes"/>
      <point x="0" y="395"/>
      <point x="13" y="386"/>
    </contour>
  </outline>
</glyph>
<glyph name="endash" format="2">
  <advance width="677"/>
  <unicode hex="2013"/>
  <outline>
    <contour>
      <point x="25" y="114" type="curve"/>
      <point x="95" y="125"/>
      <point x="129" y="129"/>
      <point x="191" y="131" type="curve" smooth="yes"/>
      <point x="248" y="132"/>
      <point x="329" y="132"/>
      <point x="483" y="133" type="curve" smooth="yes"/>
      <point x="518" y="133"/>
      <point x="570" y="140"/>
      <point x="614" y="178" type="curve"/>
      <point x="502" y="179"/>
      <point x="465" y="196"/>
      <point x="307" y="196" type="curve" smooth="yes"/>
      <point x="148" y="196"/>
      <point x="31" y="181"/>
    </contour>
  </outline>
</glyph>
<glyph name="emdash" format="2">
  <advance width="838"/>
  <unicode hex="2014"/>
  <outline>
    <contour>
      <point x="35" y="114" type="curve"/>
      <point x="129" y="126"/>
      <point x="171" y="130"/>
      <point x="261" y="131" type="curve" smooth="yes"/>
      <point x="332" y="132"/>
      <point x="431" y="132"/>
      <point x="608" y="133" type="curve" smooth="yes"/>
      <point x="651" y="133"/>
      <point x="716" y="140"/>
      <point x="771" y="178" type="curve"/>
      <point x="631" y="179"/>
      <point x="585" y="196"/>
      <point x="387" y="196" type="curve" smooth="yes"/>
      <point x="189" y="196"/>
      <point x="42" y="181"/>
    </contour>
  </outline>
</glyph>
<glyph name="quoteleft" format="2">
  <advance width="144"/>
  <unicode hex="2018"/>
  <outline>
    <contour>
      <point x="195" y="576" type="curve"/>
      <point x="205" y="582"/>
      <point x="214" y="592"/>
      <point x="214" y="604" type="curve" smooth="yes"/>
      <point x="214" y="627"/>
      <point x="160.41176470588235" y="683.5294117647059"/>
      <point x="151" y="720" type="curve"/>
      <point x="138" y="720"/>
      <point x="126" y="707"/>
      <point x="126" y="692" type="curve" smooth="yes"/>
      <point x="126" y="666"/>
      <point x="171" y="613"/>
    </contour>
  </outline>
</glyph>
<glyph name="quotedblright" format="2">
  <advance width="235"/>
  <unicode hex="201D"/>
  <outline>
    <contour>
      <point x="253" y="576" type="curve"/>
      <point x="277" y="613"/>
      <point x="322" y="666"/>
      <point x="322" y="692" type="curve" smooth="yes"/>
      <point x="322" y="707"/>
      <point x="310" y="720"/>
      <point x="297" y="720" type="curve"/>
      <point x="287.5882352941176" y="683.5294117647059"/>
      <point x="234.0" y="629.0"/>
      <point x="234" y="604" type="curve" smooth="yes"/>
      <point x="234" y="592"/>
      <point x="243" y="582"/>
    </contour>
    <contour>
      <point x="143" y="576" type="curve"/>
      <point x="167" y="613"/>
      <point x="212" y="666"/>
      <point x="212" y="692" type="curve" smooth="yes"/>
      <point x="212" y="707"/>
      <point x="200" y="720"/>
      <point x="187" y="720" type="curve"/>
      <point x="177.58823529411765" y="683.5294117647059"/>
      <point x="124.0" y="629.0"/>
      <point x="124" y="604" type="curve" smooth="yes"/>
      <point x="124" y="592"/>
      <point x="133" y="582"/>
    </contour>
  </outline>
</glyph>
<glyph name="dagger" format="2">
  <advance width="381"/>
  <unicode hex="2020"/>
  <outline>
    <contour>
      <point x="71" y="-27" type="curve"/>
      <point x="107" y="32"/>
      <point x="183" y="187"/>
      <point x="244" y="325" type="curve"/>
      <point x="267" y="326"/>
      <point x="290" y="326"/>
      <point x="315" y="326" type="curve" smooth="yes"/>
      <point x="333" y="326"/>
      <point x="353" y="327"/>
      <point x="375" y="358" type="curve"/>
      <point x="343" y="358"/>
      <point x="305" y="364"/>
      <point x="263" y="368" type="curve"/>
      <point x="305" y="464"/>
      <point x="336" y="545"/>
      <point x="336" y="567" type="curve" smooth="yes"/>
      <point x="336" y="580"/>
      <point x="327" y="590"/>
      <point x="318" y="590" type="curve" smooth="yes"/>
      <point x="286" y="590"/>
      <point x="240" y="494"/>
      <point x="195" y="374" type="curve"/>
      <point x="182" y="374"/>
      <point x="170" y="375"/>
      <point x="157" y="375" type="curve" smooth="yes"/>
      <point x="137" y="375"/>
      <point x="75" y="364"/>
      <point x="72" y="308" type="curve"/>
      <point x="110" y="315"/>
      <point x="143" y="319"/>
      <point x="175" y="322" type="curve"/>
      <point x="135.02088448787146" y="210.4793093609046"/>
      <point x="71.0" y="64.47180411265433"/>
    </contour>
  </outline>
</glyph>
<glyph name="fraction" format="2">
  <advance width="274"/>
  <unicode hex="2044"/>
  <outline>
    <contour>
      <point x="-120" y="-87" type="curve"/>
      <point x="-63" y="-87"/>
      <point x="-4" y="-13"/>
      <point x="65" y="97" type="curve" smooth="yes"/>
      <point x="151" y="235"/>
      <point x="372" y="663"/>
      <point x="394" y="720" type="curve"/>
      <point x="362" y="720"/>
      <point x="317" y="694"/>
      <point x="310" y="675" type="curve" smooth="yes"/>
      <point x="239" y="491"/>
      <point x="-27" y="6"/>
    </contour>
  </outline>
</glyph>
<glyph name="foursuperior" format="2">
  <advance width="269"/>
  <unicode hex="2074"/>
  <outline>
    <contour>
      <point x="228" y="314" type="curve"/>
      <point x="228" y="355"/>
      <point x="245" y="454"/>
      <point x="249" y="474" type="curve"/>
      <point x="274.0" y="473.0"/>
      <point x="292" y="488"/>
      <point x="307" y="509" type="curve"/>
      <point x="292" y="506"/>
      <point x="282" y="504"/>
      <point x="271" y="504" type="curve" smooth="yes"/>
      <point x="254" y="504" type="line"/>
      <point x="281" y="643"/>
      <point x="300" y="694"/>
      <point x="300" y="703" type="curve" smooth="yes"/>
      <point x="300" y="712"/>
      <point x="295" y="716"/>
      <point x="287" y="717" type="curve"/>
      <point x="243" y="637"/>
      <point x="139" y="545"/>
      <point x="78" y="491" type="curve"/>
      <point x="73" y="486"/>
      <point x="68" y="478"/>
      <point x="68" y="466" type="curve"/>
      <point x="95" y="472"/>
      <point x="126" y="475"/>
      <point x="169" y="475" type="curve" smooth="yes"/>
      <point x="192.0" y="475.0"/>
      <point x="198" y="474"/>
      <point x="205" y="474" type="curve"/>
      <point x="183" y="373"/>
      <point x="180" y="344"/>
      <point x="180" y="340" type="curve" smooth="yes"/>
      <point x="180" y="324"/>
      <point x="199" y="316"/>
    </contour>
    <contour>
      <point x="123" y="505" type="curve"/>
      <point x="145" y="529"/>
      <point x="173" y="554"/>
      <point x="196" y="576" type="curve" smooth="yes"/>
      <point x="240" y="619" type="line"/>
      <point x="231" y="591"/>
      <point x="225.374093592957" y="562.9208305276022"/>
      <point x="213" y="506" type="curve"/>
      <point x="175" y="506"/>
      <point x="142.05882352941177" y="506.5882352941176"/>
    </contour>
  </outline>
</glyph>
<glyph name="colonsign" format="2">
  <advance width="600"/>
  <unicode hex="20A1"/>
  <outline>
    <contour>
      <point x="219" y="-56" type="curve" smooth="yes"/>
      <point x="353" y="-56"/>
      <point x="462" y="39"/>
      <point x="529" y="155" type="curve"/>
      <point x="515" y="164" type="line"/>
      <point x="462" y="63"/>
      <point x="349" y="-26"/>
      <point x="243" y="-26" type="curve" smooth="yes"/>
      <point x="142" y="-26"/>
      <point x="102" y="57"/>
      <point x="102" y="144" type="curve" smooth="yes"/>
      <point x="102" y="342"/>
      <point x="292" y="627"/>
      <point x="436" y="627" type="curve" smooth="yes"/>
      <point x="466" y="627"/>
      <point x="479" y="611"/>
      <point x="479" y="588" type="curve" smooth="yes"/>
      <point x="479" y="520"/>
      <point x="422" y="458"/>
      <point x="422" y="408" type="curve" smooth="yes"/>
      <point x="422" y="385"/>
      <point x="438" y="371"/>
      <point x="458" y="371" type="curve"/>
      <point x="481" y="405"/>
      <point x="525" y="502"/>
      <point x="525" y="578" type="curve" smooth="yes"/>
      <point x="525" y="633"/>
      <point x="487" y="654"/>
      <point x="433" y="654" type="curve" smooth="yes"/>
      <point x="243" y="654"/>
      <point x="22" y="391"/>
      <point x="22" y="159" type="curve" smooth="yes"/>
      <point x="22" y="52"/>
      <point x="77" y="-56"/>
    </contour>
    <contour>
      <point x="68" y="-162" type="curve"/>
      <point x="166" y="-162"/>
      <point x="192" y="16"/>
      <point x="250" y="303" type="curve" smooth="yes"/>
      <point x="278" y="442"/>
      <point x="303" y="581"/>
      <point x="329" y="720" type="curve"/>
      <point x="293" y="710"/>
      <point x="288" y="695"/>
      <point x="275" y="632" type="curve" smooth="yes"/>
      <point x="259" y="555"/>
      <point x="237" y="438"/>
      <point x="212" y="321" type="curve" smooth="yes"/>
      <point x="173" y="138"/>
      <point x="119" y="-98"/>
    </contour>
    <contour>
      <point x="181" y="-162" type="curve"/>
      <point x="279" y="-162"/>
      <point x="305" y="16"/>
      <point x="363" y="303" type="curve" smooth="yes"/>
      <point x="391" y="442"/>
      <point x="416" y="581"/>
      <point x="442" y="720" type="curve"/>
      <point x="406" y="710"/>
      <point x="401" y="695"/>
      <point x="388" y="632" type="curve" smooth="yes"/>
      <point x="372" y="555"/>
      <point x="350" y="438"/>
      <point x="325" y="321" type="curve" smooth="yes"/>
      <point x="286" y="138"/>
      <point x="232" y="-98"/>
    </contour>
  </outline>
</glyph>
<glyph name="lira" format="2">
  <advance width="651"/>
  <unicode hex="20A4"/>
  <outline>
    <contour>
      <point x="450" y="-87" type="curve" smooth="yes"/>
      <point x="498" y="-87"/>
      <point x="533" y="-64"/>
      <point x="555" y="-2" type="curve"/>
      <point x="534" y="-13"/>
      <point x="512" y="-18"/>
      <point x="484" y="-18" type="curve" smooth="yes"/>
      <point x="410" y="-18"/>
      <point x="311" y="16"/>
      <point x="219" y="44" type="curve"/>
      <point x="243" y="80"/>
      <point x="264" y="125"/>
      <point x="285" y="173" type="curve"/>
      <point x="434" y="176"/>
      <point x="454" y="177"/>
      <point x="476" y="208" type="curve"/>
      <point x="429" y="209"/>
      <point x="370" y="219"/>
      <point x="305" y="223" type="curve"/>
      <point x="324" y="274" type="line"/>
      <point x="454" y="276"/>
      <point x="474" y="277"/>
      <point x="496" y="308" type="curve"/>
      <point x="453" y="308"/>
      <point x="400" y="318"/>
      <point x="341" y="322" type="curve"/>
      <point x="348" y="345"/>
      <point x="355" y="366"/>
      <point x="363" y="388" type="curve"/>
      <point x="550" y="388"/>
      <point x="619" y="526"/>
      <point x="619" y="618" type="curve" smooth="yes"/>
      <point x="619" y="698"/>
      <point x="562" y="720"/>
      <point x="522" y="720" type="curve" smooth="yes"/>
      <point x="421" y="720"/>
      <point x="359" y="580"/>
      <point x="307" y="421" type="curve"/>
      <point x="274" y="439"/>
      <point x="250" y="473"/>
      <point x="250" y="524" type="curve" smooth="yes"/>
      <point x="250" y="542"/>
      <point x="253" y="572"/>
      <point x="263" y="586" type="curve"/>
      <point x="225" y="586"/>
      <point x="201" y="542"/>
      <point x="201" y="507" type="curve" smooth="yes"/>
      <point x="201" y="462"/>
      <point x="238" y="420"/>
      <point x="300" y="400" type="curve"/>
      <point x="276" y="325" type="line"/>
      <point x="197" y="325"/>
      <point x="132" y="310"/>
      <point x="129" y="255" type="curve"/>
      <point x="200.91969767329653" y="265.57642612842596"/>
      <point x="231" y="270"/>
      <point x="259" y="271" type="curve"/>
      <point x="244" y="225" type="line"/>
      <point x="171" y="223"/>
      <point x="112" y="208"/>
      <point x="109" y="155" type="curve"/>
      <point x="175.04363029008502" y="164.71229857207132"/>
      <point x="200" y="167"/>
      <point x="225" y="170" type="curve"/>
      <point x="210" y="127"/>
      <point x="193" y="88"/>
      <point x="175" y="57" type="curve"/>
      <point x="130" y="69"/>
      <point x="87" y="78"/>
      <point x="52" y="78" type="curve" smooth="yes"/>
      <point x="-2" y="78"/>
      <point x="-21" y="58"/>
      <point x="-21" y="34" type="curve" smooth="yes"/>
      <point x="-21" y="1"/>
      <point x="14" y="-53"/>
      <point x="79" y="-53" type="curve" smooth="yes"/>
      <point x="121" y="-53"/>
      <point x="157" y="-31"/>
      <point x="190" y="6" type="curve"/>
      <point x="280" y="-34"/>
      <point x="377" y="-87"/>
    </contour>
    <contour>
      <point x="75" y="-24" type="curve" smooth="yes"/>
      <point x="34" y="-24"/>
      <point x="5" y="10"/>
      <point x="5" y="33" type="curve" smooth="yes"/>
      <point x="5" y="45"/>
      <point x="13" y="52"/>
      <point x="38" y="52" type="curve" smooth="yes"/>
      <point x="70" y="52"/>
      <point x="110" y="39"/>
      <point x="152" y="22" type="curve"/>
      <point x="130" y="-7"/>
      <point x="104" y="-24"/>
    </contour>
    <contour>
      <point x="369" y="407" type="curve"/>
      <point x="420" y="561"/>
      <point x="467" y="695"/>
      <point x="529" y="695" type="curve" smooth="yes"/>
      <point x="548" y="695"/>
      <point x="565" y="683"/>
      <point x="565" y="645" type="curve" smooth="yes"/>
      <point x="565" y="566"/>
      <point x="490" y="408"/>
    </contour>
  </outline>
</glyph>
<glyph name="naira" format="2">
  <advance width="641"/>
  <unicode hex="20A6"/>
  <outline>
    <contour>
      <point x="110" y="358" type="curve"/>
      <point x="163" y="372"/>
      <point x="226" y="377"/>
      <point x="344" y="377" type="curve" smooth="yes"/>
      <point x="554" y="377"/>
      <point x="641" y="380"/>
      <point x="651" y="418" type="curve"/>
      <point x="577" y="426"/>
      <point x="499" y="429"/>
      <point x="407" y="429" type="curve" smooth="yes"/>
      <point x="238" y="429"/>
      <point x="114" y="409"/>
    </contour>
    <contour>
      <point x="82" y="228" type="curve"/>
      <point x="135" y="242"/>
      <point x="198" y="247"/>
      <point x="316" y="247" type="curve" smooth="yes"/>
      <point x="526" y="247"/>
      <point x="613" y="250"/>
      <point x="623" y="288" type="curve"/>
      <point x="549" y="296"/>
      <point x="471" y="299"/>
      <point x="379" y="299" type="curve" smooth="yes"/>
      <point x="210" y="299"/>
      <point x="86" y="279"/>
    </contour>
    <component base="N" yScale="0.88" yOffset="20"/>
  </outline>
</glyph>
<glyph name="won" format="2">
  <advance width="1069"/>
  <unicode hex="20A9"/>
  <outline>
    <contour>
      <point x="55" y="234" type="curve"/>
      <point x="164" y="246"/>
      <point x="250" y="252"/>
      <point x="351" y="252" type="curve" smooth="yes"/>
      <point x="436" y="252"/>
      <point x="664" y="250"/>
      <point x="807" y="250" type="curve" smooth="yes"/>
      <point x="882" y="250"/>
      <point x="979" y="251"/>
      <point x="1004" y="298" type="curve"/>
      <point x="858" y="298"/>
      <point x="684" y="303"/>
      <point x="467" y="303" type="curve" smooth="yes"/>
      <point x="235" y="303"/>
      <point x="63" y="290"/>
    </contour>
    <contour>
      <point x="99" y="390" type="curve"/>
      <point x="204" y="405"/>
      <point x="287" y="412"/>
      <point x="385" y="412" type="curve" smooth="yes"/>
      <point x="472" y="412"/>
      <point x="705" y="406"/>
      <point x="851" y="406" type="curve" smooth="yes"/>
      <point x="926" y="406"/>
      <point x="1023" y="407"/>
      <point x="1048" y="454" type="curve"/>
      <point x="902" y="454"/>
      <point x="728" y="459"/>
      <point x="511" y="459" type="curve" smooth="yes"/>
      <point x="279" y="459"/>
      <point x="107" y="446"/>
    </contour>
    <component base="W" yScale="0.9" yOffset="22"/>
  </outline>
</glyph>
<glyph name="kip" format="2">
  <advance width="591"/>
  <unicode hex="20AD"/>
  <outline>
    <contour>
      <point x="61" y="255" type="curve"/>
      <point x="103" y="268"/>
      <point x="154" y="274"/>
      <point x="248" y="274" type="curve" smooth="yes"/>
      <point x="426" y="274"/>
      <point x="498" y="277"/>
      <point x="508" y="315" type="curve"/>
      <point x="448" y="323"/>
      <point x="385" y="326"/>
      <point x="311" y="326" type="curve" smooth="yes"/>
      <point x="169" y="326"/>
      <point x="65" y="306"/>
    </contour>
    <component base="K" yScale="0.9" yOffset="7"/>
  </outline>
</glyph>
<glyph name="guarani" format="2">
  <advance width="555"/>
  <unicode hex="20B2"/>
  <outline>
    <contour>
      <point x="445" y="-55" type="curve"/>
      <point x="444" y="-31"/>
      <point x="441" y="-10.68"/>
      <point x="441" y="13.08" type="curve" smooth="yes"/>
      <point x="441" y="55.32"/>
      <point x="487" y="200"/>
      <point x="509" y="255.96" type="curve"/>
      <point x="480" y="272"/>
      <point x="436" y="293"/>
      <point x="400" y="293" type="curve" smooth="yes"/>
      <point x="369" y="293"/>
      <point x="344" y="280"/>
      <point x="339" y="246" type="curve"/>
      <point x="352" y="247"/>
      <point x="368" y="248"/>
      <point x="381" y="248" type="curve" smooth="yes"/>
      <point x="401" y="248"/>
      <point x="420" y="246"/>
      <point x="436" y="241" type="curve"/>
      <point x="426" y="125.72"/>
      <point x="341" y="-25.64"/>
      <point x="236" y="-25.64" type="curve" smooth="yes"/>
      <point x="159" y="-25.64"/>
      <point x="102" y="38.6"/>
      <point x="102" y="145.08" type="curve" smooth="yes"/>
      <point x="102" y="340.44"/>
      <point x="292" y="627.32"/>
      <point x="436" y="627.32" type="curve" smooth="yes"/>
      <point x="480" y="627.32"/>
      <point x="496" y="607.08"/>
      <point x="496" y="580.68" type="curve" smooth="yes"/>
      <point x="496" y="533.16"/>
      <point x="446" y="463.64"/>
      <point x="418" y="446.04" type="curve"/>
      <point x="426" y="431.08"/>
      <point x="438" y="425.8"/>
      <point x="449" y="425.8" type="curve" smooth="yes"/>
      <point x="497" y="425.8"/>
      <point x="537" y="492.68"/>
      <point x="537" y="554.28" type="curve" smooth="yes"/>
      <point x="537" y="606.2"/>
      <point x="509" y="653.72"/>
      <point x="433" y="653.72" type="curve" smooth="yes"/>
      <point x="243" y="653.72"/>
      <point x="22" y="388.84"/>
      <point x="22" y="162.68" type="curve" smooth="yes"/>
      <point x="22" y="24.52"/>
      <point x="104" y="-55.56"/>
      <point x="209" y="-55.56" type="curve" smooth="yes"/>
      <point x="288" y="-55.56"/>
      <point x="350" y="-10.68"/>
      <point x="398" y="48.28" type="curve"/>
      <point x="393" y="33.32"/>
      <point x="391" y="20.12"/>
      <point x="391" y="7.8" type="curve" smooth="yes"/>
      <point x="391" y="-23.88"/>
      <point x="412" y="-43"/>
    </contour>
    <contour>
      <point x="125" y="-162" type="curve"/>
      <point x="223" y="-162"/>
      <point x="249" y="16"/>
      <point x="307" y="303" type="curve" smooth="yes"/>
      <point x="335" y="442"/>
      <point x="360" y="581"/>
      <point x="386" y="720" type="curve"/>
      <point x="350" y="710"/>
      <point x="345" y="695"/>
      <point x="332" y="632" type="curve" smooth="yes"/>
      <point x="316" y="555"/>
      <point x="294" y="438"/>
      <point x="269" y="321" type="curve" smooth="yes"/>
      <point x="230" y="138"/>
      <point x="176" y="-98"/>
    </contour>
  </outline>
</glyph>
<glyph name="liraTurkish" format="2">
  <advance width="614"/>
  <unicode hex="20BA"/>
  <outline>
    <contour>
      <point x="171" y="-56" type="curve" smooth="yes"/>
      <point x="233" y="-56"/>
      <point x="292" y="-45"/>
      <point x="349" y="-14" type="curve" smooth="yes"/>
      <point x="420" y="25"/>
      <point x="493" y="97"/>
      <point x="493" y="141" type="curve" smooth="yes"/>
      <point x="493" y="165"/>
      <point x="480" y="175"/>
      <point x="453" y="175" type="curve"/>
      <point x="385" y="54"/>
      <point x="271" y="-30"/>
      <point x="162" y="-30" type="curve" smooth="yes"/>
      <point x="149" y="-30"/>
      <point x="137" y="-29"/>
      <point x="119" y="-26" type="curve"/>
      <point x="161" y="167"/>
      <point x="252" y="462"/>
      <point x="335" y="653" type="curve"/>
      <point x="325" y="660"/>
      <point x="316" y="663"/>
      <point x="307" y="663" type="curve" smooth="yes"/>
      <point x="267" y="663"/>
      <point x="237" y="590"/>
      <point x="229" y="569" type="curve" smooth="yes"/>
      <point x="200" y="492"/>
      <point x="96" y="179"/>
      <point x="56" y="-11" type="curve"/>
      <point x="74" y="-39"/>
      <point x="116" y="-56"/>
    </contour>
    <contour>
      <point x="6" y="177" type="curve"/>
      <point x="52" y="205"/>
      <point x="111" y="227"/>
      <point x="224" y="261" type="curve" smooth="yes"/>
      <point x="405" y="316"/>
      <point x="493" y="355"/>
      <point x="504" y="397" type="curve"/>
      <point x="431" y="382"/>
      <point x="356" y="362"/>
      <point x="268" y="334" type="curve" smooth="yes"/>
      <point x="107" y="283"/>
      <point x="6" y="238"/>
    </contour>
    <contour>
      <point x="36" y="307" type="curve"/>
      <point x="82" y="337"/>
      <point x="141" y="360"/>
      <point x="254" y="396" type="curve" smooth="yes"/>
      <point x="454" y="460"/>
      <point x="516" y="479"/>
      <point x="534" y="527" type="curve"/>
      <point x="461" y="512"/>
      <point x="386" y="492"/>
      <point x="298" y="464" type="curve" smooth="yes"/>
      <point x="137" y="413"/>
      <point x="66" y="385"/>
    </contour>
  </outline>
</glyph>
<glyph name="ruble" format="2">
  <advance width="600"/>
  <unicode hex="20BD"/>
  <outline>
    <contour>
      <point x="87" y="-56" type="curve"/>
      <point x="192" y="268"/>
      <point x="253" y="490"/>
      <point x="338" y="636" type="curve"/>
      <point x="432" y="635"/>
      <point x="519" y="595"/>
      <point x="519" y="499" type="curve" smooth="yes"/>
      <point x="519" y="359"/>
      <point x="368" y="289"/>
      <point x="217" y="289" type="curve"/>
      <point x="161" y="289"/>
      <point x="93" y="303"/>
      <point x="32" y="319" type="curve"/>
      <point x="32" y="269"/>
      <point x="68" y="254"/>
      <point x="217" y="254" type="curve" smooth="yes"/>
      <point x="381" y="254"/>
      <point x="586" y="305"/>
      <point x="586" y="475" type="curve" smooth="yes"/>
      <point x="586" y="594"/>
      <point x="447" y="655"/>
      <point x="329" y="655" type="curve" smooth="yes"/>
      <point x="245" y="655"/>
      <point x="159" y="626"/>
      <point x="108" y="606" type="curve"/>
      <point x="108" y="597"/>
      <point x="131" y="582"/>
      <point x="139" y="582" type="curve" smooth="yes"/>
      <point x="150" y="582"/>
      <point x="201" y="618"/>
      <point x="278" y="631" type="curve"/>
      <point x="175" y="426"/>
      <point x="123" y="264"/>
      <point x="32" y="37" type="curve" smooth="yes"/>
      <point x="26" y="22"/>
      <point x="18" y="2"/>
      <point x="18" y="-12" type="curve" smooth="yes"/>
      <point x="18" y="-37"/>
      <point x="53" y="-56"/>
    </contour>
    <contour>
      <point x="-47" y="111" type="curve"/>
      <point x="-4" y="121"/>
      <point x="45" y="124"/>
      <point x="140" y="124" type="curve" smooth="yes"/>
      <point x="314" y="124"/>
      <point x="386" y="127"/>
      <point x="394" y="162" type="curve"/>
      <point x="330" y="171"/>
      <point x="263" y="176"/>
      <point x="183" y="176" type="curve" smooth="yes"/>
      <point x="52" y="176"/>
      <point x="-43" y="158"/>
    </contour>
  </outline>
</glyph>
<glyph name="emptyset" format="2">
  <advance width="398"/>
  <unicode hex="2205"/>
  <outline>
    <contour>
      <point x="23" y="-29" type="curve"/>
      <point x="53" y="13"/>
      <point x="68" y="30"/>
      <point x="124" y="86" type="curve" smooth="yes"/>
      <point x="155" y="117"/>
      <point x="232" y="173"/>
      <point x="297" y="243" type="curve" smooth="yes"/>
      <point x="313" y="260"/>
      <point x="334" y="285"/>
      <point x="348" y="325" type="curve"/>
      <point x="293" y="274"/>
      <point x="232" y="228"/>
      <point x="154" y="155" type="curve" smooth="yes"/>
      <point x="59" y="66"/>
      <point x="-2" y="5"/>
    </contour>
    <contour>
      <point x="166" y="-9" type="curve" smooth="yes"/>
      <point x="263" y="-9"/>
      <point x="341" y="62"/>
      <point x="341" y="149" type="curve" smooth="yes"/>
      <point x="341" y="245"/>
      <point x="259" y="323"/>
      <point x="158" y="323" type="curve" smooth="yes"/>
      <point x="75" y="323"/>
      <point x="8" y="244"/>
      <point x="8" y="157" type="curve" smooth="yes"/>
      <point x="8" y="65"/>
      <point x="79" y="-9"/>
    </contour>
    <contour>
      <point x="190" y="16" type="curve" smooth="yes"/>
      <point x="108" y="16"/>
      <point x="41" y="62"/>
      <point x="41" y="155" type="curve" smooth="yes"/>
      <point x="41" y="231"/>
      <point x="93" y="293"/>
      <point x="177" y="293" type="curve" smooth="yes"/>
      <point x="246" y="293"/>
      <point x="312" y="218"/>
      <point x="312" y="157" type="curve" smooth="yes"/>
      <point x="312" y="79"/>
      <point x="248" y="16"/>
    </contour>
  </outline>
</glyph>
<glyph name="approxequal" format="2">
  <advance width="485"/>
  <unicode hex="2248"/>
  <outline>
    <contour>
      <point x="52" y="199" type="curve"/>
      <point x="75" y="220"/>
      <point x="99" y="228"/>
      <point x="124" y="228" type="curve" smooth="yes"/>
      <point x="184" y="228"/>
      <point x="244" y="199"/>
      <point x="299" y="199" type="curve" smooth="yes"/>
      <point x="332" y="199"/>
      <point x="365" y="212"/>
      <point x="390" y="261" type="curve"/>
      <point x="368" y="246"/>
      <point x="346" y="238"/>
      <point x="324" y="238" type="curve" smooth="yes"/>
      <point x="256" y="238"/>
      <point x="198" y="268"/>
      <point x="147" y="268" type="curve" smooth="yes"/>
      <point x="113" y="268"/>
      <point x="78" y="249"/>
    </contour>
    <contour>
      <point x="52" y="98" type="curve"/>
      <point x="75" y="119"/>
      <point x="99" y="127"/>
      <point x="124" y="127" type="curve" smooth="yes"/>
      <point x="184" y="127"/>
      <point x="244" y="98"/>
      <point x="299" y="98" type="curve" smooth="yes"/>
      <point x="332" y="98"/>
      <point x="365" y="111"/>
      <point x="390" y="160" type="curve"/>
      <point x="368" y="145"/>
      <point x="346" y="137"/>
      <point x="324" y="137" type="curve" smooth="yes"/>
      <point x="256" y="137"/>
      <point x="198" y="167"/>
      <point x="147" y="167" type="curve" smooth="yes"/>
      <point x="113" y="167"/>
      <point x="78" y="148"/>
    </contour>
  </outline>
</glyph>
<glyph name="IJacute" format="2">
  <advance width="461"/>
  <outline>
    <contour>
      <point x="100" y="-280" type="curve" smooth="yes"/>
      <point x="181" y="-280"/>
      <point x="248" y="-160"/>
      <point x="293" y="-36" type="curve"/>
      <point x="354" y="0"/>
      <point x="440" y="31"/>
      <point x="490" y="150" type="curve"/>
      <point x="477" y="157" type="line"/>
      <point x="420" y="52"/>
      <point x="360" y="26"/>
      <point x="303" y="-8" type="curve"/>
      <point x="352" y="136"/>
      <point x="383" y="287"/>
      <point x="383" y="317" type="curve" smooth="yes"/>
      <point x="383" y="334"/>
      <point x="374" y="347"/>
      <point x="359" y="347" type="curve" smooth="yes"/>
      <point x="318" y="347"/>
      <point x="294" y="223"/>
      <point x="249" y="141" type="curve" smooth="yes"/>
      <point x="196" y="43"/>
      <point x="148" y="9"/>
      <point x="106" y="9" type="curve" smooth="yes"/>
      <point x="73" y="9"/>
      <point x="57" y="21"/>
      <point x="57" y="69" type="curve" smooth="yes"/>
      <point x="57" y="163"/>
      <point x="161" y="284"/>
      <point x="161" y="317" type="curve" smooth="yes"/>
      <point x="161" y="331"/>
      <point x="151" y="339"/>
      <point x="139" y="339" type="curve" smooth="yes"/>
      <point x="71" y="339"/>
      <point x="-5" y="134"/>
      <point x="-5" y="58" type="curve" smooth="yes"/>
      <point x="-5" y="11"/>
      <point x="20" y="-26"/>
      <point x="72" y="-26" type="curve" smooth="yes"/>
      <point x="178" y="-26"/>
      <point x="236" y="67"/>
      <point x="305" y="205" type="curve"/>
      <point x="288" y="105"/>
      <point x="264" y="23"/>
      <point x="238" y="-41" type="curve"/>
      <point x="212" y="-54"/>
      <point x="193" y="-62"/>
      <point x="174" y="-73" type="curve" smooth="yes"/>
      <point x="100" y="-114"/>
      <point x="48" y="-180"/>
      <point x="48" y="-229" type="curve" smooth="yes"/>
      <point x="48" y="-258"/>
      <point x="66" y="-280"/>
    </contour>
    <contour>
      <point x="91" y="-246" type="curve" smooth="yes"/>
      <point x="82" y="-246"/>
      <point x="74" y="-240"/>
      <point x="74" y="-222" type="curve" smooth="yes"/>
      <point x="74" y="-180"/>
      <point x="124" y="-123"/>
      <point x="225" y="-73" type="curve"/>
      <point x="173" y="-188"/>
      <point x="117" y="-246"/>
    </contour>
    <component base="acutecomb" xOffset="349"/>
    <component base="acutecomb" xOffset="139"/>
  </outline>
</glyph>
<glyph name="M.salt" format="2">
  <advance width="943"/>
  <outline>
    <contour>
      <point x="-19" y="-103" type="curve" smooth="yes"/>
      <point x="176" y="-103"/>
      <point x="365" y="365"/>
      <point x="395" y="489" type="curve"/>
      <point x="401" y="441"/>
      <point x="403" y="393"/>
      <point x="403" y="346" type="curve" smooth="yes"/>
      <point x="403" y="184"/>
      <point x="379" y="71"/>
      <point x="379" y="35" type="curve" smooth="yes"/>
      <point x="379" y="-2"/>
      <point x="404" y="-13"/>
      <point x="407" y="-13" type="curve" smooth="yes"/>
      <point x="411" y="-13"/>
      <point x="424" y="8"/>
      <point x="428" y="19" type="curve" smooth="yes"/>
      <point x="491" y="181"/>
      <point x="510" y="226"/>
      <point x="689" y="485" type="curve"/>
      <point x="640" y="380"/>
      <point x="574" y="207"/>
      <point x="574" y="91" type="curve" smooth="yes"/>
      <point x="574" y="-14"/>
      <point x="628" y="-68"/>
      <point x="687" y="-68" type="curve" smooth="yes"/>
      <point x="763" y="-68"/>
      <point x="859" y="20"/>
      <point x="913" y="152" type="curve"/>
      <point x="902" y="162" type="line"/>
      <point x="848" y="38"/>
      <point x="757" y="-41"/>
      <point x="697" y="-41" type="curve" smooth="yes"/>
      <point x="656" y="-41"/>
      <point x="642" y="-4"/>
      <point x="642" y="60" type="curve" smooth="yes"/>
      <point x="642" y="261"/>
      <point x="780" y="556"/>
      <point x="873" y="641" type="curve"/>
      <point x="871" y="657"/>
      <point x="859" y="670"/>
      <point x="843" y="670" type="curve" smooth="yes"/>
      <point x="753" y="670"/>
      <point x="516" y="288"/>
      <point x="446" y="141" type="curve"/>
      <point x="454" y="190"/>
      <point x="461" y="306"/>
      <point x="461" y="381" type="curve" smooth="yes"/>
      <point x="461" y="599"/>
      <point x="401" y="720"/>
      <point x="290" y="720" type="curve" smooth="yes"/>
      <point x="204" y="720"/>
      <point x="152" y="648"/>
      <point x="152" y="584" type="curve" smooth="yes"/>
      <point x="152" y="544"/>
      <point x="172" y="507"/>
      <point x="218" y="491" type="curve"/>
      <point x="209" y="507"/>
      <point x="205" y="531"/>
      <point x="205" y="556" type="curve" smooth="yes"/>
      <point x="205" y="621"/>
      <point x="231" y="698"/>
      <point x="289" y="698" type="curve" smooth="yes"/>
      <point x="337" y="698"/>
      <point x="378" y="645"/>
      <point x="378" y="570" type="curve" smooth="yes"/>
      <point x="378" y="441"/>
      <point x="259" y="202"/>
      <point x="179" y="85" type="curve" smooth="yes"/>
      <point x="131" y="15"/>
      <point x="75" y="-46"/>
      <point x="0" y="-46" type="curve" smooth="yes"/>
      <point x="-43" y="-46"/>
      <point x="-72" y="-26"/>
      <point x="-92" y="5" type="curve"/>
      <point x="-100" y="-5"/>
      <point x="-103" y="-19"/>
      <point x="-103" y="-31" type="curve" smooth="yes"/>
      <point x="-103" y="-70"/>
      <point x="-71" y="-103"/>
    </contour>
  </outline>
</glyph>
<glyph name="acutecomb.case" format="2">
  <outline>
    <contour>
      <point x="33" y="360" type="curve"/>
      <point x="62" y="399"/>
      <point x="97" y="434"/>
      <point x="145" y="476" type="curve"/>
      <point x="143" y="500"/>
      <point x="134" y="507"/>
      <point x="123" y="507" type="curve" smooth="yes"/>
      <point x="83" y="507"/>
      <point x="19" y="409"/>
      <point x="19" y="386" type="curve" smooth="yes"/>
      <point x="19" y="380"/>
      <point x="23" y="365"/>
    </contour>
  </outline>
</glyph>
<glyph name="brevecomb.case" format="2">
  <outline>
    <contour>
      <point x="63" y="370" type="curve" smooth="yes"/>
      <point x="120" y="370"/>
      <point x="171" y="405"/>
      <point x="171" y="450" type="curve" smooth="yes"/>
      <point x="171" y="459"/>
      <point x="169" y="472"/>
      <point x="161" y="480" type="curve"/>
      <point x="145" y="452"/>
      <point x="116" y="420"/>
      <point x="65" y="420" type="curve" smooth="yes"/>
      <point x="10" y="420"/>
      <point x="-12" y="466"/>
      <point x="-16" y="511" type="curve"/>
      <point x="-31" y="501"/>
      <point x="-40" y="486"/>
      <point x="-40" y="462" type="curve" smooth="yes"/>
      <point x="-40" y="426"/>
      <point x="-13" y="370"/>
    </contour>
  </outline>
</glyph>
<glyph name="breveinvertedcomb.case" format="2">
  <outline>
    <contour>
      <point x="134" y="340" type="curve"/>
      <point x="149" y="351"/>
      <point x="158" y="368"/>
      <point x="158" y="394" type="curve" smooth="yes"/>
      <point x="158" y="428"/>
      <point x="126" y="481"/>
      <point x="54" y="481" type="curve" smooth="yes"/>
      <point x="-6" y="481"/>
      <point x="-53" y="446"/>
      <point x="-53" y="401" type="curve" smooth="yes"/>
      <point x="-53" y="392"/>
      <point x="-50" y="379"/>
      <point x="-43" y="371" type="curve"/>
      <point x="-28" y="399"/>
      <point x="-2" y="431"/>
      <point x="45" y="431" type="curve" smooth="yes"/>
      <point x="108" y="431"/>
      <point x="130" y="385"/>
    </contour>
  </outline>
</glyph>
<glyph name="caroncomb.alt" format="2">
  <anchor x="0" y="418" name="_topright"/>
  <outline>
    <contour>
      <point x="25" y="387" type="curve" smooth="yes"/>
      <point x="32" y="387"/>
      <point x="37" y="389"/>
      <point x="41" y="392" type="curve"/>
      <point x="54" y="430"/>
      <point x="77" y="477"/>
      <point x="103" y="512" type="curve"/>
      <point x="99" y="515"/>
      <point x="95" y="516"/>
      <point x="89" y="516" type="curve" smooth="yes"/>
      <point x="52" y="516"/>
      <point x="0" y="450"/>
      <point x="0" y="413" type="curve" smooth="yes"/>
      <point x="0" y="396"/>
      <point x="13" y="387"/>
    </contour>
  </outline>
</glyph>
<glyph name="cedillacomb.case" format="2">
  <outline>
    <contour>
      <point x="-58" y="-211" type="curve" smooth="yes"/>
      <point x="4" y="-211"/>
      <point x="59" y="-156"/>
      <point x="59" y="-99" type="curve" smooth="yes"/>
      <point x="59" y="-71"/>
      <point x="44" y="-57"/>
      <point x="14" y="-57" type="curve" smooth="yes"/>
      <point x="-18" y="-57"/>
      <point x="-39" y="-71"/>
      <point x="-53" y="-81" type="curve"/>
      <point x="0" y="0" type="line"/>
      <point x="-13" y="0" type="line"/>
      <point x="-36" y="-21"/>
      <point x="-88" y="-94"/>
      <point x="-88" y="-98" type="curve" smooth="yes"/>
      <point x="-88" y="-105"/>
      <point x="-83" y="-116"/>
      <point x="-74" y="-116" type="curve" smooth="yes"/>
      <point x="-62" y="-116"/>
      <point x="-16" y="-75"/>
      <point x="11" y="-75" type="curve" smooth="yes"/>
      <point x="24" y="-75"/>
      <point x="28" y="-90"/>
      <point x="28" y="-100" type="curve" smooth="yes"/>
      <point x="28" y="-135"/>
      <point x="-17" y="-187"/>
      <point x="-55" y="-187" type="curve" smooth="yes"/>
      <point x="-72" y="-187"/>
      <point x="-90" y="-174"/>
      <point x="-97" y="-142" type="curve"/>
      <point x="-112" y="-153"/>
      <point x="-119" y="-165"/>
      <point x="-119" y="-175" type="curve" smooth="yes"/>
      <point x="-119" y="-194"/>
      <point x="-97" y="-211"/>
    </contour>
  </outline>
</glyph>
<glyph name="circumflexcomb.case" format="2">
  <outline>
    <contour>
      <point x="125" y="356" type="curve"/>
      <point x="137" y="362"/>
      <point x="142" y="374"/>
      <point x="142" y="387" type="curve" smooth="yes"/>
      <point x="142" y="430"/>
      <point x="84" y="498"/>
      <point x="52" y="498" type="curve" smooth="yes"/>
      <point x="25" y="498"/>
      <point x="-62" y="449"/>
      <point x="-62" y="410" type="curve" smooth="yes"/>
      <point x="-62" y="404"/>
      <point x="-60" y="396"/>
      <point x="-52" y="391" type="curve"/>
      <point x="-22" y="418"/>
      <point x="10" y="433"/>
      <point x="51" y="448" type="curve"/>
      <point x="83" y="418"/>
      <point x="106" y="394"/>
    </contour>
  </outline>
</glyph>
<glyph name="circumflexcomb_gravecomb" format="2">
  <outline>
    <contour>
      <point x="176" y="449" type="curve"/>
      <point x="189" y="454"/>
      <point x="197" y="464"/>
      <point x="197" y="479" type="curve" smooth="yes"/>
      <point x="197" y="508"/>
      <point x="155" y="583"/>
      <point x="122" y="583" type="curve" smooth="yes"/>
      <point x="110" y="583"/>
      <point x="100" y="577"/>
      <point x="97" y="555" type="curve"/>
      <point x="131" y="516"/>
      <point x="157" y="483"/>
    </contour>
    <component base="circumflexcomb.case"/>
  </outline>
</glyph>
<glyph name="dotaccentcomb.case" format="2">
  <outline>
    <contour>
      <point x="38" y="383" type="curve" smooth="yes"/>
      <point x="67" y="383"/>
      <point x="98" y="406"/>
      <point x="98" y="432" type="curve" smooth="yes"/>
      <point x="98" y="453"/>
      <point x="86" y="465"/>
      <point x="63" y="465" type="curve" smooth="yes"/>
      <point x="34" y="465"/>
      <point x="-2" y="445"/>
      <point x="-2" y="416" type="curve" smooth="yes"/>
      <point x="-2" y="395"/>
      <point x="14" y="383"/>
    </contour>
  </outline>
</glyph>
<glyph name="hookabovecomb.case" format="2">
  <outline>
    <contour>
      <point x="61" y="362" type="curve" smooth="yes"/>
      <point x="101" y="362"/>
      <point x="129" y="391"/>
      <point x="129" y="433" type="curve" smooth="yes"/>
      <point x="129" y="476"/>
      <point x="96" y="510"/>
      <point x="51" y="510" type="curve" smooth="yes"/>
      <point x="21" y="510"/>
      <point x="3" y="489"/>
      <point x="3" y="464" type="curve"/>
      <point x="65" y="464"/>
      <point x="96" y="452"/>
      <point x="96" y="421" type="curve" smooth="yes"/>
      <point x="96" y="388"/>
      <point x="63" y="375"/>
      <point x="27" y="373" type="curve"/>
      <point x="34" y="367"/>
      <point x="45" y="362"/>
    </contour>
  </outline>
</glyph>
<glyph name="hungarumlautcomb.case" format="2">
  <outline>
    <contour>
      <point x="60" y="360" type="curve"/>
      <point x="90" y="400"/>
      <point x="126" y="444"/>
      <point x="167" y="488" type="curve"/>
      <point x="160" y="497"/>
      <point x="152" y="507"/>
      <point x="139" y="507" type="curve" smooth="yes"/>
      <point x="105" y="507"/>
      <point x="50" y="410"/>
      <point x="50" y="384" type="curve" smooth="yes"/>
      <point x="50" y="375"/>
      <point x="53" y="365"/>
    </contour>
    <contour>
      <point x="-8" y="381" type="curve"/>
      <point x="12" y="421"/>
      <point x="39" y="459"/>
      <point x="77" y="505" type="curve"/>
      <point x="71" y="526"/>
      <point x="63" y="532"/>
      <point x="54" y="532" type="curve" smooth="yes"/>
      <point x="18" y="532"/>
      <point x="-26" y="443"/>
      <point x="-26" y="408" type="curve" smooth="yes"/>
      <point x="-26" y="391"/>
      <point x="-18" y="384"/>
    </contour>
  </outline>
</glyph>
<glyph name="l_l" format="2">
  <advance width="473"/>
  <outline>
    <contour>
      <point x="83" y="-30" type="curve" smooth="yes"/>
      <point x="142" y="-30"/>
      <point x="194" y="17"/>
      <point x="241" y="96" type="curve"/>
      <point x="234" y="24"/>
      <point x="256.2372881355932" y="-30.0"/>
      <point x="320" y="-30" type="curve" smooth="yes"/>
      <point x="392" y="-30"/>
      <point x="455" y="40"/>
      <point x="508" y="154" type="curve"/>
      <point x="493" y="162" type="line"/>
      <point x="458" y="84"/>
      <point x="402" y="2"/>
      <point x="349" y="2" type="curve" smooth="yes"/>
      <point x="320" y="2"/>
      <point x="305" y="27"/>
      <point x="305" y="79" type="curve" smooth="yes"/>
      <point x="305" y="109"/>
      <point x="310" y="144"/>
      <point x="318" y="180" type="curve"/>
      <point x="464" y="301"/>
      <point x="559" y="517"/>
      <point x="559" y="606" type="curve" smooth="yes"/>
      <point x="559" y="634"/>
      <point x="547" y="680"/>
      <point x="526" y="680" type="curve" smooth="yes"/>
      <point x="465" y="680"/>
      <point x="286" y="350"/>
      <point x="247" y="143" type="curve"/>
      <point x="212" y="71"/>
      <point x="160" y="2"/>
      <point x="112" y="2" type="curve" smooth="yes"/>
      <point x="83" y="2"/>
      <point x="68" y="27"/>
      <point x="68" y="79" type="curve" smooth="yes"/>
      <point x="68" y="109"/>
      <point x="73" y="144"/>
      <point x="81" y="180" type="curve"/>
      <point x="227" y="301"/>
      <point x="347" y="557"/>
      <point x="347" y="646" type="curve" smooth="yes"/>
      <point x="347" y="674"/>
      <point x="335" y="720"/>
      <point x="314" y="720" type="curve" smooth="yes"/>
      <point x="246" y="720"/>
      <point x="3" y="265"/>
      <point x="3" y="73" type="curve" smooth="yes"/>
      <point x="3" y="14"/>
      <point x="26" y="-30"/>
    </contour>
    <contour>
      <point x="90" y="214" type="curve"/>
      <point x="145" y="407"/>
      <point x="282" y="639"/>
      <point x="309" y="639" type="curve" smooth="yes"/>
      <point x="312" y="639"/>
      <point x="316" y="636"/>
      <point x="316" y="623" type="curve" smooth="yes"/>
      <point x="316" y="556"/>
      <point x="206" y="331"/>
    </contour>
    <contour>
      <point x="327" y="214" type="curve"/>
      <point x="382" y="407"/>
      <point x="494" y="599"/>
      <point x="521" y="599" type="curve" smooth="yes"/>
      <point x="524" y="599"/>
      <point x="528" y="596"/>
      <point x="528" y="583" type="curve" smooth="yes"/>
      <point x="528" y="516"/>
      <point x="443" y="331"/>
    </contour>
  </outline>
</glyph>
<glyph name="macroncomb.case" format="2">
  <outline>
    <contour>
      <point x="141" y="368" type="curve" smooth="yes"/>
      <point x="157" y="368"/>
      <point x="169" y="374"/>
      <point x="179" y="388" type="curve"/>
      <point x="108" y="409"/>
      <point x="11" y="435"/>
      <point x="-62" y="435" type="curve" smooth="yes"/>
      <point x="-85" y="435"/>
      <point x="-101" y="427"/>
      <point x="-108" y="409" type="curve"/>
      <point x="-48" y="403"/>
      <point x="81" y="368"/>
    </contour>
  </outline>
</glyph>
<glyph name="r.init" format="2">
  <advance width="417"/>
  <outline>
    <contour>
      <point x="242" y="-26" type="curve" smooth="yes"/>
      <point x="327" y="-26"/>
      <point x="413" y="64"/>
      <point x="451" y="149" type="curve"/>
      <point x="438" y="159" type="line"/>
      <point x="413" y="101"/>
      <point x="331" y="10"/>
      <point x="268" y="10" type="curve" smooth="yes"/>
      <point x="252" y="10"/>
      <point x="238" y="16"/>
      <point x="238" y="40" type="curve" smooth="yes"/>
      <point x="238" y="82"/>
      <point x="288" y="148"/>
      <point x="288" y="209" type="curve" smooth="yes"/>
      <point x="288" y="294"/>
      <point x="186" y="311"/>
      <point x="186" y="348" type="curve" smooth="yes"/>
      <point x="186" y="352"/>
      <point x="197" y="378"/>
      <point x="197" y="385" type="curve" smooth="yes"/>
      <point x="197" y="392"/>
      <point x="197" y="409"/>
      <point x="183" y="409" type="curve" smooth="yes"/>
      <point x="172" y="409"/>
      <point x="141" y="381"/>
      <point x="141" y="341" type="curve" smooth="yes"/>
      <point x="141" y="331"/>
      <point x="145" y="323"/>
      <point x="151" y="317" type="curve"/>
      <point x="112" y="182"/>
      <point x="46" y="35"/>
      <point x="18" y="0" type="curve"/>
      <point x="32" y="-15" type="line"/>
      <point x="63" y="21"/>
      <point x="122" y="163"/>
      <point x="168" y="302" type="curve"/>
      <point x="193" y="284"/>
      <point x="224" y="269"/>
      <point x="224" y="226" type="curve" smooth="yes"/>
      <point x="224" y="173"/>
      <point x="169" y="98"/>
      <point x="169" y="39" type="curve" smooth="yes"/>
      <point x="169" y="0"/>
      <point x="197" y="-26"/>
    </contour>
  </outline>
</glyph>
<glyph name="ringcomb.case" format="2">
  <outline>
    <contour>
      <point x="32" y="366" type="curve" smooth="yes"/>
      <point x="100" y="366"/>
      <point x="158" y="430"/>
      <point x="158" y="478" type="curve" smooth="yes"/>
      <point x="158" y="508"/>
      <point x="137" y="532"/>
      <point x="82" y="532" type="curve" smooth="yes"/>
      <point x="14" y="532"/>
      <point x="-40" y="468"/>
      <point x="-40" y="420" type="curve" smooth="yes"/>
      <point x="-40" y="390"/>
      <point x="-20" y="366"/>
    </contour>
    <contour>
      <point x="41" y="386" type="curve" smooth="yes"/>
      <point x="12" y="386"/>
      <point x="-1" y="409"/>
      <point x="-1" y="427" type="curve" smooth="yes"/>
      <point x="-1" y="463"/>
      <point x="37" y="509"/>
      <point x="77" y="509" type="curve" smooth="yes"/>
      <point x="107" y="509"/>
      <point x="121" y="491"/>
      <point x="121" y="472" type="curve" smooth="yes"/>
      <point x="121" y="437"/>
      <point x="80" y="386"/>
    </contour>
  </outline>
</glyph>
